<svg width="260" height="59" viewBox="0 0 260 59" fill="none" xmlns="http://www.w3.org/2000/svg">
<path d="M15.7007 19.8985C15.7007 16.4679 18.4818 13.6868 21.9124 13.6868H43.0714C46.502 13.6868 49.2831 16.4679 49.2831 19.8985C49.2831 23.3291 46.502 26.1102 43.0714 26.1102H21.9124C18.4818 26.1102 15.7007 23.3291 15.7007 19.8985Z" fill="#FFD0D0"/>
<path d="M31.8469 35.8904C31.8469 32.4598 34.628 29.6787 38.0587 29.6787H55.3427C58.7734 29.6787 61.5544 32.4598 61.5544 35.8904C61.5544 39.3211 58.7734 42.1022 55.3427 42.1022H38.0587C34.628 42.1022 31.8469 39.3211 31.8469 35.8904Z" fill="#BEBEBE"/>
<path d="M16.3469 35.8904C16.3469 32.4598 19.128 29.6787 22.5587 29.6787H23.0515C26.4822 29.6787 29.2632 32.4598 29.2632 35.8904C29.2632 39.3211 26.4822 42.1022 23.0515 42.1022H22.5587C19.128 42.1022 16.3469 39.3211 16.3469 35.8904Z" fill="#FFD0D0"/>
<path d="M108.354 12.0486H104.115V22.9706H94.2243V26.4076H104.115V46.6095H108.354V12.0486ZM81.2019 38.4371H84.0279C89.317 38.418 94.4725 38.1316 100.029 36.9859L99.5325 33.5107C94.6825 34.4654 90.0808 34.8091 85.4409 34.8664V15.8293H81.2019V38.4371Z" fill="#BEBEBE"/>
<path d="M139.812 12.0486H135.574V46.4949H139.812V29.0808H144.93V25.5293H139.812V12.0486ZM112.584 37.0623L114.99 40.3465C126.465 34.6946 130.666 25.7775 130.685 15.6384H114.455V19.1518H126.37C125.53 27.0186 120.985 32.8615 112.584 37.0623Z" fill="#BEBEBE"/>
<path d="M177.725 38.8571H163.9V30.8757H159.7V38.8571H146.181V42.2941H177.725V38.8571ZM147.097 28.2025L148.93 31.7158C154.754 30.6275 159.49 27.2478 161.762 22.7415C164.053 27.2669 168.846 30.6084 174.67 31.7158L176.503 28.2025C169.228 27.0377 164.015 21.8822 164.015 16.6695V14.149H159.509V16.6695C159.49 21.8632 154.315 27.0377 147.097 28.2025Z" fill="#BEBEBE"/>
<path d="M209.221 12.0486H205.135V25.4147H201.431V12.9652H197.459V44.9673H201.431V28.8517H205.135V46.5713H209.221V12.0486ZM179.319 36.4131L181.764 39.3536C191.578 33.7589 194.519 25.7393 194.519 16.4022H180.923V19.801H190.394C189.783 26.7131 186.671 32.1741 179.319 36.4131Z" fill="#BEBEBE"/>
<path d="M225.748 20.3356V14.8364H221.432V20.3356C221.413 26.7895 218.282 33.4343 212.649 36.0694L215.322 39.5064C219.294 37.5014 222.12 33.5298 223.628 28.7562C225.099 33.2816 227.848 36.9477 231.743 38.8571L234.302 35.4583C228.803 33.0525 225.729 26.7513 225.748 20.3356ZM230.483 26.6367H237.739V46.6095H241.94V12.0486H237.739V23.1998H230.483V26.6367Z" fill="#BEBEBE"/>
</svg>
