<svg width="208" height="208" viewBox="0 0 208 208" fill="none" xmlns="http://www.w3.org/2000/svg">
<ellipse cx="107.063" cy="147.602" rx="71.5194" ry="43.7063" fill="#F4EEED"/>
<path fill-rule="evenodd" clip-rule="evenodd" d="M100.683 35.2926L100.441 35.4662L99.1164 39.4397L80.1323 105.582L73.7542 100.866C70.5119 98.4683 66.4077 97.5521 62.4537 98.343C59.1449 99.0049 56.9102 102.111 57.3348 105.459L57.4642 106.479C57.8636 109.628 58.6139 112.723 59.701 115.705L64.4765 128.805C67.0654 135.908 71.0009 142.443 76.067 148.053L82.0556 152.62C86.4782 157.517 89.744 163.346 91.6116 169.676L97.3503 190.866C97.3503 190.866 103.973 192.191 119.424 190.425C134.876 188.659 144.147 185.127 144.147 185.127L130.831 150.369C130.456 149.501 130.606 148.495 131.217 147.773L135.759 141.421C140.238 130.397 140.146 127.632 139.89 119.876C139.818 117.692 139.733 115.113 139.733 111.842C139.161 109.903 142.168 107.945 143.89 106.885L146.354 105.219C146.521 105.019 146.677 104.832 146.824 104.656C147.722 103.581 148.29 102.902 148.784 102.19C149.964 100.492 150.477 98.4363 150.769 96.3893C150.769 92.4162 150.328 90.2087 148.12 88.0014L144.679 85.6602L144.982 82.2756C145.465 76.8859 141.02 72.3389 135.621 72.6989L132.495 72.9072C134.824 62.0641 126.328 56.3604 115.368 60.9576L114.149 61.3175C114.149 61.3175 115.893 54.4502 119.424 45.179C121.359 40.1014 121.836 37.4074 121.873 36.0091C122.636 30.9634 121.557 26.2825 117.593 24.6663C109.568 21.3938 103.683 28.7578 100.683 35.2926Z" fill="url(#paint0_linear_1936_18411)"/>
<rect width="60.2038" height="106.363" rx="13" transform="matrix(-0.853969 0.520323 0.520323 0.853969 95.6865 32.8947)" fill="#434343"/>
<rect width="50.2032" height="97.1288" rx="8" transform="matrix(-0.853969 0.520323 0.520323 0.853969 93.8186 39.4392)" fill="#606060"/>
<path fill-rule="evenodd" clip-rule="evenodd" d="M119.123 85.8601C116.361 87.0335 113.487 86.9816 111.34 85.4356C107.537 82.6974 107.457 76.3093 111.159 71.1672C114.862 66.0252 120.946 64.0765 124.749 66.8147C126.193 67.8548 127.101 69.4215 127.468 71.2464C129.391 71.1134 131.398 71.5438 133.22 72.6019C137.889 75.3131 139.579 81.1184 136.995 85.5685C136.587 86.2719 136.096 86.8994 135.541 87.4466C136.43 90.3745 135.248 93.5934 132.717 95.8425C133.037 95.7204 133.364 95.6068 133.697 95.5022C139.847 93.5742 145.911 95.4507 147.241 99.6935C148.571 103.936 144.664 108.939 138.514 110.867C132.365 112.795 126.301 110.918 124.971 106.675C124.065 103.785 125.59 100.541 128.598 98.1579C123.768 99.6828 118.791 97.801 117.298 93.79C116.302 91.1128 117.1 88.1384 119.123 85.8601ZM69.4287 119.406C64.1714 119.909 57.9158 109.978 57.2902 103.434C56.6646 96.8908 60.748 87.1793 66.0053 86.6766C75.7179 85.748 78.624 96.8909 79.2496 103.435C79.8753 109.978 74.6861 118.903 69.4287 119.406Z" fill="#FFD4CA"/>
<path d="M16 41C16 36.5817 19.5817 33 24 33H74.7467C79.165 33 82.7467 36.5817 82.7467 41V65.5913C82.7467 70.0096 79.165 73.5913 74.7467 73.5913H24C19.5817 73.5913 16 70.0096 16 65.5913V41Z" fill="#FF7D7D"/>
<path d="M48 48H75" stroke="white" stroke-opacity="0.4" stroke-width="5" stroke-linecap="round"/>
<path d="M48 58H75" stroke="white" stroke-opacity="0.4" stroke-width="5" stroke-linecap="round"/>
<rect x="22" y="44" width="19" height="19" rx="6" fill="white" fill-opacity="0.4"/>
<path d="M132.642 71.9777C129.137 78.1584 123.398 83.0146 118.983 85.6635C127.813 83.8976 132.227 77.7169 133.552 72.8606L132.642 71.9777Z" fill="#FFA28E"/>
<path d="M144.562 85.2222C141.057 90.9614 133.993 95.3762 128.254 98.025C130.462 98.4665 138.408 97.1421 145.472 86.1051L144.562 85.2222Z" fill="#FFA28E"/>
<defs>
<linearGradient id="paint0_linear_1936_18411" x1="83.8906" y1="32.2722" x2="133.536" y2="199.188" gradientUnits="userSpaceOnUse">
<stop offset="0.755108" stop-color="#FFD3C9"/>
<stop offset="0.755208" stop-color="#FFD2C8"/>
<stop offset="1" stop-color="#FFE0E0" stop-opacity="0"/>
</linearGradient>
</defs>
</svg>
