<svg width="159" height="159" viewBox="0 0 159 159" fill="none" xmlns="http://www.w3.org/2000/svg">
<path d="M29 63.4954H129.44V118C129.44 124.075 124.515 129 118.44 129H40C33.9249 129 29 124.075 29 118V63.4954Z" fill="#FF6262"/>
<path d="M69.0132 20.8727C74.543 14.9822 83.8973 14.9822 89.4272 20.8727L129.44 63.4954L29 63.4954L69.0132 20.8727Z" fill="#FF6262"/>
<g filter="url(#filter0_d_2092_18699)">
<rect x="43.1929" y="35.1101" width="70.9633" height="90.6147" rx="12" fill="#FFF3F3"/>
</g>
<path d="M117.431 129L40 129C33.9249 129 29 124.075 29 118L29 63.4954L117.431 129Z" fill="#FFA9A9"/>
<path d="M41.0093 129L118.44 129C124.516 129 129.44 124.075 129.44 118L129.44 63.4954L41.0093 129Z" fill="#FFA9A9"/>
<mask id="mask0_2092_18699" style="mask-type:alpha" maskUnits="userSpaceOnUse" x="29" y="63" width="101" height="66">
<rect x="129.44" y="129" width="100.44" height="65.5046" rx="11" transform="rotate(-180 129.44 129)" fill="url(#paint0_linear_2092_18699)"/>
</mask>
<g mask="url(#mask0_2092_18699)">
<path d="M71.7331 92.5689C76.2984 88.4551 83.2338 88.4551 87.7991 92.5689L129.44 130.092L30.0918 130.092L71.7331 92.5689Z" fill="url(#paint1_linear_2092_18699)"/>
</g>
<circle cx="79.22" cy="63.4954" r="14.1927" fill="#FF6262"/>
<path d="M72.1235 62.3525L77.0475 67.0439L86.3162 58.7649" stroke="white" stroke-width="2"/>
<defs>
<filter id="filter0_d_2092_18699" x="33.1929" y="25.1101" width="90.9634" height="110.615" filterUnits="userSpaceOnUse" color-interpolation-filters="sRGB">
<feFlood flood-opacity="0" result="BackgroundImageFix"/>
<feColorMatrix in="SourceAlpha" type="matrix" values="0 0 0 0 0 0 0 0 0 0 0 0 0 0 0 0 0 0 127 0" result="hardAlpha"/>
<feOffset/>
<feGaussianBlur stdDeviation="5"/>
<feComposite in2="hardAlpha" operator="out"/>
<feColorMatrix type="matrix" values="0 0 0 0 0.594262 0 0 0 0 0.593125 0 0 0 0 0.65 0 0 0 0.15 0"/>
<feBlend mode="normal" in2="BackgroundImageFix" result="effect1_dropShadow_2092_18699"/>
<feBlend mode="normal" in="SourceGraphic" in2="effect1_dropShadow_2092_18699" result="shape"/>
</filter>
<linearGradient id="paint0_linear_2092_18699" x1="179.661" y1="129" x2="179.661" y2="194.505" gradientUnits="userSpaceOnUse">
<stop stop-color="#FF7E7E"/>
<stop offset="1" stop-color="#FF8F8F"/>
</linearGradient>
<linearGradient id="paint1_linear_2092_18699" x1="79.7661" y1="85.3303" x2="79.7661" y2="130.092" gradientUnits="userSpaceOnUse">
<stop stop-color="#FF7E7E"/>
<stop offset="1" stop-color="#FF8F8F"/>
</linearGradient>
</defs>
</svg>
