<svg width="104" height="104" viewBox="0 0 104 104" fill="none" xmlns="http://www.w3.org/2000/svg">
<rect width="104" height="104" rx="36" fill="#EFEFEF"/>
<path d="M27.6664 42.5065C27.6664 38.9131 30.5795 36 34.1729 36H56.481C60.0745 36 62.9876 38.9131 62.9876 42.5065V42.5065C62.9876 46.1 60.0745 49.0131 56.481 49.0131H34.1729C30.5795 49.0131 27.6664 46.1 27.6664 42.5065V42.5065Z" fill="white"/>
<rect x="45" y="53" width="32" height="13" rx="6.5" fill="white"/>
<rect x="28" y="53" width="13" height="13" rx="6.5" fill="white"/>
<circle cx="89.5" cy="89.5" r="14.5" fill="#FF6262"/>
<path d="M83 94.0837V97H85.9163L94.5173 88.399L91.601 85.4827L83 94.0837ZM96.7725 86.1437C97.0758 85.8404 97.0758 85.3505 96.7725 85.0472L94.9528 83.2275C94.6495 82.9242 94.1596 82.9242 93.8563 83.2275L92.4331 84.6506L95.3494 87.5669L96.7725 86.1437Z" fill="white"/>
</svg>

