<svg width="93" height="22" viewBox="0 0 93 22" fill="none" xmlns="http://www.w3.org/2000/svg">
<path d="M5.50902 8.72537C5.50902 7.55566 6.45726 6.60742 7.62697 6.60742H14.8413C16.011 6.60742 16.9593 7.55566 16.9593 8.72537C16.9593 9.89509 16.011 10.8433 14.8413 10.8433H7.62697C6.45726 10.8433 5.50902 9.89509 5.50902 8.72537Z" fill="#FFD0D0"/>
<path d="M11.0142 14.178C11.0142 13.0083 11.9624 12.0601 13.1321 12.0601H19.0253C20.195 12.0601 21.1433 13.0083 21.1433 14.178C21.1433 15.3477 20.195 16.296 19.0253 16.296H13.1321C11.9624 16.296 11.0142 15.3477 11.0142 14.178Z" fill="#BEBEBE"/>
<path d="M5.72931 14.178C5.72931 13.0083 6.67755 12.0601 7.84726 12.0601H8.01531C9.18502 12.0601 10.1333 13.0083 10.1333 14.178C10.1333 15.3477 9.18502 16.296 8.01531 16.296H7.84726C6.67755 16.296 5.72931 15.3477 5.72931 14.178Z" fill="#FFD0D0"/>
<path d="M38.6843 4.72784H37.1457V8.69212H33.5557V9.93962H37.1457V17.2721H38.6843V4.72784ZM28.829 14.3059H29.8548C31.7745 14.2989 33.6458 14.195 35.6626 13.7791L35.4824 12.5178C33.722 12.8643 32.0517 12.9891 30.3676 13.0099V6.10009H28.829V14.3059Z" fill="#BEBEBE"/>
<path d="M50.1025 4.72784H48.5639V17.2306H50.1025V10.9099H51.9599V9.62081H50.1025V4.72784ZM40.2195 13.8069L41.0928 14.9989C45.258 12.9475 46.7828 9.71091 46.7897 6.03079H40.8987V7.30601H45.2234C44.9184 10.1614 43.269 12.2821 40.2195 13.8069Z" fill="#BEBEBE"/>
<path d="M63.8632 14.4583H58.8455V11.5614H57.3208V14.4583H52.414V15.7058H63.8632V14.4583ZM52.7466 10.5911L53.412 11.8663C55.5258 11.4713 57.2446 10.2446 58.0693 8.60895C58.901 10.2515 60.6405 11.4643 62.7544 11.8663L63.4197 10.5911C60.7791 10.1683 58.8871 8.29708 58.8871 6.40504V5.4902H57.2515V6.40504C57.2446 8.29015 55.3664 10.1683 52.7466 10.5911Z" fill="#BEBEBE"/>
<path d="M75.2953 4.72784H73.8122V9.57923H72.4677V5.06051H71.0261V16.6761H72.4677V10.8267H73.8122V17.2583H75.2953V4.72784ZM64.4421 13.5712L65.3292 14.6385C68.8915 12.6079 69.9588 9.69705 69.9588 6.30801H65.0242V7.54165H68.4618C68.24 10.0505 67.1103 12.0326 64.4421 13.5712Z" fill="#BEBEBE"/>
<path d="M81.2938 7.7357V5.7397H79.7275V7.7357C79.7206 10.0782 78.584 12.4901 76.5395 13.4465L77.5098 14.694C78.9513 13.9663 79.977 12.5247 80.5246 10.7921C81.0582 12.4346 82.0562 13.7653 83.47 14.4583L84.3987 13.2247C82.4027 12.3514 81.2869 10.0644 81.2938 7.7357ZM83.0126 10.0228H85.6462V17.2721H87.171V4.72784H85.6462V8.77529H83.0126V10.0228Z" fill="#BEBEBE"/>
</svg>
