<svg width="84" height="72" viewBox="0 0 84 72" fill="none" xmlns="http://www.w3.org/2000/svg">
<path d="M0 14C0 6.26801 6.26801 0 14 0H70C77.732 0 84 6.26801 84 14V58C84 65.732 77.732 72 70 72H14C6.26802 72 0 65.732 0 58V14Z" fill="#F5F5F5"/>
<path d="M43.5664 14.3333C41.9096 14.3333 40.5664 15.6765 40.5664 17.3333C40.5664 18.9902 41.9096 20.3333 43.5664 20.3333V14.3333ZM67.5664 20.3333C69.2233 20.3333 70.5664 18.9902 70.5664 17.3333C70.5664 15.6765 69.2233 14.3333 67.5664 14.3333V20.3333ZM43.5664 20.3333H67.5664V14.3333H43.5664V20.3333Z" fill="#E9E9E9"/>
<path d="M43.5664 24.534C41.9096 24.534 40.5664 25.8771 40.5664 27.534C40.5664 29.1909 41.9096 30.534 43.5664 30.534V24.534ZM67.5664 30.534C69.2233 30.534 70.5664 29.1909 70.5664 27.534C70.5664 25.8771 69.2233 24.534 67.5664 24.534V30.534ZM43.5664 30.534H67.5664V24.534H43.5664V30.534Z" fill="#E9E9E9"/>
<rect x="12.0664" y="12.4998" width="21.6667" height="21.6667" rx="6.5" fill="#E9E9E9" stroke="#E9E9E9"/>
<rect x="12.0664" y="40.5016" width="60.3333" height="21.6667" rx="7.5" fill="#E9E9E9" stroke="#E9E9E9"/>
</svg>
