<svg width="205" height="222" viewBox="0 0 205 222" fill="none" xmlns="http://www.w3.org/2000/svg">
<path d="M27.4844 149.068C27.4844 149.068 27.4844 41.1601 27.4844 24.6823V25.6964C27.4844 13.3592 35.813 3.38806 46.1179 3.38806C56.4227 3.38806 64.7513 13.3592 64.7513 25.6964" stroke="#434343" stroke-width="2.54093" stroke-miterlimit="10"/>
<path d="M107.529 133.314C60.0139 133.314 21.4764 153.049 21.4764 177.357C21.4764 201.665 60.0139 221.4 107.529 221.4C123.622 221.4 138.613 219.113 151.487 215.217C154.452 214.285 157.331 213.269 160.127 212.168C180.454 204.122 193.582 191.502 193.582 177.357C193.582 153.049 155.045 133.314 107.529 133.314Z" fill="#F8F8F8"/>
<path d="M112.69 148.645C116.422 113.668 95.7666 82.7858 66.555 79.669C37.3434 76.5522 10.6373 102.381 6.90529 137.358C3.17325 172.336 23.8285 203.218 53.0401 206.335C82.2517 209.452 108.958 183.623 112.69 148.645Z" fill="#F8F8F8"/>
<path d="M174.327 -1.35528e-06L55.4348 11.2585L66.7732 130.994L174.327 -1.35528e-06Z" fill="url(#paint0_linear_2401_21025)"/>
<path d="M71.5264 30.4913C75.7363 30.4913 79.1491 27.0785 79.1491 22.8685C79.1491 18.6586 75.7363 15.2457 71.5264 15.2457C67.3164 15.2457 63.9036 18.6586 63.9036 22.8685C63.9036 27.0785 67.3164 30.4913 71.5264 30.4913Z" fill="#FFF466"/>
<path d="M55.6019 30.9635L53.3578 4.69979L79.6215 6.94383L79.6224 6.94391C82.297 7.16679 83.4335 10.4473 81.5602 12.3207L60.9787 32.9022L60.9786 32.9021L60.9729 32.9081C59.1138 34.8416 55.8264 33.6586 55.6019 30.9643L55.6019 30.9635Z" fill="#434343" stroke="#434343" stroke-width="0.846977"/>
<path d="M151.657 212.422C151.657 212.422 144.712 209.034 151.657 203.359C152.25 202.851 152.335 202.766 152.843 202.428C151.996 203.02 151.403 203.444 150.133 204.545C143.188 210.135 151.064 213.354 151.064 213.354C151.064 213.354 155.723 215.471 160.127 214.539C157.332 214.878 151.657 212.422 151.657 212.422Z" fill="#FFBCA4"/>
<path d="M154.453 206.832L159.026 199.209C159.026 199.209 158.688 198.108 153.352 202.174C152.843 202.597 152.335 203.02 151.658 203.444C144.712 209.034 151.658 212.507 151.658 212.507C151.658 212.507 157.332 214.963 160.127 214.624C160.89 214.539 161.483 214.201 161.652 213.523C162.414 210.389 154.453 206.832 154.453 206.832Z" fill="#FFCBBF"/>
<path d="M195.7 199.971L198.833 191.671C198.833 191.671 198.241 190.401 192.396 197.092C186.552 203.783 194.006 205.985 194.006 205.985C194.006 205.985 203.915 208.356 204.085 205.223C204.254 202.089 195.7 199.971 195.7 199.971Z" fill="#FFCBBF"/>
<path d="M187.569 141.953C173.001 134.669 151.487 132.129 151.487 132.129L145.05 137.888H145.135C145.135 137.888 148.099 137.888 152.588 138.481L151.318 141.191L167.919 153.218L182.825 150C185.705 152.879 187.653 155.844 188.331 158.131C189.601 162.704 189.432 168.379 188.161 170.92C192.481 182.524 190.618 198.193 190.618 198.193C192.989 200.564 197.139 198.193 197.139 198.193C205.186 180.322 202.137 149.237 187.569 141.953Z" fill="#434343"/>
<path d="M185.367 152.964C175.203 143.478 162.075 139.921 153.605 138.65C148.523 137.888 145.22 137.888 145.22 137.888H145.135L126.078 138.227L121.335 159.232C121.335 159.232 123.876 167.363 139.122 168.548C154.367 169.734 168.851 168.633 168.851 168.633L151.234 202.428C151.234 202.428 151.996 205.731 156.146 206.408C156.146 206.408 180.624 185.403 187.145 168.379C187.992 166.092 188.585 163.805 188.67 161.688C188.839 158.3 187.908 155.336 185.367 152.964Z" fill="#4D4D4D"/>
<path d="M190.364 158.47C188.247 151.016 179.353 145.172 166.479 141.361C163.345 140.429 156.316 138.481 153.605 138.65C161.99 139.921 175.203 143.478 185.367 152.964C187.908 155.336 188.41 158.47 188.41 161.773C188.41 163.892 188.077 165.838 187.23 168.125C187.654 168.887 188.416 171.344 188.755 172.191C189.941 169.565 191.634 163.043 190.364 158.47Z" fill="#2B2B2B"/>
<path d="M107.699 221.315C135.625 221.315 158.263 202.09 158.263 178.373C158.263 154.657 135.625 135.432 107.699 135.432C79.7729 135.432 57.1344 154.657 57.1344 178.373C57.1344 202.09 79.7729 221.315 107.699 221.315Z" fill="#F8F8F8"/>
<path d="M190.703 88.1704C190.703 88.1704 193.837 79.9548 196.886 80.4629C199.935 81.0558 196.463 90.542 196.463 90.542L190.703 88.1704Z" fill="#FFCBBF"/>
<path d="M158.771 153.218C158.771 153.218 167.58 152.456 168.342 155.505C169.104 158.554 159.025 159.486 159.025 159.486L158.771 153.218Z" fill="#FFCBBF"/>
<path d="M144.627 84.105C144.627 84.105 155.638 102.146 168.681 102.061C185.875 101.976 191.041 86.2224 191.041 86.2224C191.041 86.2224 192.735 89.3562 197.14 89.3562C197.14 89.3562 187.23 112.055 170.206 114.257C151.403 116.714 140.307 108.413 140.307 108.413L144.627 84.105Z" fill="#FF8F8F"/>
<path d="M135.294 77.1629C135.207 77.1629 135.207 77.0751 135.119 77.0751C134.945 79.5329 134.945 84.1853 137.128 88.2232C140.272 94.0167 147.258 88.0477 144.638 83.8342C143.59 82.0786 143.416 80.4107 143.503 78.9185C141.32 79.0062 138.525 78.6551 135.294 77.1629Z" fill="#FFCBBF"/>
<path d="M131.923 69.3676C131.669 73.0943 133.024 76.3975 135.396 77.6679C135.48 76.6516 135.565 76.0587 135.565 76.0587C133.532 75.0423 132.092 72.4167 131.923 69.3676Z" fill="#FFD0BD"/>
<path d="M135.649 75.9739C135.649 75.9739 135.564 76.5668 135.48 77.5832C135.564 77.5832 135.564 77.6679 135.649 77.6679C138.783 79.1078 141.403 79.3619 143.52 79.1925C143.605 78.5149 143.78 78.0914 143.949 77.5832C141.747 77.8373 138.952 77.4985 135.649 75.9739Z" fill="#FFA28C"/>
<path d="M151.064 68.69L148.353 65.3021C148.353 65.3021 148.946 54.4608 143.018 55.816C134.548 57.6793 131.583 64.201 131.922 69.4523C132.176 72.5014 133.531 75.127 135.649 76.0587C139.037 77.5833 141.832 77.922 144.034 77.668C146.66 77.4139 147.761 76.7363 148.777 75.8893C149.2 75.5505 149.539 74.7035 149.539 73.5178C149.539 70.8921 148.777 69.7064 148.777 69.7064L151.064 68.69Z" fill="#FFCBBF"/>
<path d="M99.8221 132.298C99.7374 145.341 87.3716 163.721 76.615 173.122C87.2022 169.819 100.415 162.281 106.344 156.267C119.98 142.546 107.953 97.1484 132.77 86.2224H132.685C112.527 92.6594 99.9915 113.664 99.8221 132.298Z" fill="#EA5656"/>
<path d="M135.649 107.143C135.649 107.143 130.567 113.072 131.922 129.757C132.346 134.669 135.141 138.735 138.952 141.953L141.154 140.768C138.698 139.328 130.398 132.637 135.649 107.143Z" fill="#FF8989"/>
<path d="M162.668 153.218C162.668 153.218 148.015 149.83 138.953 141.953C135.141 138.65 132.346 134.67 131.923 129.757C130.567 113.072 135.649 107.143 135.649 107.143C130.483 132.637 138.783 139.328 141.155 140.768L156.146 132.637C151.827 123.489 155.807 123.659 157.501 109.006C159.28 93.5911 144.627 84.1897 144.627 84.1897C144.627 84.1897 144.797 88.8481 142.764 88.8481C140.731 88.8481 138.953 88.5093 135.819 85.2061C135.819 85.2061 107.022 92.6595 109.224 126.708C109.901 137.803 115.661 145.426 123.029 150.593C138.19 161.265 160.381 161.773 160.381 161.773C160.381 161.773 159.873 155.929 162.668 153.218Z" fill="#FFA2A2"/>
<path d="M198.325 85.0367H192.227C190.533 85.0367 189.093 83.5968 189.093 81.9028V66.1491C189.093 64.4551 190.533 63.0153 192.227 63.0153H198.325C200.019 63.0153 201.459 64.4551 201.459 66.1491V81.9028C201.459 83.6815 200.104 85.0367 198.325 85.0367Z" fill="#434343"/>
<path d="M197.987 83.0885H192.312C191.042 83.0885 190.026 82.0722 190.026 80.8017V66.4031C190.026 65.1326 191.042 64.1163 192.312 64.1163H197.987C199.258 64.1163 200.274 65.1326 200.274 66.4031V80.8017C200.274 82.0722 199.258 83.0885 197.987 83.0885Z" fill="#606060"/>
<path d="M192.029 86.3918C192.029 86.3918 189.602 78.769 192.029 78.769C194.457 78.769 194.314 84.4861 194.314 84.4861C194.314 84.4861 194.742 86.2452 192.029 86.3918Z" fill="#FFCBBF"/>
<path d="M142.362 70.6049C140.414 60.9494 143.039 59.5095 148.375 59.0013C148.375 59.0013 147.782 44.4333 135.332 54.1736C135.332 54.1736 127.878 49.6846 122.542 61.2882C119.154 68.5722 127.285 70.859 114.496 77.8889C101.707 85.0035 83.3273 72.1295 70.3686 108.465C57.4098 144.885 15.7386 114.648 35.0497 152.762C46.2298 174.868 62.6611 177.409 77.2291 172.835C87.901 163.434 100.436 149.628 100.267 136.584C100.097 113.716 113.141 92.3722 133.214 86.0199H133.299C134.315 85.5964 135.332 85.1729 136.433 84.8341C136.602 84.8341 144.987 83.2249 142.362 70.6049Z" fill="url(#paint1_linear_2401_21025)"/>
<defs>
<linearGradient id="paint0_linear_2401_21025" x1="64.0096" y1="17.0885" x2="119.758" y2="63.202" gradientUnits="userSpaceOnUse">
<stop stop-color="#FFF466" stop-opacity="0.5"/>
<stop offset="1" stop-color="#FFF466" stop-opacity="0"/>
</linearGradient>
<linearGradient id="paint1_linear_2401_21025" x1="89.2" y1="50.8187" x2="89.2" y2="174.741" gradientUnits="userSpaceOnUse">
<stop stop-color="#FF6262"/>
<stop offset="1" stop-color="#FF7575"/>
</linearGradient>
</defs>
</svg>
