<svg width="207" height="147" viewBox="0 0 207 147" fill="none" xmlns="http://www.w3.org/2000/svg">
<path d="M35.3453 104.371C32.6598 104.371 30.7457 106.793 30.7555 110.602C30.7457 114.439 32.6598 116.852 35.3453 116.852C38.0016 116.852 39.9156 114.439 39.9352 110.602C39.9156 106.793 38.0016 104.371 35.3453 104.371ZM32.8453 110.602C32.8355 107.906 33.8609 106.324 35.3453 106.324C36.8395 106.324 37.8355 107.906 37.8453 110.602C37.8355 113.316 36.8395 114.889 35.3453 114.898C33.8609 114.889 32.8355 113.316 32.8453 110.602ZM42.2594 120.738H44.4273V111.695H47.1422V109.859H44.4273V103.082H42.2594V120.738ZM54.3836 106.148V105.934H58.0945V104.195H48.3875V105.934H52.1961V106.148C52.1766 108.463 50.6629 110.758 47.8211 111.715L48.9344 113.395C51.0242 112.691 52.5281 111.236 53.3191 109.41C54.1297 111.09 55.5848 112.418 57.5867 113.062L58.7 111.383C55.8875 110.504 54.3836 108.326 54.3836 106.148ZM50.3406 116.305H60.2039V120.738H62.3914V114.547H50.3406V116.305ZM60.2039 113.727H62.3914V103.082H60.2039V113.727ZM83.2414 103.082H81.0734V112.516H83.2414V108.805H85.7023V107.008H83.2414V103.082ZM70.0578 112.047H71.4836C75.341 112.037 77.3918 111.939 79.7063 111.461L79.4719 109.703C77.3723 110.162 75.5266 110.26 72.2063 110.27V105.934H77.9094V104.176H70.0578V112.047ZM71.7961 120.484H83.2414V113.395H81.0734V115.211H73.9641V113.395H71.7961V120.484ZM73.9641 118.727V116.93H81.0734V118.727H73.9641ZM101.186 103.102H99.018V106.148H95.4633V104.254H93.3148V107.105H89.3695V104.254H87.2016V113.258H95.4633V111.695H99.018V116.129H101.186V103.102ZM89.3695 111.539V108.785H93.3148V111.539H89.3695ZM89.5453 120.387H101.577V118.629H91.7523V114.84H89.5453V120.387ZM95.4633 109.938V107.906H99.018V109.938H95.4633ZM118.173 103.082H115.986V120.758H118.173V103.082ZM104.052 110.602C104.043 114.439 105.986 116.852 108.662 116.852C111.308 116.852 113.261 114.439 113.271 110.602C113.261 106.793 111.308 104.371 108.662 104.371C105.986 104.371 104.043 106.793 104.052 110.602ZM106.142 110.602C106.142 107.906 107.168 106.324 108.662 106.324C110.146 106.324 111.162 107.906 111.162 110.602C111.162 113.316 110.146 114.889 108.662 114.898C107.168 114.889 106.142 113.316 106.142 110.602ZM129.121 113.414H127.09V120.523H133.457V119.127L134.492 120.66C135.957 120.074 136.963 118.99 137.549 117.691C138.105 119.029 139.102 120.094 140.664 120.66L141.777 119.039C139.6 118.297 138.643 116.51 138.652 114.684V113.277H136.484V114.684C136.484 116.373 135.537 118.141 133.457 119.02V113.414H131.445V115.309H129.121V113.414ZM125.352 107.906C125.352 110.357 127.314 112.047 130.02 112.047C132.314 112.047 134.121 110.748 134.551 108.785H137.734V112.438H139.902V103.082H137.734V106.988H134.541C134.092 105.074 132.295 103.795 130.02 103.805C127.314 103.795 125.352 105.494 125.352 107.906ZM127.422 107.906C127.422 106.51 128.496 105.592 130.02 105.602C131.504 105.592 132.568 106.51 132.578 107.906C132.568 109.332 131.504 110.27 130.02 110.27C128.496 110.27 127.422 109.332 127.422 107.906ZM129.121 118.863V116.93H131.445V118.863H129.121ZM147.027 104.371C144.37 104.371 142.486 106.793 142.495 110.602C142.486 114.439 144.37 116.852 147.027 116.852C149.478 116.852 151.275 114.752 151.509 111.344H154.859V120.758H157.007V103.082H154.859V109.586H151.489C151.177 106.363 149.409 104.371 147.027 104.371ZM144.585 110.602C144.575 107.906 145.571 106.324 147.027 106.324C148.491 106.324 149.478 107.906 149.488 110.602C149.478 113.316 148.491 114.889 147.027 114.898C145.571 114.889 144.575 113.316 144.585 110.602ZM175.42 116.812H171.709V112.301C173.077 111.49 173.907 110.25 173.897 108.707C173.907 105.895 171.133 104.039 167.315 104.039C163.516 104.039 160.762 105.895 160.772 108.707C160.762 110.27 161.612 111.539 163.018 112.35V116.812H159.288V118.59H175.42V116.812ZM162.901 108.707C162.891 106.871 164.678 105.748 167.315 105.758C169.942 105.748 171.768 106.871 171.768 108.707C171.768 110.514 169.942 111.666 167.315 111.656C164.678 111.666 162.891 110.514 162.901 108.707ZM165.166 116.812V113.141C165.83 113.277 166.553 113.355 167.315 113.355C168.096 113.355 168.829 113.277 169.502 113.131V116.812H165.166Z" fill="#BEBEBE"/>
<path d="M11.349 133.179H10.2064V141.191H11.349V133.179ZM1.25625 134.966H6.06094V136.665H1.28555V140.386H2.34023C4.74258 140.378 6.52236 140.32 8.7123 139.961L8.58047 139.009C6.46377 139.353 4.72793 139.419 2.39883 139.419V137.573H7.20351V133.999H1.25625V134.966ZM2.6332 143.813C2.62588 145.3 4.28848 146.157 7.02773 146.157C9.76699 146.157 11.4369 145.3 11.4369 143.813C11.4369 142.319 9.76699 141.455 7.02773 141.455C4.28848 141.455 2.62588 142.319 2.6332 143.813ZM3.76113 143.813C3.76846 142.92 4.99892 142.378 7.02773 142.378C9.04922 142.378 10.287 142.92 10.2797 143.813C10.287 144.707 9.04922 145.242 7.02773 145.234C4.99892 145.242 3.76846 144.707 3.76113 143.813ZM23.7967 134.497H14.8465V135.464H22.6834V136.108C22.6834 136.775 22.6761 137.441 22.6541 138.13L14.4949 138.467L14.6561 139.419L22.6028 138.987C22.5296 139.998 22.3904 141.082 22.0975 142.334L23.2547 142.437C23.804 139.8 23.804 138.027 23.7967 136.108V134.497ZM13.4109 144.355H25.2762V143.389H13.4109V144.355ZM38.134 139.214H26.2102V140.122H38.134V139.214ZM27.6457 142.026H35.4973V143.14H27.6604V146.011H37.0646V145.176H28.8176V143.931H36.6398V141.162H27.6457V142.026ZM27.7189 134.395H35.4387V135.464H27.7629V138.232H36.8303V137.397H28.9055V136.255H36.5959V133.56H27.7189V134.395ZM48.542 141.396C45.7515 141.396 43.979 142.275 43.9863 143.784C43.979 145.278 45.7515 146.157 48.542 146.157C51.3325 146.157 53.105 145.278 53.1123 143.784C53.105 142.275 51.3325 141.396 48.542 141.396ZM42.668 140.181H54.5186V139.243H48.7031V136.724H47.5752V139.243H42.668V140.181ZM44.0742 134.775H51.8672V134.937C51.8672 135.955 51.8672 136.921 51.5156 138.262L52.6436 138.394C53.0024 137.046 53.0024 135.991 53.0098 134.937V133.838H44.0742V134.775ZM45.1289 143.784C45.1216 142.854 46.4692 142.283 48.542 142.275C50.6221 142.283 51.9551 142.854 51.9697 143.784C51.9551 144.692 50.6221 145.249 48.542 145.249C46.4692 145.249 45.1216 144.692 45.1289 143.784ZM67.3764 140.591H55.4525V141.543H58.5434V146.187H59.7299V141.543H63.0697V146.187H64.227V141.543H67.3764V140.591ZM56.8002 136.533C56.8075 138.269 58.6459 139.353 61.3852 139.346C64.1171 139.353 65.9701 138.269 65.9701 136.533C65.9701 134.797 64.1171 133.699 61.3852 133.691C58.6459 133.699 56.8075 134.797 56.8002 136.533ZM57.9867 136.533C57.9721 135.376 59.3563 134.629 61.3852 134.629C63.414 134.629 64.7909 135.376 64.7982 136.533C64.7909 137.683 63.414 138.423 61.3852 138.423C59.3563 138.423 57.9721 137.683 57.9867 136.533ZM78.3592 133.164H77.2166V146.187H78.3592V139.492H80.5418V138.54H78.3592V133.164ZM68.2078 136.211H75.9568V135.259H72.7049V133.325H71.5623V135.259H68.2078V136.211ZM68.9549 140.283C68.9476 142.048 70.2952 143.271 72.1482 143.271C73.9866 143.271 75.327 142.048 75.3416 140.283C75.327 138.525 73.9866 137.295 72.1482 137.295C70.2952 137.295 68.9476 138.525 68.9549 140.283ZM70.0535 140.283C70.0462 139.104 70.9324 138.254 72.1482 138.262C73.3494 138.254 74.2283 139.104 74.243 140.283C74.2283 141.47 73.3494 142.305 72.1482 142.29C70.9324 142.305 70.0462 141.47 70.0535 140.283ZM91.5393 134.482H82.3547V135.435H90.382V135.786C90.3747 137.346 90.3747 139.17 89.884 141.66L91.0559 141.792C91.5246 139.17 91.5246 137.383 91.5393 135.786V134.482ZM81.0949 144.341H92.9602V143.389H86.8811V138.73H85.7531V143.389H81.0949V144.341ZM107.704 133.164H106.562V140.107H107.704V137.192H109.667V136.226H107.704V133.164ZM98.1387 139.668H99.1494C101.889 139.668 103.441 139.58 105.272 139.214L105.126 138.262C103.383 138.621 101.896 138.701 99.2812 138.701V134.98H103.91V134.028H98.1387V139.668ZM99.457 145.967H107.704V140.811H106.562V142.437H100.6V140.811H99.457V145.967ZM100.6 145.015V143.359H106.562V145.015H100.6ZM121.133 133.179H119.976V135.566H116.9V134.043H115.772V136.357H112.139V134.043H110.996V140.591H116.9V139.316H119.976V142.817H121.133V133.179ZM112.139 139.639V137.266H115.772V139.639H112.139ZM112.71 145.908H121.426V144.941H113.868V141.865H112.71V145.908ZM116.9 138.364V136.533H119.976V138.364H116.9ZM129.084 133.398C126.176 133.398 124.47 134.197 124.47 135.64C124.47 137.119 126.176 137.917 129.084 137.925C131.977 137.917 133.676 137.119 133.683 135.64C133.676 134.197 131.977 133.398 129.084 133.398ZM123.151 139.741H135.016V138.804H123.151V139.741ZM124.587 141.748H132.365V142.935H124.616V146.04H133.888V145.132H125.759V143.784H133.493V140.869H124.587V141.748ZM125.671 135.64C125.656 134.783 126.923 134.27 129.084 134.263C131.244 134.27 132.504 134.783 132.512 135.64C132.504 136.548 131.244 137.046 129.084 137.046C126.923 137.046 125.656 136.548 125.671 135.64ZM149.76 133.164H148.618V140.781H149.76V137.28H151.723V136.313H149.76V133.164ZM140.136 139.961H146.201V133.911H145.058V135.903H141.264V133.911H140.136V139.961ZM141.264 139.038V136.826H145.058V139.038H141.264ZM141.587 146.011H150.112V145.073H142.729V142.437H149.863V141.514H141.587V146.011ZM155.88 134.175C153.946 134.182 152.591 135.947 152.599 138.716C152.591 141.492 153.946 143.25 155.88 143.242C157.799 143.25 159.161 141.492 159.176 138.716C159.161 135.947 157.799 134.182 155.88 134.175ZM153.683 138.716C153.69 136.599 154.591 135.208 155.88 135.2C157.184 135.208 158.062 136.599 158.062 138.716C158.062 140.833 157.184 142.224 155.88 142.217C154.591 142.224 153.69 140.833 153.683 138.716ZM161.329 146.187H162.472V139.36H164.654V138.364H162.472V133.164H161.329V146.187ZM177.131 143.564H171.697V140.752H175.666V134.087H174.538V136.445H167.771V134.087H166.614V140.752H170.569V143.564H165.207V144.517H177.131V143.564ZM167.771 139.814V137.383H174.538V139.814H167.771ZM181.888 136.87V134.395H180.775V136.914C180.775 139.148 179.677 141.455 177.875 142.51L178.607 143.374C179.911 142.583 180.878 141.089 181.354 139.353C181.808 140.942 182.709 142.334 183.969 143.096L184.628 142.202C182.899 141.177 181.888 138.943 181.888 136.87ZM183.192 138.818H185.404V145.527H186.488V133.442H185.404V137.837H183.192V138.818ZM188.07 146.187H189.183V133.164H188.07V146.187ZM202.759 143.55H199.8V140.005C200.877 139.426 201.529 138.503 201.529 137.339C201.529 135.325 199.551 133.999 196.768 133.984C193.985 133.999 192.007 135.325 192.007 137.339C192.007 138.525 192.681 139.463 193.794 140.042V143.55H190.835V144.517H202.759V143.55ZM193.12 137.339C193.113 135.881 194.629 134.922 196.768 134.937C198.884 134.922 200.415 135.881 200.415 137.339C200.415 138.796 198.884 139.771 196.768 139.771C194.629 139.771 193.113 138.796 193.12 137.339ZM194.922 143.55V140.459C195.479 140.605 196.101 140.679 196.768 140.679C197.449 140.679 198.079 140.598 198.643 140.452V143.55H194.922ZM205.026 145.088C205.546 145.081 205.971 144.656 205.963 144.136C205.971 143.623 205.546 143.198 205.026 143.198C204.513 143.198 204.074 143.623 204.088 144.136C204.074 144.656 204.513 145.081 205.026 145.088Z" fill="#BEBEBE"/>
<path d="M62 14C62 6.26801 68.268 0 76 0H132C139.732 0 146 6.26801 146 14V58C146 65.732 139.732 72 132 72H76C68.268 72 62 65.732 62 58V14Z" fill="#F5F5F5"/>
<path d="M105.566 14.3333C103.91 14.3333 102.566 15.6764 102.566 17.3333C102.566 18.9901 103.91 20.3333 105.566 20.3333V14.3333ZM129.566 20.3333C131.223 20.3333 132.566 18.9901 132.566 17.3333C132.566 15.6764 131.223 14.3333 129.566 14.3333V20.3333ZM105.566 20.3333H129.566V14.3333H105.566V20.3333Z" fill="#E9E9E9"/>
<path d="M105.566 24.5339C103.91 24.5339 102.566 25.8771 102.566 27.5339C102.566 29.1908 103.91 30.5339 105.566 30.5339V24.5339ZM129.566 30.5339C131.223 30.5339 132.566 29.1908 132.566 27.5339C132.566 25.8771 131.223 24.5339 129.566 24.5339V30.5339ZM105.566 30.5339H129.566V24.5339H105.566V30.5339Z" fill="#E9E9E9"/>
<rect x="74.0664" y="12.4998" width="21.6667" height="21.6667" rx="6.5" fill="#E9E9E9" stroke="#E9E9E9"/>
<rect x="74.0664" y="40.5016" width="60.3333" height="21.6667" rx="7.5" fill="#E9E9E9" stroke="#E9E9E9"/>
</svg>
