<svg width="271" height="225" viewBox="0 0 271 225" fill="none" xmlns="http://www.w3.org/2000/svg">
<path d="M148.275 12C148.275 5.37258 153.648 0 160.275 0H255.275C261.903 0 267.275 5.37258 267.275 12V32C267.275 38.6274 261.903 44 255.275 44H160.275C153.648 44 148.275 38.6274 148.275 32V12Z" fill="#F8F8F8"/>
<path d="M192.275 13C190.619 13 189.275 14.3431 189.275 16C189.275 17.6569 190.619 19 192.275 19V13ZM235.275 19C236.932 19 238.275 17.6569 238.275 16C238.275 14.3431 236.932 13 235.275 13V19ZM192.275 19H235.275V13H192.275V19Z" fill="#EFEFEF"/>
<path d="M192.275 24C190.619 24 189.275 25.3431 189.275 27C189.275 28.6569 190.619 30 192.275 30V24ZM248.275 30C249.932 30 251.275 28.6569 251.275 27C251.275 25.3431 249.932 24 248.275 24V30ZM192.275 30H248.275V24H192.275V30Z" fill="#EFEFEF"/>
<rect x="160.342" y="11.5" width="21.6667" height="21.6667" rx="10.8333" fill="#EFEFEF" stroke="#EFEFEF"/>
<rect x="34.2754" y="11" width="89" height="24" rx="12" fill="#FFB72B"/>
<g clip-path="url(#clip0_2401_20740)">
<path d="M112.573 22.9977L114.898 20.6699C114.918 20.6502 114.933 20.6268 114.944 20.6011C114.955 20.5754 114.96 20.5478 114.96 20.5199C114.96 20.4921 114.955 20.4645 114.944 20.4387C114.933 20.413 114.918 20.3896 114.898 20.3699C114.878 20.3502 114.855 20.3346 114.829 20.324C114.804 20.3133 114.776 20.3078 114.748 20.3078C114.72 20.3078 114.693 20.3133 114.667 20.324C114.641 20.3346 114.618 20.3502 114.598 20.3699L112.272 22.6959L109.945 20.3699C109.926 20.3502 109.902 20.3346 109.877 20.3239C109.851 20.3132 109.823 20.3077 109.795 20.3077C109.768 20.3077 109.74 20.3131 109.714 20.3238C109.688 20.3344 109.665 20.35 109.645 20.3697C109.626 20.3894 109.61 20.4128 109.599 20.4386C109.589 20.4643 109.583 20.4919 109.583 20.5198C109.583 20.5477 109.589 20.5753 109.599 20.601C109.61 20.6268 109.625 20.6502 109.645 20.6699L111.972 22.997L109.646 25.3248C109.609 25.3651 109.589 25.4183 109.59 25.4733C109.591 25.5282 109.613 25.5806 109.652 25.6194C109.691 25.6582 109.743 25.6805 109.798 25.6815C109.853 25.6825 109.906 25.6622 109.947 25.6248L112.273 23.2985L114.6 25.6244C114.619 25.6453 114.643 25.6621 114.669 25.6738C114.695 25.6855 114.723 25.6917 114.751 25.6923C114.78 25.6928 114.808 25.6875 114.835 25.6768C114.861 25.6661 114.885 25.6502 114.906 25.63C114.926 25.6098 114.942 25.5857 114.952 25.5592C114.963 25.5327 114.968 25.5043 114.968 25.4757C114.967 25.4472 114.961 25.419 114.949 25.393C114.937 25.3669 114.921 25.3435 114.9 25.3241L112.573 22.9977Z" fill="#FCD385" stroke="#FCD385"/>
</g>
<rect x="195.275" y="87" width="75" height="22" rx="11" fill="#3BDE90"/>
<g clip-path="url(#clip1_2401_20740)">
<path d="M260.573 97.9977L262.898 95.6699C262.918 95.6502 262.933 95.6268 262.944 95.6011C262.955 95.5754 262.96 95.5478 262.96 95.5199C262.96 95.4921 262.955 95.4645 262.944 95.4387C262.933 95.413 262.918 95.3896 262.898 95.3699C262.878 95.3502 262.855 95.3346 262.829 95.324C262.804 95.3133 262.776 95.3078 262.748 95.3078C262.72 95.3078 262.693 95.3133 262.667 95.324C262.641 95.3346 262.618 95.3502 262.598 95.3699L260.272 97.6959L257.945 95.3699C257.926 95.3502 257.902 95.3346 257.877 95.3239C257.851 95.3132 257.823 95.3077 257.795 95.3077C257.768 95.3077 257.74 95.3131 257.714 95.3238C257.688 95.3344 257.665 95.35 257.645 95.3697C257.626 95.3894 257.61 95.4128 257.599 95.4386C257.589 95.4643 257.583 95.4919 257.583 95.5198C257.583 95.5477 257.589 95.5753 257.599 95.601C257.61 95.6268 257.625 95.6502 257.645 95.6699L259.972 97.997L257.646 100.325C257.609 100.365 257.589 100.418 257.59 100.473C257.591 100.528 257.613 100.581 257.652 100.619C257.691 100.658 257.743 100.68 257.798 100.681C257.853 100.682 257.906 100.662 257.947 100.625L260.273 98.2985L262.6 100.624C262.619 100.645 262.643 100.662 262.669 100.674C262.695 100.685 262.723 100.692 262.751 100.692C262.78 100.693 262.808 100.688 262.835 100.677C262.861 100.666 262.885 100.65 262.906 100.63C262.926 100.61 262.942 100.586 262.952 100.559C262.963 100.533 262.968 100.504 262.968 100.476C262.967 100.447 262.961 100.419 262.949 100.393C262.937 100.367 262.921 100.343 262.9 100.324L260.573 97.9977Z" fill="white" fill-opacity="0.4" stroke="white" stroke-opacity="0.4"/>
</g>
<path d="M126.783 120.4C70.6826 120.4 25.1826 143.7 25.1826 172.4C25.1826 201.1 70.6826 224.4 126.783 224.4C145.783 224.4 163.483 221.7 178.683 217.1C182.183 216 185.583 214.8 188.883 213.5C212.883 204 228.383 189.1 228.383 172.4C228.383 143.7 182.883 120.4 126.783 120.4Z" fill="#FFE3E3"/>
<path d="M178.883 213.8C178.883 213.8 170.683 209.8 178.883 203.1C179.583 202.5 179.683 202.4 180.283 202C179.283 202.7 178.583 203.2 177.083 204.5C168.883 211.1 178.183 214.9 178.183 214.9C178.183 214.9 183.683 217.4 188.883 216.3C185.583 216.7 178.883 213.8 178.883 213.8Z" fill="#FFBCA4"/>
<path d="M132.875 138.501C137.281 97.2038 112.894 60.7425 78.405 57.0626C43.9157 53.3827 12.3847 83.8776 7.97834 125.175C3.57202 166.472 27.9591 202.933 62.4483 206.613C96.9376 210.293 128.469 179.798 132.875 138.501Z" fill="url(#paint0_linear_2401_20740)"/>
<path d="M182.183 207.2L187.583 198.2C187.583 198.2 187.183 196.9 180.883 201.7C180.283 202.2 179.683 202.7 178.883 203.2C170.683 209.8 178.883 213.9 178.883 213.9C178.883 213.9 185.583 216.8 188.883 216.4C189.783 216.3 190.483 215.9 190.683 215.1C191.583 211.4 182.183 207.2 182.183 207.2Z" fill="#FFCBBF"/>
<path d="M230.882 199.1L234.582 189.3C234.582 189.3 233.882 187.8 226.982 195.7C220.082 203.6 228.882 206.2 228.882 206.2C228.882 206.2 240.582 209 240.782 205.3C240.982 201.6 230.882 199.1 230.882 199.1Z" fill="#FFCBBF"/>
<path d="M221.282 130.6C204.082 122 178.682 119 178.682 119L171.082 125.8H171.182C171.182 125.8 174.682 125.8 179.982 126.5L178.482 129.7L198.082 143.9L215.682 140.1C219.082 143.5 221.382 147 222.182 149.7C223.682 155.1 223.482 161.8 221.982 164.8C227.082 178.5 224.882 197 224.882 197C227.682 199.8 232.582 197 232.582 197C242.082 175.9 238.482 139.2 221.282 130.6Z" fill="#434343"/>
<path d="M218.682 143.6C206.682 132.4 191.182 128.2 181.182 126.7C175.182 125.8 171.282 125.8 171.282 125.8H171.182L148.682 126.2L143.082 151C143.082 151 146.082 160.6 164.082 162C182.082 163.4 199.182 162.1 199.182 162.1L178.382 202C178.382 202 179.282 205.9 184.182 206.7C184.182 206.7 213.082 181.9 220.782 161.8C221.782 159.1 222.482 156.4 222.582 153.9C222.782 149.9 221.682 146.4 218.682 143.6Z" fill="#4D4D4D"/>
<path d="M224.583 150.1C222.083 141.3 211.583 134.4 196.383 129.9C192.683 128.8 184.383 126.5 181.183 126.7C191.083 128.2 206.683 132.4 218.683 143.6C221.683 146.4 222.275 150.1 222.275 154C222.275 156.502 221.883 158.8 220.883 161.5C221.383 162.4 222.283 165.3 222.683 166.3C224.083 163.2 226.083 155.5 224.583 150.1Z" fill="#2B2B2B"/>
<path d="M224.982 67.1C224.982 67.1 228.682 57.4 232.282 58C235.882 58.7 231.782 69.9 231.782 69.9L224.982 67.1Z" fill="#FFCBBF"/>
<path d="M187.282 143.9C187.282 143.9 197.682 143 198.582 146.6C199.482 150.2 187.582 151.3 187.582 151.3L187.282 143.9Z" fill="#FFCBBF"/>
<path d="M170.582 62.3C170.582 62.3 183.582 83.6 198.982 83.5C219.282 83.4 225.382 64.8 225.382 64.8C225.382 64.8 227.382 68.5 232.582 68.5C232.582 68.5 220.882 95.3 200.782 97.9C178.582 100.8 165.482 91 165.482 91L170.582 62.3Z" fill="#FF8F8F"/>
<path d="M159.563 54.1036C159.459 54.1036 159.459 54 159.356 54C159.15 56.9019 159.15 62.3948 161.728 67.1623C165.44 74.0025 173.688 66.955 170.595 61.9803C169.358 59.9075 169.152 57.9383 169.255 56.1764C166.677 56.2801 163.378 55.8655 159.563 54.1036Z" fill="#FFCBBF"/>
<path d="M155.583 44.9C155.283 49.3 156.883 53.2 159.683 54.7C159.783 53.5 159.883 52.8 159.883 52.8C157.483 51.6 155.783 48.5 155.583 44.9Z" fill="#FFD0BD"/>
<path d="M159.982 52.7C159.982 52.7 159.882 53.4 159.782 54.6C159.882 54.6 159.882 54.7 159.982 54.7C163.682 56.4 166.775 56.7 169.275 56.5C169.375 55.7 169.582 55.2 169.782 54.6C167.182 54.9 163.882 54.5 159.982 52.7Z" fill="#FFA28C"/>
<path d="M178.182 44.1L174.982 40.1C174.982 40.1 175.682 27.3 168.682 28.9C158.682 31.1 155.182 38.8 155.582 45C155.882 48.6 157.482 51.7 159.982 52.8C163.982 54.6 167.282 55 169.882 54.7C172.982 54.4 174.282 53.6 175.482 52.6C175.982 52.2 176.382 51.2 176.382 49.8C176.382 46.7 175.482 45.3 175.482 45.3L178.182 44.1Z" fill="#FFCBBF"/>
<path d="M117.682 119.2C117.582 134.6 102.982 156.3 90.2822 167.4C102.782 163.5 118.382 154.6 125.382 147.5C141.482 131.3 127.282 77.7 156.582 64.8H156.482C132.682 72.4 117.882 97.2 117.682 119.2Z" fill="#EA5656"/>
<path d="M167.083 46.7C164.783 35.3 167.883 33.6 174.183 33C174.183 33 173.483 15.8 158.783 27.3C158.783 27.3 149.983 22 143.683 35.7C139.683 44.3 149.283 47 134.183 55.3C119.083 63.7 97.3828 48.5 82.0828 91.4C66.7828 134.4 17.5828 98.7 40.3828 143.7C53.5828 169.8 72.9828 172.8 90.1828 167.4C102.783 156.3 117.583 140 117.383 124.6C117.183 97.6 132.583 72.4 156.283 64.9H156.383C157.583 64.4 158.783 63.9 160.083 63.5C160.283 63.5 170.183 61.6 167.083 46.7Z" fill="url(#paint1_linear_2401_20740)"/>
<path d="M126.982 224.3C159.954 224.3 186.682 201.601 186.682 173.6C186.682 145.599 159.954 122.9 126.982 122.9C94.0108 122.9 67.2822 145.599 67.2822 173.6C67.2822 201.601 94.0108 224.3 126.982 224.3Z" fill="url(#paint2_linear_2401_20740)"/>
<path d="M159.983 89.5C159.983 89.5 153.983 96.5 155.583 116.2C156.083 122 159.383 126.8 163.883 130.6L166.483 129.2C163.583 127.5 153.783 119.6 159.983 89.5Z" fill="#FF8989"/>
<path d="M191.882 143.9C191.882 143.9 174.582 139.9 163.882 130.6C159.382 126.7 156.082 122 155.582 116.2C153.982 96.5 159.982 89.5 159.982 89.5C153.882 119.6 163.682 127.5 166.482 129.2L184.182 119.6C179.082 108.8 183.782 109 185.782 91.7C187.882 73.5 170.582 62.4 170.582 62.4C170.582 62.4 170.782 67.9 168.382 67.9C165.982 67.9 163.882 67.5 160.182 63.6C160.182 63.6 126.182 72.4 128.782 112.6C129.582 125.7 136.382 134.7 145.082 140.8C162.982 153.4 189.182 154 189.182 154C189.182 154 188.582 147.1 191.882 143.9Z" fill="#FFA2A2"/>
<path d="M233.982 63.4H226.782C224.782 63.4 223.082 61.7 223.082 59.7V41.1C223.082 39.1 224.782 37.4 226.782 37.4H233.982C235.982 37.4 237.682 39.1 237.682 41.1V59.7C237.682 61.8 236.082 63.4 233.982 63.4Z" fill="#434343"/>
<path d="M233.583 61.1H226.883C225.383 61.1 224.183 59.9 224.183 58.4V41.4C224.183 39.9 225.383 38.7 226.883 38.7H233.583C235.083 38.7 236.283 39.9 236.283 41.4V58.4C236.283 59.9 235.083 61.1 233.583 61.1Z" fill="#606060"/>
<path d="M226.549 65C226.549 65 223.683 56 226.549 56C229.415 56 229.246 62.75 229.246 62.75C229.246 62.75 229.752 64.8269 226.549 65Z" fill="#FFCBBF"/>
<defs>
<linearGradient id="paint0_linear_2401_20740" x1="-4.06088e-07" y1="-7" x2="110.5" y2="210" gradientUnits="userSpaceOnUse">
<stop stop-color="#FFEFEF"/>
<stop offset="1" stop-color="#FFE1E1"/>
</linearGradient>
<linearGradient id="paint1_linear_2401_20740" x1="104.316" y1="23.3391" x2="104.316" y2="169.65" gradientUnits="userSpaceOnUse">
<stop stop-color="#FF6262"/>
<stop offset="1" stop-color="#FF7575"/>
</linearGradient>
<linearGradient id="paint2_linear_2401_20740" x1="126.982" y1="29" x2="126.982" y2="224.3" gradientUnits="userSpaceOnUse">
<stop stop-color="#FFEFEF"/>
<stop offset="1" stop-color="#FFE3E3"/>
</linearGradient>
<clipPath id="clip0_2401_20740">
<rect width="13" height="13" fill="white" transform="translate(109.275 16.5)"/>
</clipPath>
<clipPath id="clip1_2401_20740">
<rect width="10" height="10" fill="white" transform="translate(256.275 93)"/>
</clipPath>
</defs>
</svg>
