<svg width="390" height="390" viewBox="0 0 390 390" fill="none" xmlns="http://www.w3.org/2000/svg">
<g filter="url(#filter0_d_1024_4737)">
<rect x="72" y="85" width="239" height="130" rx="22" fill="white"/>
</g>
<path d="M54.722 255.223V235.489L52.0908 229.35L115.239 198.653L102.522 217.071L60.4229 255.223C55.8622 259.784 54.722 257.124 54.722 255.223Z" fill="url(#paint0_linear_1024_4737)"/>
<path d="M111.292 197.776L34.5497 220.58C31.7431 221.414 33.3803 223.266 34.5497 224.088L52.9679 235.051C54.7221 235.753 55.7453 235.343 56.0377 235.051L111.292 200.846C115.853 198.04 114.655 199.677 113.485 200.846L69.6321 240.313C67.1763 242.769 68.6089 243.968 69.6321 244.26L95.5054 259.17C99.0136 260.924 100.768 259.316 101.206 258.293L116.993 200.846C118.747 195.934 113.924 196.753 111.292 197.776Z" fill="url(#paint1_linear_1024_4737)"/>
<path d="M22.4899 307.292C22.0458 307.62 21.952 308.246 22.2803 308.69C22.6087 309.134 23.2348 309.228 23.6789 308.9L22.4899 307.292ZM36.8739 284.287L37.8441 284.044C37.8343 284.005 37.8221 283.967 37.8076 283.929L36.8739 284.287ZM28.3233 277.287L28.3233 276.287C28.2809 276.287 28.2384 276.29 28.1963 276.295L28.3233 277.287ZM20.6301 285.473L19.6324 285.406C19.6301 285.439 19.6296 285.473 19.6308 285.507L20.6301 285.473ZM28.3233 294.287L28.373 293.288L28.3233 294.287ZM48.8739 282.287L49.75 282.769L48.8739 282.287ZM55.0816 270.574C55.1653 270.028 54.7907 269.518 54.2447 269.434C53.6988 269.351 53.1884 269.725 53.1047 270.271L55.0816 270.574ZM23.6789 308.9C24.061 308.617 24.4546 308.32 24.8567 308.009L23.6329 306.427C23.243 306.729 22.861 307.017 22.4899 307.292L23.6789 308.9ZM27.1551 306.144C27.8871 305.52 28.6278 304.856 29.3609 304.157L27.9809 302.71C27.2772 303.381 26.5642 304.019 25.8573 304.622L27.1551 306.144ZM31.4505 302.034C32.1219 301.304 32.7731 300.543 33.3895 299.754L31.8135 298.523C31.2335 299.265 30.6175 299.986 29.9783 300.681L31.4505 302.034ZM35.1275 297.294C35.6704 296.434 36.1632 295.545 36.5892 294.631L34.7764 293.786C34.39 294.615 33.9391 295.43 33.4362 296.227L35.1275 297.294ZM37.6672 291.757C37.9484 290.763 38.1408 289.744 38.2249 288.704L36.2315 288.543C36.1586 289.442 35.9915 290.333 35.7427 291.212L37.6672 291.757ZM38.1411 285.583C38.0712 285.072 37.9728 284.559 37.8441 284.044L35.9038 284.53C36.0148 284.974 36.0996 285.415 36.1596 285.854L38.1411 285.583ZM37.8076 283.929C37.6526 283.525 37.4675 283.028 37.2461 282.506L35.4048 283.286C35.6086 283.767 35.7767 284.219 35.9402 284.645L37.8076 283.929ZM35.6591 279.685C35.0197 278.85 34.2015 278.061 33.1357 277.454L32.1451 279.191C32.9403 279.644 33.5645 280.239 34.0708 280.901L35.6591 279.685ZM29.9563 276.397C29.4426 276.325 28.8989 276.287 28.3233 276.287L28.3233 278.287C28.811 278.287 29.2611 278.319 29.677 278.378L29.9563 276.397ZM28.1963 276.295C27.7221 276.356 27.1583 276.458 26.5491 276.628L27.085 278.555C27.5892 278.414 28.0574 278.329 28.4503 278.279L28.1963 276.295ZM23.4632 278.054C22.5829 278.668 21.7482 279.485 21.0805 280.564L22.7813 281.616C23.2903 280.794 23.9259 280.17 24.6072 279.695L23.4632 278.054ZM19.8512 283.747C19.7459 284.268 19.6718 284.82 19.6324 285.406L21.6279 285.54C21.6616 285.038 21.7245 284.574 21.8115 284.144L19.8512 283.747ZM19.6308 285.507C19.6482 286.009 19.664 286.603 19.711 287.222L21.7053 287.071C21.6622 286.503 21.6478 285.961 21.6295 285.438L19.6308 285.507ZM20.5068 290.805C20.9925 291.922 21.7648 292.975 22.9836 293.783L24.0881 292.115C23.2351 291.55 22.6948 290.821 22.3409 290.007L20.5068 290.805ZM26.4822 295.093C27.0373 295.189 27.6334 295.254 28.2736 295.286L28.373 293.288C27.8062 293.26 27.2914 293.203 26.8238 293.122L26.4822 295.093ZM28.2736 295.286C28.8297 295.314 29.376 295.324 29.9128 295.319L29.8924 293.319C29.3964 293.324 28.89 293.314 28.373 293.288L28.2736 295.286ZM33.1905 295.069C34.3137 294.906 35.3879 294.664 36.4146 294.349L35.8293 292.437C34.9015 292.721 33.9265 292.941 32.9018 293.09L33.1905 295.069ZM39.4949 293.127C40.4977 292.631 41.4438 292.059 42.3353 291.421L41.1715 289.795C40.365 290.372 39.5114 290.887 38.608 291.334L39.4949 293.127ZM44.8666 289.301C45.6501 288.539 46.3809 287.721 47.0619 286.856L45.4904 285.619C44.8606 286.419 44.1886 287.17 43.4725 287.867L44.8666 289.301ZM48.93 284.175C49.2142 283.715 49.4874 283.246 49.75 282.769L47.9978 281.805C47.7508 282.254 47.4944 282.694 47.2285 283.124L48.93 284.175ZM49.75 282.769C49.9808 282.35 50.2469 281.878 50.54 281.355L48.7954 280.377C48.5062 280.893 48.2336 281.377 47.9978 281.805L49.75 282.769ZM52.1119 278.467C52.6088 277.51 53.1057 276.496 53.5505 275.467L51.7148 274.673C51.2943 275.646 50.8197 276.616 50.3371 277.545L52.1119 278.467ZM54.7062 272.281C54.8667 271.707 54.9957 271.135 55.0816 270.574L53.1047 270.271C53.0331 270.739 52.9231 271.231 52.7801 271.742L54.7062 272.281Z" fill="#FF6262"/>
<rect x="215" y="204" width="90" height="27" rx="13.5" fill="#3BDE90"/>
<g clip-path="url(#clip0_1024_4737)">
<path d="M288.387 217.497L291.409 214.471C291.435 214.445 291.455 214.415 291.469 214.381C291.483 214.348 291.49 214.312 291.49 214.276C291.49 214.24 291.483 214.204 291.469 214.17C291.455 214.137 291.435 214.107 291.409 214.081C291.384 214.055 291.353 214.035 291.32 214.021C291.287 214.007 291.251 214 291.215 214C291.178 214 291.142 214.007 291.109 214.021C291.076 214.035 291.045 214.055 291.02 214.081L287.995 217.105L284.971 214.081C284.946 214.055 284.915 214.035 284.882 214.021C284.848 214.007 284.812 214 284.776 214C284.74 214 284.704 214.007 284.67 214.021C284.637 214.035 284.607 214.055 284.581 214.081C284.555 214.106 284.535 214.137 284.521 214.17C284.507 214.204 284.5 214.24 284.5 214.276C284.5 214.312 284.507 214.348 284.521 214.381C284.535 214.415 284.555 214.445 284.581 214.471L287.606 217.496L284.582 220.522C284.534 220.575 284.507 220.644 284.509 220.715C284.51 220.787 284.539 220.855 284.59 220.905C284.64 220.956 284.708 220.985 284.78 220.986C284.851 220.987 284.92 220.961 284.973 220.912L287.997 217.888L291.022 220.912C291.047 220.939 291.077 220.961 291.111 220.976C291.145 220.991 291.182 220.999 291.219 221C291.256 221.001 291.293 220.994 291.327 220.98C291.362 220.966 291.393 220.945 291.419 220.919C291.446 220.893 291.466 220.861 291.48 220.827C291.494 220.793 291.501 220.756 291.5 220.718C291.499 220.681 291.491 220.645 291.476 220.611C291.461 220.577 291.439 220.547 291.411 220.521L288.387 217.497Z" fill="#77D1A6" stroke="#77D1A6"/>
</g>
<path d="M211 83C211 76.3726 216.373 71 223 71H318C324.627 71 330 76.3726 330 83V103C330 109.627 324.627 115 318 115H223C216.373 115 211 109.627 211 103V83Z" fill="#F8F8F8"/>
<path d="M255 84C253.343 84 252 85.3431 252 87C252 88.6569 253.343 90 255 90V84ZM298 90C299.657 90 301 88.6569 301 87C301 85.3431 299.657 84 298 84V90ZM255 90H298V84H255V90Z" fill="#EFEFEF"/>
<path d="M255 95C253.343 95 252 96.3431 252 98C252 99.6569 253.343 101 255 101V95ZM311 101C312.657 101 314 99.6569 314 98C314 96.3431 312.657 95 311 95V101ZM255 101H311V95H255V101Z" fill="#EFEFEF"/>
<rect x="223.066" y="82.5" width="21.6667" height="21.6667" rx="10.8333" fill="#EFEFEF" stroke="#EFEFEF"/>
<path d="M236 270C236 263.373 241.373 258 248 258H351C357.627 258 363 263.373 363 270V290C363 296.627 357.627 302 351 302H248C241.373 302 236 296.627 236 290V270Z" fill="#F8F8F8"/>
<path d="M259.812 269C257.603 269 255.812 270.791 255.812 273C255.812 275.209 257.603 277 259.812 277V269ZM309.025 277C311.234 277 313.025 275.209 313.025 273C313.025 270.791 311.234 269 309.025 269V277ZM259.812 277H309.025V269H259.812V277Z" fill="#EFEFEF"/>
<path d="M259.812 284C257.603 284 255.812 285.791 255.812 288C255.812 290.209 257.603 292 259.812 292V284ZM260.606 292C262.815 292 264.606 290.209 264.606 288C264.606 285.791 262.815 284 260.606 284V292ZM259.812 292H260.606V284H259.812V292Z" fill="#EFEFEF"/>
<path d="M269.338 284C267.129 284 265.338 285.791 265.338 288C265.338 290.209 267.129 292 269.338 292V284ZM334.425 292C336.634 292 338.425 290.209 338.425 288C338.425 285.791 336.634 284 334.425 284V292ZM269.338 292H334.425V284H269.338V292Z" fill="#EFEFEF"/>
<rect x="147" y="247" width="107" height="29" rx="14.5" fill="#FFB72B"/>
<g clip-path="url(#clip1_1024_4737)">
<path d="M237.387 261.497L240.409 258.471C240.435 258.445 240.455 258.415 240.469 258.381C240.483 258.348 240.49 258.312 240.49 258.276C240.49 258.24 240.483 258.204 240.469 258.17C240.455 258.137 240.435 258.107 240.409 258.081C240.384 258.055 240.353 258.035 240.32 258.021C240.287 258.007 240.251 258 240.215 258C240.178 258 240.142 258.007 240.109 258.021C240.076 258.035 240.045 258.055 240.02 258.081L236.995 261.105L233.971 258.081C233.946 258.055 233.915 258.035 233.882 258.021C233.848 258.007 233.812 258 233.776 258C233.74 258 233.704 258.007 233.67 258.021C233.637 258.035 233.607 258.055 233.581 258.081C233.555 258.106 233.535 258.137 233.521 258.17C233.507 258.204 233.5 258.24 233.5 258.276C233.5 258.312 233.507 258.348 233.521 258.381C233.535 258.415 233.555 258.445 233.581 258.471L236.606 261.496L233.582 264.522C233.534 264.575 233.507 264.644 233.509 264.715C233.51 264.787 233.539 264.855 233.59 264.905C233.64 264.956 233.708 264.985 233.78 264.986C233.851 264.987 233.92 264.961 233.973 264.912L236.997 261.888L240.022 264.912C240.047 264.939 240.077 264.961 240.111 264.976C240.145 264.991 240.182 264.999 240.219 265C240.256 265.001 240.293 264.994 240.327 264.98C240.362 264.966 240.393 264.945 240.419 264.919C240.446 264.893 240.466 264.861 240.48 264.827C240.494 264.793 240.501 264.756 240.5 264.718C240.499 264.681 240.491 264.645 240.476 264.611C240.461 264.577 240.439 264.547 240.411 264.521L237.387 261.497Z" fill="#FCD385" stroke="#FCD385"/>
</g>
<rect x="50" y="66" width="111" height="31" rx="15.5" fill="#4C48FF"/>
<g clip-path="url(#clip2_1024_4737)">
<path d="M138.887 81.4971L141.909 78.4709C141.935 78.4453 141.955 78.4149 141.969 78.3814C141.983 78.348 141.99 78.3121 141.99 78.2759C141.99 78.2397 141.983 78.2038 141.969 78.1704C141.955 78.1369 141.935 78.1065 141.909 78.0809C141.884 78.0553 141.853 78.035 141.82 78.0212C141.787 78.0073 141.751 78.0002 141.715 78.0002C141.678 78.0002 141.642 78.0073 141.609 78.0212C141.576 78.035 141.545 78.0553 141.52 78.0809L138.495 81.1046L135.471 78.0809C135.446 78.0553 135.415 78.035 135.382 78.0211C135.348 78.0072 135.312 78 135.276 78C135.24 78 135.204 78.0071 135.17 78.0209C135.137 78.0348 135.107 78.0551 135.081 78.0807C135.055 78.1063 135.035 78.1367 135.021 78.1702C135.007 78.2036 135 78.2395 135 78.2757C135 78.312 135.007 78.3478 135.021 78.3813C135.035 78.4148 135.055 78.4452 135.081 78.4709L138.106 81.4961L135.082 84.5223C135.034 84.5747 135.007 84.6439 135.009 84.7153C135.01 84.7867 135.039 84.8548 135.09 84.9052C135.14 84.9557 135.208 84.9846 135.28 84.9859C135.351 84.9872 135.42 84.9608 135.473 84.9122L138.497 81.888L141.522 84.9117C141.547 84.939 141.577 84.9608 141.611 84.976C141.645 84.9911 141.682 84.9993 141.719 85C141.756 85.0006 141.793 84.9938 141.827 84.9799C141.862 84.966 141.893 84.9453 141.919 84.919C141.946 84.8927 141.966 84.8614 141.98 84.827C141.994 84.7925 142.001 84.7556 142 84.7185C141.999 84.6814 141.991 84.6448 141.976 84.6109C141.961 84.577 141.939 84.5465 141.911 84.5213L138.887 81.4971Z" fill="#7F7CFF" stroke="#7F7CFF"/>
</g>
<defs>
<filter id="filter0_d_1024_4737" x="12" y="45" width="359" height="250" filterUnits="userSpaceOnUse" color-interpolation-filters="sRGB">
<feFlood flood-opacity="0" result="BackgroundImageFix"/>
<feColorMatrix in="SourceAlpha" type="matrix" values="0 0 0 0 0 0 0 0 0 0 0 0 0 0 0 0 0 0 127 0" result="hardAlpha"/>
<feOffset dy="20"/>
<feGaussianBlur stdDeviation="30"/>
<feComposite in2="hardAlpha" operator="out"/>
<feColorMatrix type="matrix" values="0 0 0 0 0.343333 0 0 0 0 0.387967 0 0 0 0 0.429167 0 0 0 0.12 0"/>
<feBlend mode="normal" in2="BackgroundImageFix" result="effect1_dropShadow_1024_4737"/>
<feBlend mode="normal" in="SourceGraphic" in2="effect1_dropShadow_1024_4737" result="shape"/>
</filter>
<linearGradient id="paint0_linear_1024_4737" x1="83.665" y1="198.653" x2="83.665" y2="257.741" gradientUnits="userSpaceOnUse">
<stop stop-color="#FF3434"/>
<stop offset="1" stop-color="#FF6262"/>
</linearGradient>
<linearGradient id="paint1_linear_1024_4737" x1="75.1842" y1="197" x2="75.1842" y2="259.951" gradientUnits="userSpaceOnUse">
<stop stop-color="#FF9999"/>
<stop offset="1" stop-color="#FF8282"/>
</linearGradient>
<clipPath id="clip0_1024_4737">
<rect width="13" height="13" fill="white" transform="translate(282 211)"/>
</clipPath>
<clipPath id="clip1_1024_4737">
<rect width="13" height="13" fill="white" transform="translate(231 255)"/>
</clipPath>
<clipPath id="clip2_1024_4737">
<rect width="13" height="13" fill="white" transform="translate(132.5 75)"/>
</clipPath>
</defs>
</svg>
