<svg width="390" height="475" viewBox="0 0 390 475" fill="none" xmlns="http://www.w3.org/2000/svg">
<mask id="mask0_2721_22804" style="mask-type:alpha" maskUnits="userSpaceOnUse" x="0" y="0" width="390" height="475">
<rect width="390" height="475" fill="#C4C4C4"/>
</mask>
<g mask="url(#mask0_2721_22804)">
<rect y="12" width="390" height="463" fill="url(#paint0_linear_2721_22804)" fill-opacity="0.05"/>
<rect x="115" y="27" width="160" height="306" rx="26" fill="#F8F8F8" stroke="#BEBEBE" stroke-width="6"/>
<path d="M162 27H227C227 34.1797 221.18 40 214 40H175C167.82 40 162 34.1797 162 27Z" fill="#BEBEBE"/>
<rect x="127.594" y="156.793" width="29.465" height="6.37082" fill="#E9E9E9"/>
<rect x="126" y="128.556" width="139.362" height="21.5015" rx="7.16717" fill="#EFEFEF"/>
<path d="M136.054 139.212L136.67 140.014C136.564 140.042 136.452 140.058 136.334 140.058C135.6 140.058 135.08 139.501 135.083 138.471C135.08 137.442 135.6 136.885 136.334 136.885C137.071 136.885 137.588 137.442 137.585 138.471C137.588 139.031 137.435 139.448 137.177 139.716L136.794 139.212H136.054ZM134.268 138.471C134.265 139.924 135.149 140.786 136.334 140.786C136.617 140.786 136.885 140.736 137.127 140.639L137.504 141.115H138.294L137.669 140.313C138.123 139.918 138.403 139.289 138.4 138.471C138.403 137.015 137.513 136.157 136.334 136.157C135.149 136.157 134.265 137.015 134.268 138.471ZM139.232 140.773C139.49 140.773 139.711 140.555 139.711 140.288C139.711 140.027 139.49 139.812 139.232 139.809C138.964 139.812 138.743 140.027 138.746 140.288C138.743 140.555 138.964 140.773 139.232 140.773Z" fill="#BEBEBE"/>
<circle cx="243.334" cy="89.3344" r="21.3343" fill="#EFEFEF"/>
<rect x="240.582" y="89.8917" width="5.81546" height="9.66541" fill="#909090"/>
<rect x="231.398" y="78.6672" width="23.874" height="15.9012" rx="3.48163" fill="#909090"/>
<path d="M231.398 91.4501H255.272C255.272 93.172 253.877 94.5679 252.155 94.5679H234.516C232.794 94.5679 231.398 93.172 231.398 91.4501Z" fill="#BEBEBE"/>
<rect x="237.826" y="97.063" width="11.3248" height="2.4943" rx="1.24715" fill="#BEBEBE"/>
<mask id="mask1_2721_22804" style="mask-type:alpha" maskUnits="userSpaceOnUse" x="231" y="78" width="25" height="17">
<rect x="231.398" y="78.6672" width="23.874" height="15.9012" rx="3.48163" fill="#212121"/>
</mask>
<g mask="url(#mask1_2721_22804)">
<mask id="mask2_2721_22804" style="mask-type:alpha" maskUnits="userSpaceOnUse" x="242" y="73" width="29" height="24">
<path d="M242.797 73.99H257.134L270.038 96.1269H255.7L242.797 73.99Z" fill="#C4C4C4"/>
</mask>
<g mask="url(#mask2_2721_22804)">
<rect x="231.51" y="78.6674" width="23.874" height="15.9012" rx="3.42456" fill="url(#paint1_linear_2721_22804)"/>
</g>
</g>
<path d="M126 179.6C126 176.68 128.367 174.313 131.287 174.313H144.269C147.189 174.313 149.556 176.68 149.556 179.6C149.556 182.52 147.189 184.888 144.269 184.888H131.287C128.367 184.888 126 182.52 126 179.6Z" fill="#E9E9E9"/>
<path d="M131.551 177.42H131.097V180.413H132.861V177.42H132.416V178.502H131.551V177.42ZM131.551 180.024V178.881H132.416V180.024H131.551ZM133.366 181.308H133.821V179.169H134.382V181.53H134.842V177.001H134.382V178.775H133.821V177.087H133.366V181.308ZM139.138 177.001H138.663V178.012H137.803V178.406H138.663V179.245H137.778V179.644H138.663V181.54H139.138V177.001ZM135.523 177.789H137.06V178.674H135.534V180.494H135.877C136.593 180.494 137.171 180.473 137.879 180.362L137.839 179.968C137.194 180.061 136.653 180.092 136.014 180.094V179.053H137.53V177.4H135.523V177.789ZM143.352 177.006H142.872V179.882H143.352V178.633H143.999V178.234H143.352V177.006ZM139.784 179.23L139.834 179.609C140.618 179.612 141.682 179.596 142.635 179.432L142.594 179.088C142.22 179.141 141.818 179.174 141.416 179.197V178.828C141.942 178.752 142.291 178.439 142.296 177.997C142.291 177.496 141.828 177.16 141.164 177.157C140.491 177.16 140.034 177.496 140.036 177.997C140.034 178.446 140.39 178.765 140.936 178.833V179.215C140.522 179.227 140.125 179.23 139.784 179.23ZM140.36 180.726C140.36 181.224 140.934 181.522 141.871 181.52C142.806 181.522 143.378 181.224 143.383 180.726C143.378 180.218 142.806 179.928 141.871 179.928C140.934 179.928 140.36 180.218 140.36 180.726ZM140.486 177.997C140.481 177.706 140.754 177.524 141.164 177.521C141.565 177.524 141.841 177.706 141.841 177.997C141.841 178.3 141.565 178.492 141.164 178.492C140.754 178.492 140.481 178.3 140.486 177.997ZM140.83 180.726C140.827 180.451 141.214 180.297 141.871 180.297C142.516 180.297 142.903 180.451 142.908 180.726C142.903 180.994 142.516 181.148 141.871 181.151C141.214 181.148 140.827 180.994 140.83 180.726Z" fill="#E9E9E9"/>
<path d="M152.742 179.6C152.742 176.68 155.109 174.313 158.029 174.313H191.011C193.931 174.313 196.298 176.68 196.298 179.6C196.298 182.52 193.931 184.888 191.011 184.888H158.029C155.109 184.888 152.742 182.52 152.742 179.6Z" fill="#E9E9E9"/>
<path d="M161.827 179.559H157.682V179.953H158.713V181.53H159.208V179.953H160.29V181.53H160.775V179.953H161.827V179.559ZM158.132 178.173C158.134 178.778 158.786 179.159 159.744 179.154C160.702 179.159 161.359 178.778 161.357 178.173C161.359 177.562 160.702 177.173 159.744 177.173C158.786 177.173 158.134 177.562 158.132 178.173ZM158.627 178.173C158.625 177.792 159.072 177.559 159.744 177.557C160.419 177.559 160.864 177.792 160.866 178.173C160.864 178.545 160.419 178.775 159.744 178.775C159.072 178.775 158.625 178.545 158.627 178.173ZM163.681 178.153V177.38H163.201V178.153C163.198 178.982 162.728 179.852 162.033 180.185L162.331 180.575C162.847 180.307 163.244 179.763 163.446 179.121C163.645 179.725 164.027 180.231 164.52 180.489L164.818 180.104C164.143 179.776 163.676 178.954 163.681 178.153ZM165.157 181.53H165.637V179.215H166.365V178.805H165.637V177.001H165.157V181.53ZM169.315 178.153V177.38H168.834V178.153C168.832 178.982 168.362 179.852 167.667 180.185L167.965 180.575C168.481 180.307 168.877 179.763 169.08 179.121C169.279 179.725 169.661 180.231 170.154 180.489L170.452 180.104C169.777 179.776 169.31 178.954 169.315 178.153ZM170.791 181.53H171.271V179.215H171.999V178.805H171.271V177.001H170.791V181.53ZM175.723 177.006H175.243V179.73H175.723V178.512H176.385V178.113H175.723V177.006ZM172.346 177.668H173.939V178.179H172.352V179.493H172.715C173.585 179.498 174.184 179.47 174.884 179.346L174.834 178.957C174.174 179.068 173.618 179.099 172.832 179.099V178.548H174.409V177.279H172.346V177.668ZM172.736 180.691C172.736 181.217 173.314 181.52 174.257 181.52C175.187 181.52 175.764 181.217 175.764 180.691C175.764 180.165 175.187 179.852 174.257 179.852C173.314 179.852 172.736 180.165 172.736 180.691ZM173.206 180.691C173.203 180.398 173.593 180.228 174.257 180.231C174.912 180.228 175.296 180.398 175.294 180.691C175.296 180.987 174.912 181.156 174.257 181.151C173.593 181.156 173.203 180.987 173.206 180.691ZM178.062 177.324C177.35 177.322 176.826 177.764 176.829 178.401C176.826 179.038 177.35 179.48 178.062 179.483C178.778 179.48 179.293 179.038 179.296 178.401C179.293 177.764 178.778 177.322 178.062 177.324ZM176.612 180.165L176.672 180.564C177.481 180.564 178.581 180.559 179.604 180.362L179.569 180.013C178.578 180.158 177.436 180.165 176.612 180.165ZM177.304 178.401C177.299 178.004 177.623 177.739 178.062 177.739C178.502 177.739 178.826 178.004 178.826 178.401C178.826 178.803 178.502 179.063 178.062 179.063C177.623 179.063 177.299 178.803 177.304 178.401ZM179.852 181.54H180.332V177.001H179.852V181.54ZM183.474 177.147C182.789 177.147 182.283 177.569 182.286 178.179C182.283 178.795 182.789 179.217 183.474 179.215C183.868 179.217 184.202 179.073 184.414 178.831H185.516V179.306H185.991V177.001H185.516V177.521H184.404C184.192 177.286 183.863 177.147 183.474 177.147ZM182.746 178.179C182.743 177.799 183.049 177.539 183.474 177.542C183.886 177.539 184.192 177.799 184.192 178.179C184.192 178.568 183.886 178.828 183.474 178.831C183.049 178.828 182.743 178.568 182.746 178.179ZM183.029 179.902H185.516V180.297H183.039V181.474H186.153V181.09H183.519V180.655H185.991V179.528H183.029V179.902ZM184.614 177.9H185.516V178.451H184.616C184.639 178.366 184.652 178.275 184.652 178.179C184.652 178.08 184.639 177.989 184.614 177.9ZM190.54 177.001H190.08V178.775H189.518V177.087H189.063V181.308H189.518V179.169H190.08V181.53H190.54V177.001ZM186.794 180.337H188.553V177.511H186.794V180.337ZM187.249 179.953V177.89H188.103V179.953H187.249Z" fill="#E9E9E9"/>
<path d="M199.483 179.6C199.483 176.68 201.851 174.313 204.771 174.313H226.752C229.672 174.313 232.04 176.68 232.04 179.6C232.04 182.52 229.672 184.888 226.752 184.888H204.771C201.851 184.888 199.483 182.52 199.483 179.6Z" fill="#E9E9E9"/>
<path d="M206.491 180.13C205.482 180.13 204.919 180.375 204.919 180.832C204.919 181.287 205.482 181.522 206.491 181.52C207.487 181.522 208.05 181.287 208.053 180.832C208.05 180.375 207.487 180.13 206.491 180.13ZM204.428 179.882H208.558V179.503H206.733V179.19C207.537 179.154 207.979 178.934 207.977 178.553C207.979 178.12 207.446 177.9 206.491 177.9C205.54 177.9 205.002 178.12 205.005 178.553C205.002 178.937 205.452 179.154 206.253 179.19V179.503H204.428V179.882ZM204.641 177.734H208.326V177.365H206.733V176.945H206.253V177.365H204.641V177.734ZM205.409 180.832C205.409 180.605 205.786 180.486 206.491 180.484C207.191 180.486 207.567 180.605 207.567 180.832C207.567 181.055 207.191 181.169 206.491 181.166C205.786 181.169 205.409 181.055 205.409 180.832ZM205.515 178.553C205.513 178.338 205.859 178.232 206.491 178.229C207.128 178.232 207.466 178.338 207.466 178.553C207.466 178.75 207.128 178.858 206.491 178.861C205.859 178.858 205.513 178.75 205.515 178.553ZM212.737 177.001H212.277V178.795H211.691V177.092H211.251V181.297H211.691V179.19H212.277V181.53H212.737V177.001ZM209.002 180.443H209.305C209.965 180.438 210.435 180.42 210.978 180.307L210.943 179.912C210.458 180.006 210.038 180.031 209.482 180.034V177.936H210.7V177.547H209.002V180.443ZM216.831 176.986H216.351V179.478H216.831V178.441H217.493V178.047H216.831V176.986ZM213.277 177.764H215.976V177.385H214.869V176.96H214.389V177.385H213.277V177.764ZM213.525 178.679C213.522 179.139 213.962 179.42 214.627 179.417C215.292 179.42 215.724 179.139 215.724 178.679C215.724 178.221 215.292 177.936 214.627 177.936C213.962 177.936 213.522 178.221 213.525 178.679ZM213.904 180.049H216.356V180.403H213.914V181.484H216.987V181.121H214.384V180.741H216.831V179.69H213.904V180.049ZM213.99 178.679C213.985 178.434 214.235 178.282 214.627 178.28C215.016 178.282 215.269 178.434 215.274 178.679C215.269 178.924 215.016 179.068 214.627 179.068C214.235 179.068 213.985 178.924 213.99 178.679ZM221.455 177.001H220.975V181.54H221.455V177.001ZM217.947 177.799H219.579V178.679H217.952V180.453H218.336C219.137 180.451 219.82 180.42 220.621 180.286L220.575 179.892C219.817 180.016 219.178 180.051 218.442 180.054V179.063H220.07V177.41H217.947V177.799ZM224.416 177.643V177.299H223.91V177.643C223.908 178.381 223.127 179.073 222.267 179.235L222.48 179.634C223.205 179.473 223.87 179 224.168 178.366C224.461 179.002 225.126 179.478 225.851 179.634L226.074 179.235C225.202 179.078 224.416 178.381 224.416 177.643ZM222.116 180.933H226.261V180.534H222.116V180.933Z" fill="#E9E9E9"/>
<path d="M126 193.536C126 190.616 128.367 188.249 131.287 188.249H148.269C151.189 188.249 153.556 190.616 153.556 193.536C153.556 196.456 151.189 198.824 148.269 198.824H131.287C128.367 198.824 126 196.456 126 193.536Z" fill="#E9E9E9"/>
<path d="M134.504 190.937H134.023V193.626H134.504V192.469H135.161V192.079H134.504V190.937ZM130.94 193.272L131.137 193.661C132.464 193.277 133.26 192.431 133.26 191.26H131.142V191.65H132.739C132.651 192.383 132.001 192.974 130.94 193.272ZM131.557 194.566C131.551 195.122 132.148 195.459 133.058 195.461C133.97 195.459 134.554 195.122 134.554 194.566C134.554 194.015 133.97 193.674 133.058 193.677C132.148 193.674 131.551 194.015 131.557 194.566ZM132.032 194.566C132.029 194.248 132.423 194.053 133.058 194.056C133.687 194.053 134.084 194.248 134.084 194.566C134.084 194.885 133.687 195.079 133.058 195.082C132.423 195.079 132.029 194.885 132.032 194.566ZM137.121 191.705V191.639H138.081V191.25H135.645V191.639H136.605V191.705C136.608 192.142 136.201 192.534 135.518 192.681L135.711 193.065C136.274 192.946 136.671 192.656 136.868 192.276C137.065 192.628 137.46 192.886 138.005 192.994L138.198 192.605C137.523 192.489 137.118 192.132 137.121 191.705ZM135.362 193.383L135.427 193.783C135.791 193.783 136.206 193.78 136.641 193.763V195.325H137.121V193.737C137.538 193.71 137.965 193.667 138.38 193.596L138.344 193.242C137.358 193.378 136.221 193.383 135.362 193.383ZM138.658 195.466H139.133V190.942H138.658V195.466ZM143.317 190.937H142.837V195.466H143.317V193.095H144.045V192.691H143.317V190.937ZM139.961 194.389H142.109V191.316H141.634V192.479H140.436V191.316H139.961V194.389ZM140.436 193.995V192.858H141.634V193.995H140.436ZM148.356 194.506H146.511V193.576H147.865V191.245H147.39V192.024H145.166V191.245H144.686V193.576H146.035V194.506H144.211V194.905H148.356V194.506ZM145.166 193.186V192.413H147.39V193.186H145.166Z" fill="#E9E9E9"/>
<path d="M156.742 193.536C156.742 190.616 159.109 188.249 162.029 188.249H175.011C177.931 188.249 180.298 190.616 180.298 193.536C180.298 196.456 177.931 198.824 175.011 198.824H162.029C159.109 198.824 156.742 196.456 156.742 193.536Z" fill="#E9E9E9"/>
<path d="M162.293 191.356H161.838V194.349H163.602V191.356H163.158V192.438H162.293V191.356ZM162.293 193.96V192.817H163.158V193.96H162.293ZM164.108 195.244H164.563V193.105H165.124V195.466H165.584V190.937H165.124V192.711H164.563V191.023H164.108V195.244ZM169.879 190.937H169.404V191.948H168.545V192.342H169.404V193.181H168.52V193.581H169.404V195.476H169.879V190.937ZM166.265 191.725H167.802V192.61H166.275V194.43H166.619C167.334 194.43 167.913 194.41 168.621 194.298L168.58 193.904C167.936 193.998 167.395 194.028 166.756 194.03V192.989H168.272V191.336H166.265V191.725ZM174.094 190.942H173.614V193.818H174.094V192.57H174.741V192.17H174.094V190.942ZM170.525 193.166L170.576 193.545C171.359 193.548 172.423 193.533 173.376 193.368L173.336 193.025C172.962 193.078 172.56 193.11 172.158 193.133V192.764C172.684 192.688 173.033 192.375 173.038 191.933C173.033 191.432 172.57 191.096 171.905 191.094C171.233 191.096 170.776 191.432 170.778 191.933C170.776 192.383 171.132 192.701 171.678 192.769V193.151C171.263 193.164 170.867 193.166 170.525 193.166ZM171.102 194.662C171.102 195.16 171.675 195.459 172.613 195.456C173.548 195.459 174.119 195.16 174.124 194.662C174.119 194.154 173.548 193.864 172.613 193.864C171.675 193.864 171.102 194.154 171.102 194.662ZM171.228 191.933C171.223 191.642 171.496 191.46 171.905 191.458C172.307 191.46 172.583 191.642 172.583 191.933C172.583 192.236 172.307 192.428 171.905 192.428C171.496 192.428 171.223 192.236 171.228 191.933ZM171.572 194.662C171.569 194.387 171.956 194.233 172.613 194.233C173.258 194.233 173.644 194.387 173.649 194.662C173.644 194.93 173.258 195.084 172.613 195.087C171.956 195.084 171.569 194.93 171.572 194.662Z" fill="#E9E9E9"/>
<rect x="219.57" y="119" width="41.8085" height="5.57447" fill="#E9E9E9"/>
<g filter="url(#filter0_d_2721_22804)">
<path d="M86 239.062C86 228.534 94.5341 220 105.062 220H479.938C490.466 220 499 228.534 499 239.062V364.021C499 374.548 490.466 383.082 479.938 383.082H105.062C94.5341 383.082 86 374.548 86 364.021V239.062Z" fill="white"/>
<path d="M374.308 259.562H381.113V258.403H376.118V258.316L378.521 255.841C380.374 253.93 380.917 253.017 380.924 251.845C380.917 250.216 379.571 248.935 377.667 248.935C375.77 248.935 374.337 250.18 374.351 252.033H375.582C375.589 250.86 376.371 250.071 377.623 250.064C378.803 250.071 379.701 250.766 379.708 251.845C379.701 252.815 379.107 253.524 377.87 254.842L374.293 258.606L374.308 259.562ZM386.292 259.706C388.616 259.706 389.955 257.752 389.955 254.32C389.955 250.918 388.594 248.935 386.292 248.935C383.983 248.935 382.622 250.918 382.629 254.32C382.622 257.752 383.969 259.706 386.292 259.706ZM383.889 254.32C383.896 251.606 384.787 250.071 386.292 250.064C387.798 250.071 388.688 251.606 388.681 254.32C388.688 257.035 387.805 258.548 386.292 258.548C384.772 258.548 383.896 257.035 383.889 254.32ZM391.544 259.562H398.349V258.403H393.354V258.316L395.758 255.841C397.611 253.93 398.154 253.017 398.161 251.845C398.154 250.216 396.807 248.935 394.903 248.935C393.007 248.935 391.573 250.18 391.588 252.033H392.819C392.826 250.86 393.608 250.071 394.86 250.064C396.04 250.071 396.938 250.766 396.945 251.845C396.938 252.815 396.344 253.524 395.106 254.842L391.53 258.606L391.544 259.562ZM400.098 259.562H406.902V258.403H401.907V258.316L404.311 255.841C406.164 253.93 406.707 253.017 406.714 251.845C406.707 250.216 405.36 248.935 403.456 248.935C401.56 248.935 400.127 250.18 400.141 252.033H401.372C401.379 250.86 402.161 250.071 403.413 250.064C404.593 250.071 405.491 250.766 405.498 251.845C405.491 252.815 404.897 253.524 403.659 254.842L400.083 258.606L400.098 259.562ZM413.168 253.756H408.578V254.9H413.168V253.756ZM418.348 259.706C420.671 259.706 422.011 257.752 422.011 254.32C422.011 250.918 420.65 248.935 418.348 248.935C416.038 248.935 414.677 250.918 414.685 254.32C414.677 257.752 416.024 259.706 418.348 259.706ZM415.944 254.32C415.951 251.606 416.842 250.071 418.348 250.064C419.853 250.071 420.744 251.606 420.736 254.32C420.744 257.035 419.861 258.548 418.348 258.548C416.827 258.548 415.951 257.035 415.944 254.32ZM427.306 249.079H425.989L423.383 250.817V252.134L425.931 250.44H425.989V259.562H427.306V249.079ZM434.469 253.756H429.88V254.9H434.469V253.756ZM439.924 249.079H438.607L436.001 250.817V252.134L438.549 250.44H438.607V259.562H439.924V249.079ZM442.57 259.562H449.375V258.403H444.38V258.316L446.783 255.841C448.636 253.93 449.179 253.017 449.187 251.845C449.179 250.216 447.833 248.935 445.929 248.935C444.032 248.935 442.599 250.18 442.614 252.033H443.844C443.851 250.86 444.633 250.071 445.886 250.064C447.066 250.071 447.963 250.766 447.97 251.845C447.963 252.815 447.37 253.524 446.132 254.842L442.556 258.606L442.57 259.562Z" fill="#BEBEBE"/>
<path d="M122.737 246.616H121.116V259.718H122.737V246.616ZM112.269 252.19C112.262 255.035 113.703 256.823 115.686 256.823C117.648 256.823 119.096 255.035 119.103 252.19C119.096 249.367 117.648 247.571 115.686 247.571C113.703 247.571 112.262 249.367 112.269 252.19ZM113.819 252.19C113.819 250.192 114.579 249.019 115.686 249.019C116.787 249.019 117.54 250.192 117.54 252.19C117.54 254.202 116.787 255.368 115.686 255.375C114.579 255.368 113.819 254.202 113.819 252.19ZM131.334 247.702V247.036H129.64V247.702C129.64 249.359 127.801 251.017 125.036 251.379L125.673 252.682C127.873 252.349 129.633 251.256 130.487 249.779C131.341 251.256 133.107 252.349 135.33 252.682L135.967 251.379C133.172 251.017 131.327 249.345 131.334 247.702ZM124.515 255.143H129.654V259.704H131.247V255.143H136.445V253.811H124.515V255.143ZM142.145 249.28V248.903H144.896V247.615H137.701V248.903H140.524V249.28C140.509 251.003 139.387 252.697 137.281 253.391L138.106 254.666C139.655 254.13 140.77 253.051 141.356 251.698C141.957 252.943 143.036 253.927 144.52 254.405L145.345 253.145C143.26 252.501 142.145 250.908 142.145 249.28ZM139.424 259.443H148.443V258.14H141.045V255.259H139.424V259.443ZM146.46 256.128H148.082V246.63H146.46V256.128Z" fill="#606060"/>
<circle cx="155.71" cy="252.828" r="1.05897" fill="#909090"/>
<path d="M172.211 246.717H171.067V250.974H167.057V251.915H171.067V259.617H172.211V246.717ZM162.236 256.49H163.22C165.305 256.49 167.115 256.381 169.171 255.954L169.026 255.013C167.093 255.411 165.349 255.513 163.38 255.534V248.165H162.236V256.49ZM185.962 252.697H174.177V253.594H185.962V252.697ZM175.596 255.476H183.356V256.577H175.61V259.414H184.905V258.589H176.754V257.358H184.485V254.622H175.596V255.476ZM175.668 247.933H183.298V248.99H175.711V251.726H184.673V250.901H176.841V249.772H184.442V247.108H175.668V247.933ZM196.741 247.528H191.022V252.972H192.021C194.671 252.979 196.242 252.885 198.088 252.523L197.943 251.611C196.184 251.965 194.664 252.059 192.137 252.059V248.469H196.741V247.528ZM191.544 255.1H194.541V256.302H191.573V259.414H192.253C193.817 259.422 194.758 259.407 196.032 259.168L195.931 258.3C194.83 258.488 193.969 258.517 192.687 258.517V257.141H195.641V254.231H191.544V255.1ZM196.437 259.414H200.491V254.231H196.437V259.414ZM197.451 258.546V255.1H199.492V258.546H197.451ZM199.362 253.609H200.491V250.641H202.431V249.685H200.491V246.717H199.362V253.609ZM213.417 248.02H204.339V248.961H212.273V249.309C212.266 250.851 212.266 252.653 211.781 255.114L212.939 255.245C213.402 252.653 213.402 250.887 213.417 249.309V248.02ZM203.094 257.764H214.821V256.823H208.813V252.219H207.698V256.823H203.094V257.764ZM229.958 246.732H228.829V253.884H229.958V246.732ZM219.418 252.711L219.997 253.609C221.532 253.058 222.748 251.886 223.327 250.402C223.906 251.784 225.115 252.863 226.628 253.377L227.178 252.479C225.267 251.85 223.877 250.257 223.892 248.469V247.209H222.734V248.469C222.734 250.337 221.358 252.038 219.418 252.711ZM221.271 259.414H230.175V258.488H228.264V255.578H230.045V254.651H221.387V255.578H223.197V258.488H221.271V259.414ZM224.312 258.488V255.578H227.135V258.488H224.312ZM243.724 253.507H231.996V254.434H243.724V253.507ZM233.299 249.729C233.299 251.328 235.066 252.291 237.86 252.291C240.625 252.291 242.399 251.328 242.406 249.729C242.399 248.114 240.625 247.166 237.86 247.18C235.066 247.166 233.299 248.114 233.299 249.729ZM233.516 259.313H242.42V258.357H234.66V255.563H233.516V259.313ZM234.472 249.729C234.465 248.722 235.782 248.092 237.86 248.092C239.923 248.092 241.241 248.722 241.248 249.729C241.241 250.749 239.923 251.365 237.86 251.365C235.782 251.365 234.465 250.749 234.472 249.729Z" fill="#909090"/>
<path d="M117.337 281.21H112.414V289.116H117.337V285.51H119.291V291.924H120.377V279.98H119.291V284.569H117.337V281.21ZM113.486 288.203V282.123H116.265V288.203H113.486ZM121.869 292.576H122.969V279.705H121.869V292.576ZM135.228 279.719H134.099V289.13H135.228V279.719ZM124.905 283.773C124.898 285.648 126.353 286.951 128.279 286.944C130.204 286.951 131.645 285.648 131.652 283.773C131.645 281.92 130.204 280.624 128.279 280.617C126.353 280.624 124.898 281.92 124.905 283.773ZM126.02 283.773C126.006 282.513 126.976 281.616 128.279 281.616C129.56 281.616 130.537 282.513 130.537 283.773C130.537 285.054 129.56 285.945 128.279 285.945C126.976 285.945 126.006 285.054 126.02 283.773ZM126.918 292.301H135.634V291.345H128.047V288.174H126.918V292.301ZM141.476 291.403H142.779V287.595H145.052C147.492 287.595 148.614 286.111 148.614 284.251C148.614 282.383 147.492 280.921 145.038 280.921H141.476V291.403ZM142.779 286.437V282.079H144.98C146.666 282.079 147.318 282.999 147.325 284.251C147.318 285.496 146.666 286.437 144.994 286.437H142.779ZM150.29 280.921V291.403H151.52V283.484H151.607L154.865 291.403H156.023L159.281 283.484H159.382V291.403H160.613V280.921H159.049L155.516 289.55H155.386L151.853 280.921H150.29ZM168.008 280.544C165.322 280.552 163.302 281.956 163.302 284.077C163.302 286.22 165.322 287.624 168.008 287.61C170.693 287.624 172.713 286.22 172.713 284.077C172.713 281.956 170.693 280.552 168.008 280.544ZM162.144 290.867H173.929V289.912H162.144V290.867ZM164.388 284.077C164.374 282.535 165.93 281.464 168.008 281.471C170.071 281.464 171.613 282.535 171.613 284.077C171.613 285.641 170.071 286.683 168.008 286.683C165.93 286.683 164.374 285.641 164.388 284.077ZM186.594 290.028H181.223V287.595H185.407V286.654H177.415V284.555H185.103V280.66H176.257V281.601H183.988V283.628H176.286V287.595H180.108V290.028H174.809V290.983H186.594V290.028ZM202.832 289.97H197.46V286.828H201.369V280.791H192.436V286.828H196.345V289.97H191.046V290.925H202.832V289.97ZM193.551 285.916V281.703H200.269V285.916H193.551ZM215.453 286.205H203.711V287.132H215.453V286.205ZM205.203 284.787H214.107V283.845H206.332V281.196H213.991V280.269H205.203V284.787ZM205.231 292.286H214.208V291.331H206.361V288.522H205.231V292.286ZM226.363 281.601V280.617H225.175V281.601C225.168 283.817 222.671 285.764 220.441 286.191L220.962 287.146C222.91 286.69 224.944 285.315 225.784 283.426C226.616 285.315 228.657 286.698 230.605 287.146L231.126 286.191C228.889 285.771 226.37 283.809 226.363 281.601ZM219.949 290.824H231.734V289.883H219.949V290.824ZM238.289 281.239H233.294V282.18H237.174C237.131 282.89 237.022 283.57 236.834 284.236L232.672 284.497L232.845 285.51L236.516 285.134C235.864 286.654 234.684 288.008 232.701 289.087L233.352 289.897C235.423 288.761 236.682 287.327 237.406 285.742H239.838V291.924H240.924V280.052H239.838V284.801H237.775C238.144 283.664 238.282 282.456 238.289 281.239ZM242.546 292.576H243.632V279.705H242.546V292.576ZM257.006 285.091H245.279V286.017H250.578V287.32H246.698V288.189H254.385V289.405H246.726V292.431H255.891V291.533H247.856V290.245H255.5V287.32H251.692V286.017H257.006V285.091ZM245.916 283.585L246.292 284.454C248.399 284.236 250.375 283.418 251.142 282.115C251.917 283.418 253.9 284.236 256.007 284.454L256.383 283.585C254.118 283.382 251.968 282.398 251.801 281.066H255.964V280.168H246.35V281.066H250.491C250.31 282.405 248.167 283.382 245.916 283.585ZM268.571 279.719H267.441V287.639H268.571V279.719ZM258.595 281.486H263.344V283.165H258.624V286.842H259.666C262.041 286.835 263.8 286.777 265.964 286.423L265.834 285.482C263.742 285.822 262.026 285.887 259.724 285.887V284.063H264.473V280.53H258.595V281.486ZM259.956 290.23C259.949 291.7 261.592 292.547 264.299 292.547C267.007 292.547 268.657 291.7 268.657 290.23C268.657 288.754 267.007 287.899 264.299 287.899C261.592 287.899 259.949 288.754 259.956 290.23ZM261.071 290.23C261.078 289.347 262.294 288.811 264.299 288.811C266.297 288.811 267.521 289.347 267.514 290.23C267.521 291.114 266.297 291.642 264.299 291.635C262.294 291.642 261.078 291.114 261.071 290.23ZM277.746 281.138H271.202V282.065H276.602C276.61 283.093 276.581 284.656 276.226 286.813L277.37 286.915C277.739 284.526 277.739 282.825 277.746 281.804V281.138ZM270.478 288.797L270.623 289.738C272.925 289.753 275.951 289.695 278.658 289.275L278.6 288.421C277.261 288.58 275.799 288.674 274.373 288.725V284.816H273.258V288.761C272.266 288.783 271.325 288.79 270.478 288.797ZM279.411 292.576H280.541V286.075H282.625V285.091H280.541V279.705H279.411V292.576ZM293.767 280.501H287.599V286.596H288.641C291.486 286.604 293.064 286.56 294.939 286.234L294.824 285.308C293.014 285.619 291.479 285.677 288.743 285.67V283.961H293.405V283.049H288.743V281.442H293.767V280.501ZM289.105 292.402H297.473V288.03H289.105V292.402ZM290.219 291.475V288.942H296.358V291.475H290.219ZM296.344 287.393H297.473V279.719H296.344V287.393ZM308.759 281.239H303.764V282.18H307.644C307.601 282.89 307.492 283.57 307.304 284.236L303.142 284.497L303.315 285.51L306.985 285.134C306.334 286.654 305.154 288.008 303.17 289.087L303.822 289.897C305.892 288.761 307.152 287.327 307.876 285.742H310.308V291.924H311.394V280.052H310.308V284.801H308.245C308.614 283.664 308.752 282.456 308.759 281.239ZM313.016 292.576H314.101V279.705H313.016V292.576ZM319.209 280.704C317.305 280.711 315.973 282.456 315.98 285.192C315.973 287.936 317.305 289.673 319.209 289.666C321.004 289.673 322.293 288.095 322.416 285.568H325.29V292.605H326.419V279.705H325.29V284.627H322.401C322.228 282.217 320.961 280.711 319.209 280.704ZM317.066 285.192C317.073 283.1 317.942 281.724 319.209 281.717C320.468 281.724 321.352 283.1 321.352 285.192C321.352 287.284 320.468 288.659 319.209 288.652C317.942 288.659 317.073 287.284 317.066 285.192ZM340.184 285.684H328.399V286.582H340.184V285.684ZM329.818 288.464H337.578V289.564H329.832V292.402H339.127V291.577H330.976V290.346H338.707V287.61H329.818V288.464ZM329.89 280.921H337.52V281.978H329.934V284.714H338.896V283.889H331.063V282.76H338.664V280.096H329.89V280.921ZM354.612 279.705H353.483V292.576H354.612V285.959H356.769V285.018H354.612V279.705ZM344.579 282.716H352.238V281.775H349.023V279.864H347.894V281.775H344.579V282.716ZM345.317 286.741C345.31 288.486 346.642 289.695 348.473 289.695C350.29 289.695 351.615 288.486 351.629 286.741C351.615 285.004 350.29 283.788 348.473 283.788C346.642 283.788 345.31 285.004 345.317 286.741ZM346.403 286.741C346.396 285.576 347.272 284.736 348.473 284.743C349.66 284.736 350.529 285.576 350.544 286.741C350.529 287.914 349.66 288.739 348.473 288.725C347.272 288.739 346.396 287.914 346.403 286.741ZM367.726 283.614H360.038V280.182H358.909V284.526H367.726V283.614ZM357.301 287.204H369.087V286.278H357.301V287.204ZM358.836 292.257H367.798V291.316H359.965V288.522H358.836V292.257ZM384.571 279.705H383.485V292.576H384.571V279.705ZM373.568 288.971L374.234 289.796C376.029 288.739 377.274 287.414 378.049 285.916H380.778V291.924H381.864V280.052H380.778V284.989H378.469C378.91 283.845 379.113 282.622 379.113 281.355H374.118V282.296H377.984C377.767 284.989 376.362 287.313 373.568 288.971ZM400.418 279.705H399.289V287.508H400.418V279.705ZM389.979 282.021H397.87V281.095H394.496V279.603H393.353V281.095H389.979V282.021ZM390.776 284.946C390.761 286.357 392.021 287.248 393.932 287.248C395.836 287.248 397.081 286.357 397.088 284.946C397.081 283.549 395.836 282.658 393.932 282.658C392.021 282.658 390.761 283.549 390.776 284.946ZM391.861 284.946C391.847 284.092 392.672 283.527 393.932 283.527C395.177 283.527 395.995 284.092 396.002 284.946C395.995 285.822 395.177 286.365 393.932 286.379C392.672 286.365 391.847 285.822 391.861 284.946ZM392.05 292.402H400.418V288.203H392.05V292.402ZM393.164 291.475V289.116H399.303V291.475H393.164ZM414.198 285.12H402.456V286.032H414.198V285.12ZM403.875 288.073H411.563V289.318H403.904V292.431H413.068V291.504H405.033V290.172H412.678V287.19H403.875V288.073ZM404.02 284.063H412.793V283.136H405.163V281.066H412.663V280.154H404.02V284.063ZM419.551 288.334V287.552H418.465V288.334C418.451 289.579 417.474 290.976 415.845 291.562L416.409 292.417C417.64 291.946 418.523 291.041 418.987 290.006C419.377 291.092 420.174 292.04 421.404 292.518C422.606 292.011 423.395 291.012 423.801 289.962C424.235 291.048 425.133 291.946 426.414 292.417L427.007 291.562C425.328 291.005 424.365 289.666 424.372 288.334V287.552H423.258V288.334C423.25 289.325 422.621 290.636 421.383 291.41C420.159 290.701 419.544 289.492 419.551 288.334ZM415.338 283.455C415.338 285.228 416.742 286.466 418.668 286.466C420.391 286.466 421.73 285.424 421.947 283.889H424.647V287.06H425.791V279.705H424.647V282.948H421.94C421.687 281.457 420.362 280.436 418.668 280.443C416.742 280.436 415.338 281.688 415.338 283.455ZM416.438 283.455C416.424 282.26 417.372 281.399 418.668 281.413C419.935 281.399 420.883 282.26 420.883 283.455C420.883 284.649 419.935 285.518 418.668 285.525C417.372 285.518 416.424 284.649 416.438 283.455ZM433.649 279.936C430.776 279.936 429.089 280.725 429.089 282.152C429.089 283.614 430.776 284.403 433.649 284.41C436.509 284.403 438.188 283.614 438.196 282.152C438.188 280.725 436.509 279.936 433.649 279.936ZM427.786 286.205H439.513V285.279H427.786V286.205ZM429.205 288.189H436.893V289.362H429.234V292.431H438.398V291.533H430.363V290.201H438.007V287.32H429.205V288.189ZM430.276 282.152C430.262 281.305 431.514 280.798 433.649 280.791C435.785 280.798 437.03 281.305 437.037 282.152C437.03 283.049 435.785 283.541 433.649 283.541C431.514 283.541 430.262 283.049 430.276 282.152ZM451.382 279.719H450.296V289.362H451.382V279.719ZM441.059 287.219H441.87C443.954 287.219 445.171 287.154 446.662 286.857L446.546 285.93C445.163 286.22 444.012 286.263 442.145 286.278V284.396H445.431V283.498H442.145V281.717H445.967V280.776H441.059V287.219ZM442.984 292.301H451.773V291.345H444.143V288.29H442.984V292.301ZM446.039 284.294H447.777V289.029H448.877V279.98H447.777V283.382H446.039V284.294ZM464.133 279.705H463.033V292.576H464.133V279.705ZM453.622 289.477H454.433C456.503 289.47 457.763 289.405 459.254 289.101L459.139 288.131C457.756 288.442 456.583 288.507 454.723 288.522V282.238H458.473V281.297H453.622V289.477ZM457.604 285.583H460.413V291.91H461.498V280.023H460.413V284.627H457.604V285.583ZM122.925 300.705H121.811V305.946H119.957V300.994H118.886V312.91H119.957V306.916H121.811V313.576H122.925V300.705ZM112.588 310.246H113.384C114.803 310.246 116.28 310.152 118.075 309.826L117.93 308.812C116.367 309.131 114.991 309.225 113.717 309.232V302.283H112.588V310.246ZM128.438 303.224V301.501H127.352V303.224C127.345 304.693 126.31 306.38 124.616 307.133L125.238 308.016C126.498 307.459 127.425 306.358 127.902 305.113C128.359 306.25 129.242 307.198 130.465 307.698L131.073 306.815C129.423 306.17 128.445 304.693 128.438 303.224ZM126.86 310.144H134.418V313.576H135.532V309.203H126.86V310.144ZM131.667 308.422H132.738V305.034H134.447V308.494H135.532V300.719H134.447V304.078H132.738V300.951H131.667V308.422ZM150.901 300.719H149.772V310.362H150.901V305.917H152.841V304.961H150.901V300.719ZM140.868 303.224H148.541V302.297H145.269V300.719H144.14V302.297H140.868V303.224ZM141.606 306.337C141.599 307.785 142.844 308.718 144.705 308.711C146.543 308.718 147.788 307.785 147.803 306.337C147.788 304.874 146.543 303.933 144.705 303.933C142.844 303.933 141.599 304.874 141.606 306.337ZM142.692 306.337C142.685 305.417 143.488 304.824 144.705 304.831C145.906 304.824 146.717 305.417 146.732 306.337C146.717 307.242 145.906 307.828 144.705 307.813C143.488 307.828 142.685 307.242 142.692 306.337ZM142.851 313.301H151.495V312.345H143.966V309.594H142.851V313.301ZM167.747 300.719H166.603V304.339H163.563V301.573H162.448V303.861H158.857V301.573H157.728V308.045H163.563V305.294H166.603V310.246H167.747V300.719ZM158.857 307.104V304.759H162.448V307.104H158.857ZM159.422 313.301H168.036V312.345H160.566V309.305H159.422V313.301ZM183.376 300.705H182.247V310.202H183.376V305.584H185.316V304.628H183.376V300.705ZM173.56 304.788C173.553 306.648 175.015 307.958 176.934 307.958C178.866 307.958 180.307 306.648 180.322 304.788C180.307 302.92 178.866 301.624 176.934 301.617C175.015 301.624 173.553 302.92 173.56 304.788ZM174.675 304.788C174.668 303.513 175.66 302.616 176.934 302.616C178.229 302.616 179.199 303.513 179.207 304.788C179.199 306.054 178.229 306.959 176.934 306.959C175.66 306.959 174.668 306.054 174.675 304.788ZM175.327 313.301H183.97V312.345H176.441V309.218H175.327V313.301ZM199.513 300.705H198.383V313.576H199.513V306.959H201.67V306.018H199.513V300.705ZM189.479 303.716H197.138V302.775H193.924V300.864H192.795V302.775H189.479V303.716ZM190.218 307.741C190.21 309.486 191.542 310.695 193.374 310.695C195.191 310.695 196.516 309.486 196.53 307.741C196.516 306.004 195.191 304.788 193.374 304.788C191.542 304.788 190.21 306.004 190.218 307.741ZM191.303 307.741C191.296 306.576 192.172 305.736 193.374 305.743C194.561 305.736 195.43 306.576 195.444 307.741C195.43 308.914 194.561 309.739 193.374 309.725C192.172 309.739 191.296 308.914 191.303 307.741ZM212.539 302.008H203.462V302.949H211.396V303.296C211.388 304.838 211.388 306.641 210.903 309.102L212.062 309.232C212.525 306.641 212.525 304.874 212.539 303.296V302.008ZM202.217 311.752H213.944V310.81H207.935V306.206H206.821V310.81H202.217V311.752ZM222.884 302.732V301.443H221.755V302.775C221.741 304.773 220.423 306.482 218.44 307.176L219.062 308.103C220.619 307.517 221.791 306.322 222.341 304.78C222.899 306.134 224.014 307.184 225.433 307.712L226.07 306.829C224.18 306.185 222.87 304.57 222.884 302.732ZM220.539 311.143C220.532 312.678 222.175 313.547 224.853 313.547C227.525 313.547 229.168 312.678 229.168 311.143C229.168 309.594 227.525 308.704 224.853 308.711C222.175 308.704 220.532 309.594 220.539 311.143ZM221.668 311.143C221.661 310.181 222.877 309.609 224.853 309.609C226.822 309.609 228.039 310.181 228.039 311.143C228.039 312.077 226.822 312.642 224.853 312.635C222.877 312.642 221.661 312.077 221.668 311.143ZM225.114 304.411H227.981V308.335H229.125V300.705H227.981V303.47H225.114V304.411ZM241.732 300.705H240.617V307.379H241.732V300.705ZM231.206 306.351L231.799 307.249C233.327 306.699 234.536 305.519 235.115 304.02C235.694 305.41 236.889 306.489 238.402 307.003L238.966 306.12C237.055 305.49 235.665 303.883 235.68 302.066V301.081H234.521V302.066C234.521 303.955 233.146 305.678 231.206 306.351ZM233.378 308.943H240.617V310.231H233.407V313.431H242.209V312.504H234.521V311.115H241.746V308.031H233.378V308.943ZM253.745 300.705H252.616V313.576H253.745V306.959H255.902V306.018H253.745V300.705ZM243.712 303.716H251.37V302.775H248.156V300.864H247.027V302.775H243.712V303.716ZM244.45 307.741C244.443 309.486 245.775 310.695 247.606 310.695C249.423 310.695 250.748 309.486 250.762 307.741C250.748 306.004 249.423 304.788 247.606 304.788C245.775 304.788 244.443 306.004 244.45 307.741ZM245.536 307.741C245.529 306.576 246.404 305.736 247.606 305.743C248.793 305.736 249.662 306.576 249.677 307.741C249.662 308.914 248.793 309.739 247.606 309.725C246.404 309.739 245.529 308.914 245.536 307.741ZM267.467 300.705H266.381V313.576H267.467V300.705ZM256.463 309.971L257.129 310.796C258.925 309.739 260.17 308.414 260.944 306.916H263.673V312.924H264.759V301.052H263.673V305.989H261.364C261.806 304.845 262.008 303.622 262.008 302.355H257.014V303.296H260.879C260.662 305.989 259.258 308.313 256.463 309.971ZM283.357 309.001H274.699V309.913H282.213V313.576H283.357V309.001ZM272.889 304.512C272.882 306.344 274.308 307.611 276.234 307.596C277.356 307.604 278.304 307.169 278.898 306.438H282.213V308.291H283.357V300.705H282.213V302.601H278.89C278.297 301.877 277.348 301.436 276.234 301.443C274.308 301.436 272.882 302.717 272.889 304.512ZM273.975 304.512C273.975 303.304 274.916 302.413 276.234 302.413C277.5 302.413 278.463 303.304 278.463 304.512C278.463 305.765 277.5 306.641 276.234 306.641C274.916 306.641 273.975 305.765 273.975 304.512ZM279.412 305.497C279.506 305.193 279.564 304.86 279.564 304.512C279.564 304.165 279.506 303.846 279.404 303.542H282.213V305.497H279.412ZM295.414 300.661H294.284V307.785H295.414V304.73H297.368V303.789H295.414V300.661ZM285.38 302.79H293.054V301.877H289.782V300.574H288.652V301.877H285.38V302.79ZM286.119 305.483C286.111 306.793 287.342 307.589 289.217 307.596C291.085 307.589 292.301 306.793 292.315 305.483C292.301 304.179 291.085 303.376 289.217 303.369C287.342 303.376 286.111 304.179 286.119 305.483ZM287.205 309.305H294.284V310.463H287.233V313.431H295.891V312.562H288.348V311.303H295.414V308.451H287.205V309.305ZM287.205 305.483C287.197 304.715 287.994 304.216 289.217 304.208C290.433 304.216 291.229 304.715 291.244 305.483C291.229 306.257 290.433 306.742 289.217 306.742C287.994 306.742 287.197 306.257 287.205 305.483ZM303.88 300.936C301.006 300.936 299.319 301.725 299.319 303.152C299.319 304.614 301.006 305.403 303.88 305.41C306.739 305.403 308.419 304.614 308.426 303.152C308.419 301.725 306.739 300.936 303.88 300.936ZM298.016 307.205H309.744V306.279H298.016V307.205ZM299.435 309.189H307.123V310.362H299.464V313.431H308.629V312.533H300.593V311.201H308.238V308.32H299.435V309.189ZM300.506 303.152C300.492 302.305 301.744 301.798 303.88 301.791C306.015 301.798 307.261 302.305 307.268 303.152C307.261 304.049 306.015 304.541 303.88 304.541C301.744 304.541 300.492 304.049 300.506 303.152ZM320.711 301.906V301.168H319.538V301.906C319.538 303.752 317.186 305.287 314.862 305.613L315.325 306.539C317.33 306.206 319.307 305.113 320.132 303.521C320.957 305.099 322.941 306.206 324.939 306.539L325.402 305.613C323.078 305.287 320.718 303.723 320.711 301.906ZM314.254 308.914H319.538V313.576H320.653V308.914H325.981V307.958H314.254V308.914ZM337.85 300.705H336.764V304.223H335.041V300.965H333.97V308.393H335.041V305.164H336.764V308.856H337.85V300.705ZM326.846 303.166H333.448V302.254H330.726V300.806H329.597V302.254H326.846V303.166ZM327.411 306.062C327.404 307.386 328.54 308.248 330.162 308.248C331.791 308.248 332.92 307.386 332.927 306.062C332.92 304.715 331.791 303.854 330.162 303.861C328.54 303.854 327.404 304.715 327.411 306.062ZM328.424 306.062C328.424 305.244 329.134 304.701 330.162 304.701C331.19 304.701 331.899 305.244 331.899 306.062C331.899 306.851 331.19 307.394 330.162 307.394C329.134 307.394 328.424 306.851 328.424 306.062ZM329.279 311.332C329.264 312.743 330.878 313.547 333.593 313.547C336.301 313.547 337.915 312.743 337.922 311.332C337.915 309.884 336.301 309.073 333.593 309.073C330.878 309.073 329.264 309.884 329.279 311.332ZM330.408 311.332C330.393 310.449 331.588 309.956 333.593 309.971C335.591 309.956 336.778 310.449 336.793 311.332C336.778 312.164 335.591 312.671 333.593 312.664C331.588 312.671 330.393 312.164 330.408 311.332ZM350.515 300.719H349.429V304.266H347.749V300.922H346.663V308.494H347.749V305.207H349.429V308.697H350.515V300.719ZM339.511 303.123H346.113V302.181H343.391V300.763H342.262V302.181H339.511V303.123ZM340.076 305.975C340.069 307.292 341.205 308.175 342.827 308.175C344.456 308.175 345.585 307.292 345.592 305.975C345.585 304.621 344.456 303.774 342.827 303.774C341.205 303.774 340.069 304.621 340.076 305.975ZM340.409 312.562L340.959 313.431C342.19 312.982 343.08 312.114 343.551 311.115C343.942 312.157 344.731 313.069 345.969 313.532C347.177 313.047 347.959 312.07 348.35 311.057C348.799 312.106 349.711 312.982 351.007 313.431L351.543 312.562C349.892 312.056 348.915 310.774 348.922 309.522V309.059H347.807V309.522C347.793 310.463 347.17 311.708 345.947 312.432C344.731 311.773 344.13 310.622 344.144 309.522V309.059H343.029V309.522C343.022 310.695 342.023 312.012 340.409 312.562ZM341.089 305.975C341.089 305.142 341.799 304.621 342.827 304.628C343.855 304.621 344.564 305.142 344.564 305.975C344.564 306.786 343.855 307.314 342.827 307.321C341.799 307.314 341.089 306.786 341.089 305.975ZM355.709 301.704C353.805 301.711 352.473 303.456 352.48 306.192C352.473 308.936 353.805 310.673 355.709 310.666C357.504 310.673 358.793 309.095 358.916 306.568H361.79V313.605H362.919V300.705H361.79V305.627H358.901C358.728 303.217 357.461 301.711 355.709 301.704ZM353.566 306.192C353.573 304.1 354.442 302.724 355.709 302.717C356.968 302.724 357.852 304.1 357.852 306.192C357.852 308.284 356.968 309.659 355.709 309.652C354.442 309.659 353.573 308.284 353.566 306.192ZM376.699 310.97H373.774V307.466C374.838 306.894 375.483 305.982 375.483 304.831C375.483 302.84 373.528 301.53 370.777 301.515C368.026 301.53 366.072 302.84 366.072 304.831C366.072 306.004 366.738 306.93 367.838 307.502V310.97H364.913V311.925H376.699V310.97ZM367.172 304.831C367.165 303.39 368.663 302.442 370.777 302.457C372.869 302.442 374.382 303.39 374.382 304.831C374.382 306.272 372.869 307.234 370.777 307.234C368.663 307.234 367.165 306.272 367.172 304.831ZM368.953 310.97V307.915C369.503 308.06 370.118 308.132 370.777 308.132C371.45 308.132 372.073 308.052 372.63 307.908V310.97H368.953ZM379.663 301.921H378.244L378.346 309.45H379.562L379.663 301.921ZM378.027 311.549C378.013 312.063 378.447 312.483 378.954 312.49C379.468 312.483 379.888 312.063 379.88 311.549C379.888 311.042 379.468 310.622 378.954 310.622C378.447 310.622 378.013 311.042 378.027 311.549Z" fill="#434343"/>
<path d="M107.179 346.641C107.179 338.681 113.632 332.229 121.592 332.229H159.182C167.142 332.229 173.595 338.681 173.595 346.641C173.595 354.601 167.142 361.054 159.182 361.054H121.592C113.632 361.054 107.179 354.601 107.179 346.641Z" fill="#42A4FF"/>
<path d="M123.665 341.411C121.85 341.411 120.499 342.6 120.506 344.288C120.499 345.975 121.85 347.151 123.665 347.151C125.278 347.151 126.522 346.197 126.757 344.772H129.096V347.622H130.374V340.738H129.096V343.723H126.744C126.475 342.338 125.245 341.411 123.665 341.411ZM121.729 344.288C121.722 343.212 122.536 342.479 123.665 342.486C124.761 342.479 125.574 343.212 125.574 344.288C125.574 345.37 124.761 346.069 123.665 346.076C122.536 346.069 121.722 345.37 121.729 344.288ZM122.428 352.636H130.374V348.213H122.428V352.636ZM123.692 351.601V349.235H129.123V351.601H123.692ZM138.181 341.935H132.548V349.759H138.181V341.935ZM133.799 348.724V342.943H136.918V348.724H133.799ZM140.198 352.784H141.475V346.533H143.411V345.457H141.475V340.738H140.198V352.784ZM150.95 348.348V347.272L144.631 344.207V345.672L149.242 347.776V347.844L144.631 349.948V351.399L150.95 348.348ZM153.246 348.348L159.564 351.399V349.948L154.953 347.85V347.77L159.564 345.672V344.207L153.246 347.272V348.348Z" fill="white"/>
<path d="M182.067 346.641C182.067 338.681 188.519 332.229 196.479 332.229H256.069C264.029 332.229 270.482 338.681 270.482 346.641C270.482 354.601 264.029 361.054 256.069 361.054H196.479C188.52 361.054 182.067 354.601 182.067 346.641Z" fill="#444444"/>
<path d="M199.883 347.138H198.606V349.275C197.403 349.316 196.253 349.322 195.285 349.329L195.447 350.378C197.598 350.378 200.522 350.358 203.244 349.853L203.15 348.912C202.101 349.067 200.986 349.161 199.883 349.222V347.138ZM195.608 346.56L196.213 347.528C197.658 347.118 198.72 346.197 199.245 344.993C199.789 346.136 200.865 347.01 202.303 347.42L202.895 346.425C201.093 345.941 199.95 344.725 199.883 343.306H202.585V342.271H199.883V340.832H198.606V342.271H195.931V343.306H198.593C198.525 344.785 197.403 346.042 195.608 346.56ZM203.903 352.811H205.18V340.738H203.903V352.811ZM216.725 341.895H208.135V342.93H215.448V343.078C215.441 344.523 215.441 346.23 214.978 348.563L216.268 348.697C216.719 346.23 216.719 344.563 216.725 343.078V341.895ZM206.978 351.157H217.962V350.095H212.423V345.847H211.159V350.095H206.978V351.157ZM229.763 350.27H224.856V348.159H228.701V347.111H221.347V345.35H228.418V341.585H220.056V342.634H227.155V344.328H220.083V348.159H223.592V350.27H218.739V351.346H229.763V350.27ZM244.719 346.775H233.722V347.796H244.719V346.775ZM235.094 345.565H243.483V344.516H236.371V342.258H243.362V341.236H235.094V345.565ZM235.107 352.529H243.563V351.48H236.371V348.98H235.107V352.529ZM256.48 346.775H245.483V347.796H256.48V346.775ZM246.854 345.565H255.243V344.516H248.131V342.258H255.122V341.236H246.854V345.565ZM246.867 352.529H255.324V351.48H248.131V348.98H246.867V352.529Z" fill="white"/>
<path d="M107.179 386.47L477.82 386.47" stroke="#EFEFEF" stroke-width="1.05897"/>
</g>
<g filter="url(#filter1_d_2721_22804)">
<rect x="21" y="78" width="199" height="96" rx="20.0256" fill="white"/>
</g>
<path d="M52.1308 124.13V119.664H50.9233V131.025H52.1308V125.127H53.895V124.13H52.1308ZM44.8991 120.773H43.7006V128.175H44.6343C46.3445 128.175 48.1356 128.063 50.0794 127.677L49.9402 126.658C48.1401 127.026 46.4882 127.16 44.8991 127.174V120.773ZM63.2451 124.283V119.664H62.0421V131.039H63.2451V125.302H64.9958V124.283H63.2451ZM58.3971 125.751C59.829 125.526 60.8391 124.503 60.848 123.093C60.8391 121.495 59.5373 120.391 57.7911 120.382C56 120.391 54.7161 121.495 54.7251 123.093C54.7161 124.512 55.7217 125.535 57.194 125.751V127.596C56.1346 127.623 55.1156 127.627 54.2313 127.632L54.4154 128.624C56.395 128.646 59.039 128.628 61.4406 128.206L61.3553 127.304C60.4126 127.43 59.4026 127.506 58.3971 127.551V125.751ZM55.9012 123.093C55.8922 122.079 56.6958 121.419 57.7911 121.41C58.8639 121.419 59.6585 122.079 59.6674 123.093C59.6585 124.103 58.8639 124.777 57.7911 124.768C56.6958 124.777 55.8922 124.103 55.9012 123.093ZM72.5283 120.813V119.583H71.3297V120.813H68.5376V121.787H75.307V120.813H72.5283ZM77.4616 122.613V119.664H76.2541V126.518H77.4616V123.636H79.1091V122.613H77.4616ZM74.683 124.314C74.6785 123.098 73.5652 122.281 71.9268 122.281C70.2659 122.281 69.1526 123.098 69.1571 124.314C69.1526 125.544 70.2659 126.348 71.9268 126.352C73.5652 126.348 74.6785 125.544 74.683 124.314ZM70.3197 124.314C70.3108 123.632 70.9572 123.201 71.9268 123.201C72.8874 123.201 73.5338 123.632 73.5428 124.314C73.5338 125.015 72.8874 125.437 71.9268 125.441C70.9572 125.437 70.3108 125.015 70.3197 124.314ZM77.4616 130.895V127.115H70.1896V130.895H77.4616ZM76.2676 128.076V129.917H71.3746V128.076H76.2676ZM88.3111 131.039H89.4693V119.664H88.3111V131.039ZM84.8277 124.067C84.9489 123.013 84.9714 121.976 84.9758 121.015H82.7942V121.998H83.9344C83.885 124.202 83.6112 126.586 82.1433 128.57L83.077 129.109C83.9568 127.87 84.4327 126.465 84.6841 125.051H86.1609V130.487H87.3011V119.956H86.1609V124.067H84.8277ZM82.4396 121.015H79.8629V121.998H81.3937C81.3173 124.139 80.9178 126.114 79.5846 127.892L80.5318 128.417C82.1164 126.195 82.4351 123.556 82.4396 121.015ZM99.596 124.274V119.664H98.402V131.039H99.596V125.275H101.419V124.274H99.596ZM93.4776 119.812V121.446H90.672V122.429H97.4099V121.446H94.6806V119.812H93.4776ZM94.0881 123.268C92.4451 123.268 91.2511 124.364 91.2556 125.917C91.2511 127.475 92.4451 128.556 94.0881 128.561C95.7131 128.556 96.9072 127.475 96.9116 125.917C96.9072 124.364 95.7131 123.268 94.0881 123.268ZM94.0881 127.555C93.114 127.56 92.4003 126.9 92.4092 125.917C92.4003 124.938 93.114 124.265 94.0881 124.265C95.0487 124.265 95.7535 124.938 95.7625 125.917C95.7535 126.9 95.0487 127.56 94.0881 127.555ZM110.131 122.344H107.559V120.755H102.285V128.197H107.559V126.438H110.131V131.061H111.325V119.664H110.131V122.344ZM103.479 127.237V121.702H106.383V127.237H103.479ZM107.559 123.327H110.131V125.463H107.559V123.327ZM124.94 119.664H123.719V126.384H124.94V123.538H126.574V122.541H124.94V119.664ZM122.602 124.202C121.165 124.498 119.904 124.57 117.659 124.579V121.482H121.542V120.499H116.47V125.558H117.372C119.832 125.558 121.192 125.499 122.718 125.185L122.602 124.202ZM121.25 126.595C118.907 126.599 117.435 127.416 117.435 128.803C117.435 130.208 118.907 131.021 121.25 131.021C123.576 131.021 125.03 130.208 125.03 128.803C125.03 127.416 123.576 126.599 121.25 126.595ZM121.25 130.056C119.607 130.056 118.62 129.593 118.62 128.803C118.62 128.018 119.607 127.564 121.25 127.573C122.866 127.564 123.863 128.018 123.863 128.803C123.863 129.593 122.866 130.056 121.25 130.056ZM135.323 119.673V128.004H136.531V119.673H135.323ZM130.623 123.506C131.13 124.741 132.1 125.706 133.411 126.186L134.03 125.226C132.279 124.62 131.22 123.089 131.229 121.428V120.306H129.995V121.428C129.995 123.147 128.94 124.781 127.158 125.441L127.804 126.388C129.137 125.881 130.12 124.826 130.623 123.506ZM130.3 127.223H129.088V130.805H136.863V129.818H130.3V127.223ZM146.41 119.664V131.061H147.622V119.664H146.41ZM141.531 120.517C139.816 120.521 138.591 122.07 138.591 124.507C138.591 126.958 139.816 128.507 141.531 128.507C143.228 128.507 144.467 126.958 144.467 124.507C144.467 122.07 143.228 120.521 141.531 120.517ZM141.531 121.594C142.581 121.603 143.3 122.716 143.3 124.507C143.3 126.312 142.581 127.425 141.531 127.425C140.48 127.425 139.753 126.312 139.753 124.507C139.753 122.716 140.48 121.603 141.531 121.594ZM52.2071 141.205V138.664H50.9996V144.737H52.2071V142.21H53.8546V141.205H52.2071ZM49.8594 142.856C48.378 143.166 47.0897 143.247 44.9395 143.251V140.325H48.8224V139.346H43.7499V144.203H44.6522C47.0314 144.212 48.4229 144.136 49.9986 143.822L49.8594 142.856ZM45.4153 147.924H47.8843V145.249H44.2168V146.156H46.7216V147.067H44.2437V149.895H44.8677C46.2503 149.895 47.0942 149.891 48.2164 149.689L48.1177 148.773C47.1885 148.926 46.4568 148.957 45.4153 148.966V147.924ZM52.2071 149.895V145.249H48.5531V149.895H52.2071ZM51.1522 146.156V148.988H49.6125V146.156H51.1522ZM62.3743 140.872C62.3653 142.241 62.3653 143.853 61.9299 146.053L63.1419 146.187C63.5728 143.853 63.5728 142.282 63.5773 140.872V139.759H55.4658V140.738H62.3743V140.872ZM59.5103 143.494H58.3163V147.507H54.375V148.504H64.7444V147.507H59.5103V143.494ZM76.7524 138.673V144.984H77.9599V138.673H76.7524ZM72.0525 142.093C72.5732 143.247 73.5742 144.14 74.9074 144.571L75.4955 143.62C73.7448 143.081 72.6495 141.694 72.6585 140.19V139.081H71.424V140.19C71.424 141.761 70.3377 143.238 68.5601 143.822L69.1571 144.778C70.5217 144.315 71.5407 143.332 72.0525 142.093ZM76.5279 146.578H78.0273V145.608H70.3287V146.578H71.8415V148.917H70.221V149.895H78.1395V148.917H76.5279V146.578ZM75.3339 146.578V148.917H73.0355V146.578H75.3339ZM82.7718 144.661C84.2711 144.661 85.4562 143.763 85.6896 142.439H87.9071V145.119H89.1102V138.664H87.9071V141.451H85.6761C85.4202 140.163 84.2486 139.283 82.7718 139.292C81.0615 139.283 79.8001 140.405 79.8001 141.972C79.8001 143.548 81.0615 144.661 82.7718 144.661ZM82.7718 140.302C83.8042 140.298 84.5718 140.976 84.5763 141.972C84.5718 142.96 83.8042 143.655 82.7718 143.66C81.7214 143.655 80.9493 142.96 80.9582 141.972C80.9493 140.976 81.7214 140.298 82.7718 140.302ZM87.9071 145.554H86.7265V146.165C86.7176 147.036 86.2238 148.135 85.1823 148.822C84.1499 148.189 83.6606 147.157 83.6696 146.165V145.554H82.5024V146.165C82.4979 147.278 81.7124 148.481 80.2535 148.993L80.846 149.891C81.9144 149.487 82.6685 148.728 83.077 147.835C83.4316 148.768 84.1185 149.576 85.1958 149.985C86.2462 149.549 86.933 148.706 87.2966 147.794C87.6872 148.728 88.4458 149.491 89.5635 149.891L90.1875 148.993C88.6792 148.508 87.9071 147.345 87.9071 146.165V145.554ZM95.9106 142.735H99.0125V146.964H100.216V138.673H99.0125V141.77H95.9106V142.735ZM97.2259 144.006C95.7715 144.288 94.5011 144.356 92.5978 144.36V140.545H96.6244V139.562H91.3992V145.343H92.279C94.4023 145.343 95.7715 145.267 97.3516 144.989L97.2259 144.006ZM94.0208 146.317H92.8043V149.864H100.512V148.881H94.0208V146.317ZM107.461 141.734V138.875H106.267V142.713H114.077V141.734H107.461ZM104.884 144.912H115.267V143.925H104.884V144.912ZM110.055 145.833C107.591 145.833 106.11 146.582 106.11 147.911C106.11 149.244 107.591 149.989 110.055 149.989C112.506 149.989 113.979 149.244 113.988 147.911C113.979 146.582 112.506 145.833 110.055 145.833ZM110.055 149.056C108.318 149.06 107.326 148.638 107.335 147.911C107.326 147.175 108.318 146.784 110.055 146.78C111.775 146.784 112.776 147.175 112.785 147.911C112.776 148.638 111.775 149.06 110.055 149.056ZM124.267 140.329H122.126V141.294H124.267V142.699H122.126V143.673H124.267V145.667H125.47V138.673H124.267V140.329ZM121.987 143.956C120.712 144.194 119.634 144.239 117.655 144.244V142.663H121.403V139.351H116.438V140.311H120.205V141.748H116.461V145.213H117.282C119.549 145.209 120.716 145.173 122.103 144.939L121.987 143.956ZM124.267 147.22V150.052H125.47V146.246H117.745V147.22H124.267ZM135.305 138.664V150.061H136.517V138.664H135.305ZM130.426 139.517C128.711 139.521 127.485 141.07 127.485 143.507C127.485 145.958 128.711 147.507 130.426 147.507C132.122 147.507 133.361 145.958 133.361 143.507C133.361 141.07 132.122 139.521 130.426 139.517ZM130.426 140.594C131.476 140.603 132.194 141.716 132.194 143.507C132.194 145.312 131.476 146.425 130.426 146.425C129.375 146.425 128.648 145.312 128.648 143.507C128.648 141.716 129.375 140.603 130.426 140.594ZM149.472 138.673V145.146H150.68V138.673H149.472ZM144.503 144.661C146.245 144.661 147.524 143.566 147.524 141.99C147.524 140.401 146.245 139.306 144.503 139.306C142.757 139.306 141.473 140.401 141.473 141.99C141.473 143.566 142.757 144.661 144.503 144.661ZM144.503 140.329C145.571 140.32 146.343 140.994 146.343 141.99C146.343 142.982 145.571 143.655 144.503 143.66C143.421 143.655 142.644 142.982 142.653 141.99C142.644 140.994 143.421 140.32 144.503 140.329ZM149.445 145.635H148.26V146.178C148.26 147.049 147.744 148.135 146.702 148.809C145.675 148.189 145.185 147.157 145.185 146.178V145.635H144.023V146.178C144.014 147.283 143.224 148.463 141.765 148.993L142.366 149.873C143.439 149.482 144.193 148.728 144.602 147.83C144.952 148.764 145.643 149.567 146.738 149.976C147.78 149.545 148.462 148.706 148.821 147.794C149.216 148.728 149.979 149.487 151.102 149.873L151.699 148.993C150.217 148.504 149.436 147.363 149.445 146.178V145.635ZM155.492 144.661C156.991 144.661 158.176 143.763 158.409 142.439H160.627V145.119H161.83V138.664H160.627V141.451H158.396C158.14 140.163 156.968 139.283 155.492 139.292C153.781 139.283 152.52 140.405 152.52 141.972C152.52 143.548 153.781 144.661 155.492 144.661ZM155.492 140.302C156.524 140.298 157.292 140.976 157.296 141.972C157.292 142.96 156.524 143.655 155.492 143.66C154.441 143.655 153.669 142.96 153.678 141.972C153.669 140.976 154.441 140.298 155.492 140.302ZM160.627 145.554H159.446V146.165C159.437 147.036 158.944 148.135 157.902 148.822C156.87 148.189 156.38 147.157 156.389 146.165V145.554H155.222V146.165C155.218 147.278 154.432 148.481 152.973 148.993L153.566 149.891C154.634 149.487 155.388 148.728 155.797 147.835C156.151 148.768 156.838 149.576 157.916 149.985C158.966 149.549 159.653 148.706 160.016 147.794C160.407 148.728 161.166 149.491 162.283 149.891L162.907 148.993C161.399 148.508 160.627 147.345 160.627 146.165V145.554ZM172.316 143.13V138.664H171.108V150.025H172.316V144.127H174.08V143.13H172.316ZM165.084 139.773H163.886V147.175H164.819C166.53 147.175 168.321 147.063 170.264 146.677L170.125 145.658C168.325 146.026 166.673 146.16 165.084 146.174V139.773ZM182.474 144.625C183.39 144.109 183.942 143.305 183.942 142.3C183.942 140.509 182.182 139.333 179.736 139.324C177.298 139.333 175.543 140.509 175.543 142.3C175.543 143.319 176.113 144.136 177.051 144.648V147.624H174.56V148.62H184.97V147.624H182.474V144.625ZM179.736 140.298C181.509 140.289 182.766 141.07 182.766 142.3C182.766 143.516 181.509 144.311 179.736 144.311C177.954 144.311 176.715 143.516 176.715 142.3C176.715 141.07 177.954 140.289 179.736 140.298ZM178.236 145.092C178.694 145.195 179.197 145.254 179.736 145.254C180.279 145.254 180.791 145.195 181.257 145.087V147.624H178.236V145.092ZM188.83 146.313V146.232C188.844 145.2 189.14 144.737 189.903 144.275C190.711 143.781 191.2 143.099 191.2 142.089C191.2 140.63 190.096 139.642 188.444 139.642C186.936 139.642 185.715 140.527 185.661 142.143H187.034C187.093 141.205 187.757 140.783 188.439 140.783C189.203 140.783 189.818 141.285 189.818 142.075C189.818 142.749 189.405 143.216 188.87 143.548C188.035 144.059 187.546 144.567 187.533 146.232V146.313H188.83ZM188.22 149.047C188.709 149.047 189.117 148.643 189.122 148.149C189.117 147.655 188.709 147.251 188.22 147.251C187.726 147.251 187.313 147.655 187.322 148.149C187.313 148.643 187.726 149.047 188.22 149.047Z" fill="#2B2B2B"/>
<path d="M48.4719 103.966L50.0679 106.052C49.8484 106.102 49.6119 106.128 49.367 106.128C47.4669 106.119 46.2256 104.701 46.2256 102.091C46.2256 99.4732 47.4669 98.0629 49.367 98.0545C51.2502 98.0629 52.5 99.4732 52.4916 102.091C52.5 103.442 52.1622 104.481 51.5795 105.157L50.6506 103.966H48.4719ZM43.6415 102.091C43.6415 106.069 46.1073 108.374 49.367 108.374C50.127 108.374 50.8533 108.247 51.512 108.002L52.4916 109.218H54.873L53.1334 107.023C54.3325 105.95 55.0757 104.278 55.0757 102.091C55.0757 98.0967 52.6014 95.8082 49.367 95.8082C46.1073 95.8082 43.6415 98.0967 43.6415 102.091ZM57.299 108.357C58.0506 108.357 58.7008 107.724 58.7008 106.938C58.7008 106.161 58.0506 105.528 57.299 105.537C56.5052 105.528 55.8634 106.161 55.8803 106.938C55.8634 107.724 56.5052 108.357 57.299 108.357Z" fill="#FF6262"/>
<circle cx="275.5" cy="171.5" r="24.5" fill="#FF6262"/>
<mask id="mask3_2721_22804" style="mask-type:alpha" maskUnits="userSpaceOnUse" x="271" y="157" width="19" height="20">
<rect x="282.17" y="157.47" width="10.7868" height="16.1814" rx="5.39341" transform="rotate(45 282.17 157.47)" stroke="black" stroke-width="3.59884"/>
</mask>
<g mask="url(#mask3_2721_22804)">
<path fill-rule="evenodd" clip-rule="evenodd" d="M296.644 165.582L284.078 153.016L273.588 163.506L278.676 168.595L273.274 173.997L280.753 181.477L286.157 176.073L286.155 176.071L296.644 165.582Z" fill="white"/>
</g>
<mask id="mask4_2721_22804" style="mask-type:alpha" maskUnits="userSpaceOnUse" x="262" y="166" width="19" height="20">
<rect x="269.455" y="185.439" width="10.7868" height="16.1814" rx="5.39341" transform="rotate(-135 269.455 185.439)" stroke="black" stroke-width="3.59884"/>
</mask>
<g mask="url(#mask4_2721_22804)">
<path fill-rule="evenodd" clip-rule="evenodd" d="M254.983 177.326L267.549 189.891L278.039 179.401L265.473 166.836L254.983 177.326ZM265.474 166.834L272.953 174.314L278.357 168.91L270.878 161.43L265.474 166.834Z" fill="white"/>
</g>
</g>
<defs>
<filter id="filter0_d_2721_22804" x="33.0513" y="188.231" width="518.897" height="272.897" filterUnits="userSpaceOnUse" color-interpolation-filters="sRGB">
<feFlood flood-opacity="0" result="BackgroundImageFix"/>
<feColorMatrix in="SourceAlpha" type="matrix" values="0 0 0 0 0 0 0 0 0 0 0 0 0 0 0 0 0 0 127 0" result="hardAlpha"/>
<feOffset dy="21.1795"/>
<feGaussianBlur stdDeviation="26.4744"/>
<feComposite in2="hardAlpha" operator="out"/>
<feColorMatrix type="matrix" values="0 0 0 0 0.343333 0 0 0 0 0.387967 0 0 0 0 0.429167 0 0 0 0.12 0"/>
<feBlend mode="normal" in2="BackgroundImageFix" result="effect1_dropShadow_2721_22804"/>
<feBlend mode="normal" in="SourceGraphic" in2="effect1_dropShadow_2721_22804" result="shape"/>
</filter>
<filter id="filter1_d_2721_22804" x="-29" y="48" width="299" height="196" filterUnits="userSpaceOnUse" color-interpolation-filters="sRGB">
<feFlood flood-opacity="0" result="BackgroundImageFix"/>
<feColorMatrix in="SourceAlpha" type="matrix" values="0 0 0 0 0 0 0 0 0 0 0 0 0 0 0 0 0 0 127 0" result="hardAlpha"/>
<feOffset dy="20"/>
<feGaussianBlur stdDeviation="25"/>
<feComposite in2="hardAlpha" operator="out"/>
<feColorMatrix type="matrix" values="0 0 0 0 0.343333 0 0 0 0 0.387967 0 0 0 0 0.429167 0 0 0 0.12 0"/>
<feBlend mode="normal" in2="BackgroundImageFix" result="effect1_dropShadow_2721_22804"/>
<feBlend mode="normal" in="SourceGraphic" in2="effect1_dropShadow_2721_22804" result="shape"/>
</filter>
<linearGradient id="paint0_linear_2721_22804" x1="195" y1="12" x2="195" y2="419.517" gradientUnits="userSpaceOnUse">
<stop stop-color="#2B2B2B" stop-opacity="0"/>
<stop offset="1" stop-color="#2B2B2B"/>
</linearGradient>
<linearGradient id="paint1_linear_2721_22804" x1="243.447" y1="78.6674" x2="243.447" y2="94.5685" gradientUnits="userSpaceOnUse">
<stop stop-color="white" stop-opacity="0.2"/>
<stop offset="1" stop-color="white" stop-opacity="0"/>
</linearGradient>
</defs>
</svg>
