<svg width="44" height="44" viewBox="0 0 44 44" fill="none" xmlns="http://www.w3.org/2000/svg">
<path d="M6.6709 16.7566C6.6709 14.4126 8.57105 12.5125 10.915 12.5125H25.3717C27.7157 12.5125 29.6158 14.4126 29.6158 16.7566C29.6158 19.1005 27.7157 21.0007 25.3717 21.0007H10.915C8.57105 21.0007 6.6709 19.1005 6.6709 16.7566Z" fill="#FF6262"/>
<path d="M17.7026 27.6828C17.7026 25.3389 19.6028 23.4387 21.9468 23.4387H33.756C36.0999 23.4387 38.0001 25.3389 38.0001 27.6828C38.0001 30.0268 36.0999 31.927 33.756 31.927H21.9468C19.6028 31.927 17.7026 30.0268 17.7026 27.6828Z" fill="black"/>
<path d="M7.1123 27.6828C7.1123 25.3389 9.01246 23.4387 11.3564 23.4387H11.6932C14.0371 23.4387 15.9373 25.3389 15.9373 27.6828C15.9373 30.0268 14.0371 31.927 11.6932 31.927H11.3564C9.01246 31.927 7.1123 30.0268 7.1123 27.6828Z" fill="#FF6262"/>
</svg>
