<svg width="152" height="147" viewBox="0 0 152 147" fill="none" xmlns="http://www.w3.org/2000/svg">
<path d="M5.54492 104.371C2.85938 104.371 0.945312 106.793 0.955078 110.602C0.945312 114.439 2.85938 116.852 5.54492 116.852C8.20117 116.852 10.1152 114.439 10.1348 110.602C10.1152 106.793 8.20117 104.371 5.54492 104.371ZM3.04492 110.602C3.03516 107.906 4.06055 106.324 5.54492 106.324C7.03906 106.324 8.03516 107.906 8.04492 110.602C8.03516 113.316 7.03906 114.889 5.54492 114.898C4.06055 114.889 3.03516 113.316 3.04492 110.602ZM12.459 120.738H14.627V111.695H17.3418V109.859H14.627V103.082H12.459V120.738ZM24.5832 106.148V105.934H28.2941V104.195H18.5871V105.934H22.3957V106.148C22.3762 108.463 20.8625 110.758 18.0207 111.715L19.134 113.395C21.2238 112.691 22.7277 111.236 23.5187 109.41C24.3293 111.09 25.7844 112.418 27.7863 113.062L28.8996 111.383C26.0871 110.504 24.5832 108.326 24.5832 106.148ZM20.5402 116.305H30.4035V120.738H32.591V114.547H20.5402V116.305ZM30.4035 113.727H32.591V103.082H30.4035V113.727ZM53.441 103.082H51.273V112.516H53.441V108.805H55.902V107.008H53.441V103.082ZM40.2574 112.047H41.6832C45.5406 112.037 47.5914 111.939 49.9059 111.461L49.6715 109.703C47.5719 110.162 45.7262 110.26 42.4059 110.27V105.934H48.109V104.176H40.2574V112.047ZM41.9957 120.484H53.441V113.395H51.273V115.211H44.1637V113.395H41.9957V120.484ZM44.1637 118.727V116.93H51.273V118.727H44.1637ZM71.3855 103.102H69.2176V106.148H65.6629V104.254H63.5145V107.105H59.5691V104.254H57.4012V113.258H65.6629V111.695H69.2176V116.129H71.3855V103.102ZM59.5691 111.539V108.785H63.5145V111.539H59.5691ZM59.7449 120.387H71.7762V118.629H61.952V114.84H59.7449V120.387ZM65.6629 109.938V107.906H69.2176V109.938H65.6629ZM88.373 103.082H86.1855V120.758H88.373V103.082ZM74.252 110.602C74.2422 114.439 76.1855 116.852 78.8613 116.852C81.5078 116.852 83.4609 114.439 83.4707 110.602C83.4609 106.793 81.5078 104.371 78.8613 104.371C76.1855 104.371 74.2422 106.793 74.252 110.602ZM76.3418 110.602C76.3418 107.906 77.3672 106.324 78.8613 106.324C80.3457 106.324 81.3613 107.906 81.3613 110.602C81.3613 113.316 80.3457 114.889 78.8613 114.898C77.3672 114.889 76.3418 113.316 76.3418 110.602ZM99.3207 113.414H97.2895V120.523H103.657V119.127L104.692 120.66C106.157 120.074 107.162 118.99 107.748 117.691C108.305 119.029 109.301 120.094 110.864 120.66L111.977 119.039C109.799 118.297 108.842 116.51 108.852 114.684V113.277H106.684V114.684C106.684 116.373 105.737 118.141 103.657 119.02V113.414H101.645V115.309H99.3207V113.414ZM95.5512 107.906C95.5512 110.357 97.5141 112.047 100.219 112.047C102.514 112.047 104.321 110.748 104.75 108.785H107.934V112.438H110.102V103.082H107.934V106.988H104.741C104.291 105.074 102.495 103.795 100.219 103.805C97.5141 103.795 95.5512 105.494 95.5512 107.906ZM97.6215 107.906C97.6215 106.51 98.6957 105.592 100.219 105.602C101.704 105.592 102.768 106.51 102.778 107.906C102.768 109.332 101.704 110.27 100.219 110.27C98.6957 110.27 97.6215 109.332 97.6215 107.906ZM99.3207 118.863V116.93H101.645V118.863H99.3207ZM117.226 104.371C114.57 104.371 112.685 106.793 112.695 110.602C112.685 114.439 114.57 116.852 117.226 116.852C119.677 116.852 121.474 114.752 121.709 111.344H125.058V120.758H127.207V103.082H125.058V109.586H121.689C121.377 106.363 119.609 104.371 117.226 104.371ZM114.785 110.602C114.775 107.906 115.771 106.324 117.226 106.324C118.691 106.324 119.677 107.906 119.687 110.602C119.677 113.316 118.691 114.889 117.226 114.898C115.771 114.889 114.775 113.316 114.785 110.602ZM145.62 116.812H141.909V112.301C143.276 111.49 144.106 110.25 144.096 108.707C144.106 105.895 141.333 104.039 137.514 104.039C133.716 104.039 130.962 105.895 130.971 108.707C130.962 110.27 131.811 111.539 133.218 112.35V116.812H129.487V118.59H145.62V116.812ZM133.1 108.707C133.091 106.871 134.878 105.748 137.514 105.758C140.141 105.748 141.968 106.871 141.968 108.707C141.968 110.514 140.141 111.666 137.514 111.656C134.878 111.666 133.091 110.514 133.1 108.707ZM135.366 116.812V113.141C136.03 113.277 136.753 113.355 137.514 113.355C138.296 113.355 139.028 113.277 139.702 113.131V116.812H135.366ZM150.205 104.859H147.549L147.783 114.84H149.99L150.205 104.859ZM147.373 117.633C147.363 118.473 148.057 119.156 148.896 119.156C149.707 119.156 150.4 118.473 150.4 117.633C150.4 116.812 149.707 116.139 148.896 116.129C148.057 116.139 147.363 116.812 147.373 117.633Z" fill="#BEBEBE"/>
<path d="M18.3064 133.179H17.1639V141.191H18.3064V133.179ZM8.21367 134.966H13.0184V136.665H8.24297V140.386H9.29765C11.7 140.378 13.4798 140.32 15.6697 139.961L15.5379 139.009C13.4212 139.353 11.6853 139.419 9.35625 139.419V137.573H14.1609V133.999H8.21367V134.966ZM9.59062 143.813C9.5833 145.3 11.2459 146.157 13.9852 146.157C16.7244 146.157 18.3943 145.3 18.3943 143.813C18.3943 142.319 16.7244 141.455 13.9852 141.455C11.2459 141.455 9.5833 142.319 9.59062 143.813ZM10.7186 143.813C10.7259 142.92 11.9563 142.378 13.9852 142.378C16.0066 142.378 17.2444 142.92 17.2371 143.813C17.2444 144.707 16.0066 145.242 13.9852 145.234C11.9563 145.242 10.7259 144.707 10.7186 143.813ZM30.7541 134.497H21.8039V135.464H29.6408V136.108C29.6408 136.775 29.6335 137.441 29.6115 138.13L21.4523 138.467L21.6135 139.419L29.5603 138.987C29.487 139.998 29.3478 141.082 29.0549 142.334L30.2121 142.437C30.7614 139.8 30.7614 138.027 30.7541 136.108V134.497ZM20.3684 144.355H32.2336V143.389H20.3684V144.355ZM45.0914 139.214H33.1676V140.122H45.0914V139.214ZM34.6031 142.026H42.4547V143.14H34.6178V146.011H44.0221V145.176H35.775V143.931H43.5973V141.162H34.6031V142.026ZM34.6764 134.395H42.3961V135.464H34.7203V138.232H43.7877V137.397H35.8629V136.255H43.5533V133.56H34.6764V134.395ZM55.4994 141.396C52.7089 141.396 50.9364 142.275 50.9437 143.784C50.9364 145.278 52.7089 146.157 55.4994 146.157C58.2899 146.157 60.0624 145.278 60.0697 143.784C60.0624 142.275 58.2899 141.396 55.4994 141.396ZM49.6254 140.181H61.476V139.243H55.6605V136.724H54.5326V139.243H49.6254V140.181ZM51.0316 134.775H58.8246V134.937C58.8246 135.955 58.8246 136.921 58.473 138.262L59.601 138.394C59.9599 137.046 59.9599 135.991 59.9672 134.937V133.838H51.0316V134.775ZM52.0863 143.784C52.079 142.854 53.4267 142.283 55.4994 142.275C57.5795 142.283 58.9125 142.854 58.9271 143.784C58.9125 144.692 57.5795 145.249 55.4994 145.249C53.4267 145.249 52.079 144.692 52.0863 143.784ZM74.3338 140.591H62.41V141.543H65.5008V146.187H66.6873V141.543H70.0271V146.187H71.1844V141.543H74.3338V140.591ZM63.7576 136.533C63.7649 138.269 65.6033 139.353 68.3426 139.346C71.0745 139.353 72.9275 138.269 72.9275 136.533C72.9275 134.797 71.0745 133.699 68.3426 133.691C65.6033 133.699 63.7649 134.797 63.7576 136.533ZM64.9441 136.533C64.9295 135.376 66.3138 134.629 68.3426 134.629C70.3714 134.629 71.7483 135.376 71.7557 136.533C71.7483 137.683 70.3714 138.423 68.3426 138.423C66.3138 138.423 64.9295 137.683 64.9441 136.533ZM85.3166 133.164H84.174V146.187H85.3166V139.492H87.4992V138.54H85.3166V133.164ZM75.1652 136.211H82.9143V135.259H79.6623V133.325H78.5197V135.259H75.1652V136.211ZM75.9123 140.283C75.905 142.048 77.2526 143.271 79.1057 143.271C80.944 143.271 82.2844 142.048 82.299 140.283C82.2844 138.525 80.944 137.295 79.1057 137.295C77.2526 137.295 75.905 138.525 75.9123 140.283ZM77.0109 140.283C77.0036 139.104 77.8898 138.254 79.1057 138.262C80.3068 138.254 81.1857 139.104 81.2004 140.283C81.1857 141.47 80.3068 142.305 79.1057 142.29C77.8898 142.305 77.0036 141.47 77.0109 140.283ZM92.6812 136.665V134.292H91.5387V136.665C91.524 139.133 89.92 141.624 87.9791 142.51L88.7115 143.477C90.235 142.708 91.5167 141.06 92.1173 139.097C92.7398 140.95 94.0216 142.495 95.5084 143.213L96.2115 142.305C94.2926 141.433 92.6739 139.045 92.6812 136.665ZM97.6324 146.216H98.7896V133.164H97.6324V146.216ZM106.638 134.131H101.555V135.083H105.451C105.217 137.288 103.671 139.016 100.998 140.107L101.599 140.957C103.393 140.188 104.733 139.141 105.583 137.837H108.205V140.503H109.304V133.457H108.205V136.885H106.096C106.455 136.05 106.638 135.134 106.638 134.131ZM101.643 145.293L102.229 146.143C103.466 145.667 104.367 144.751 104.836 143.689C105.217 144.788 106.008 145.762 107.282 146.26C108.498 145.74 109.289 144.729 109.685 143.667C110.131 144.766 111.047 145.681 112.351 146.143L112.922 145.293C111.245 144.744 110.256 143.374 110.256 142.026V141.147H109.143V142.026C109.135 143.015 108.498 144.341 107.246 145.125C106.015 144.414 105.393 143.198 105.407 142.026V141.147H104.309V142.026C104.309 143.279 103.283 144.7 101.643 145.293ZM110.827 140.708H111.926V133.179H110.827V140.708ZM117.181 134.175C115.255 134.182 113.907 135.947 113.914 138.716C113.907 141.492 115.255 143.25 117.181 143.242C118.997 143.25 120.301 141.653 120.426 139.097H123.333V146.216H124.476V133.164H123.333V138.145H120.411C120.235 135.706 118.954 134.182 117.181 134.175ZM115.013 138.716C115.02 136.599 115.899 135.208 117.181 135.2C118.455 135.208 119.349 136.599 119.349 138.716C119.349 140.833 118.455 142.224 117.181 142.217C115.899 142.224 115.02 140.833 115.013 138.716ZM138.418 143.55H135.459V140.005C136.535 139.426 137.187 138.503 137.187 137.339C137.187 135.325 135.21 133.999 132.427 133.984C129.643 133.999 127.666 135.325 127.666 137.339C127.666 138.525 128.34 139.463 129.453 140.042V143.55H126.494V144.517H138.418V143.55ZM128.779 137.339C128.772 135.881 130.288 134.922 132.427 134.937C134.543 134.922 136.074 135.881 136.074 137.339C136.074 138.796 134.543 139.771 132.427 139.771C130.288 139.771 128.772 138.796 128.779 137.339ZM130.581 143.55V140.459C131.137 140.605 131.76 140.679 132.427 140.679C133.108 140.679 133.738 140.598 134.302 140.452V143.55H130.581ZM141.388 141.938V142.012H142.648V141.938C142.677 140.671 143.007 140.107 143.922 139.551C144.83 138.994 145.372 138.196 145.372 137.046C145.372 135.427 144.178 134.248 142.34 134.248C140.663 134.248 139.322 135.281 139.249 137.061H140.582C140.663 135.852 141.505 135.354 142.34 135.361C143.307 135.354 144.083 135.991 144.083 136.987C144.083 137.808 143.622 138.394 143.014 138.76C142.003 139.375 141.403 139.976 141.388 141.938ZM141.124 144.136C141.11 144.656 141.549 145.081 142.062 145.088C142.582 145.081 143.007 144.656 142.999 144.136C143.007 143.623 142.582 143.198 142.062 143.198C141.549 143.198 141.11 143.623 141.124 144.136Z" fill="#BEBEBE"/>
<path d="M35 14C35 6.26801 41.268 0 49 0H105C112.732 0 119 6.26801 119 14V58C119 65.732 112.732 72 105 72H49C41.268 72 35 65.732 35 58V14Z" fill="#F5F5F5"/>
<path d="M78.5664 14.3333C76.9096 14.3333 75.5664 15.6764 75.5664 17.3333C75.5664 18.9901 76.9096 20.3333 78.5664 20.3333V14.3333ZM102.566 20.3333C104.223 20.3333 105.566 18.9901 105.566 17.3333C105.566 15.6764 104.223 14.3333 102.566 14.3333V20.3333ZM78.5664 20.3333H102.566V14.3333H78.5664V20.3333Z" fill="#E9E9E9"/>
<path d="M78.5664 24.5339C76.9096 24.5339 75.5664 25.8771 75.5664 27.5339C75.5664 29.1908 76.9096 30.5339 78.5664 30.5339V24.5339ZM102.566 30.5339C104.223 30.5339 105.566 29.1908 105.566 27.5339C105.566 25.8771 104.223 24.5339 102.566 24.5339V30.5339ZM78.5664 30.5339H102.566V24.5339H78.5664V30.5339Z" fill="#E9E9E9"/>
<rect x="47.0664" y="12.4998" width="21.6667" height="21.6667" rx="6.5" fill="#E9E9E9" stroke="#E9E9E9"/>
<rect x="47.0664" y="40.5016" width="60.3333" height="21.6667" rx="7.5" fill="#E9E9E9" stroke="#E9E9E9"/>
</svg>
