
<svg width="86" height="86" viewBox="0 0 86 86" fill="none" xmlns="http://www.w3.org/2000/svg">
<circle opacity="0.2" cx="43" cy="43" r="43" fill="white"/>
<rect x="15" y="22" width="55.9091" height="41" rx="6.38961" fill="white"/>
<rect x="20.6802" y="47.1538" width="15.8775" height="2.7375" rx="1.36875" fill="#DEDEDE"/>
<rect x="20.6802" y="41.1313" width="25.7325" height="2.7375" rx="1.36875" fill="#DEDEDE"/>
<rect x="20.6802" y="35.6562" width="35.5876" height="2.7375" rx="1.36875" fill="#DEDEDE"/>
<path d="M15 28.3896C15 24.8607 17.8607 22 21.3896 22H64.5195C68.0484 22 70.9091 24.8607 70.9091 28.3896V30.5195H15V28.3896Z" fill="#DEDEDE"/>
<circle cx="68.1445" cy="49.7231" r="9.68673" fill="#606060"/>
<mask id="mask0_4169_66617" style="mask-type:alpha" maskUnits="userSpaceOnUse" x="66" y="44" width="8" height="8">
<rect x="70.7825" y="43.9229" width="4.62282" height="6.75573" rx="2.31141" transform="rotate(45 70.7825 43.9229)" stroke="black" stroke-width="1.06494"/>
</mask>
<g mask="url(#mask0_4169_66617)">
<path fill-rule="evenodd" clip-rule="evenodd" d="M76.5045 47.3835L71.5364 42.4153L67.3888 46.5628L72.357 51.531L76.5045 47.3835ZM72.3572 51.5315L69.4 48.5742L67.2634 50.7108L70.2206 53.6681L72.3572 51.5315Z" fill="white"/>
</g>
<mask id="mask1_4169_66617" style="mask-type:alpha" maskUnits="userSpaceOnUse" x="62" y="47" width="9" height="9">
<rect x="65.7554" y="55.4875" width="4.62282" height="6.75573" rx="2.31141" transform="rotate(-135 65.7554 55.4875)" stroke="black" stroke-width="1.06494"/>
</mask>
<g mask="url(#mask1_4169_66617)">
<path fill-rule="evenodd" clip-rule="evenodd" d="M60.0331 52.0265L65.0012 56.9946L69.1488 52.8471L64.1806 47.8789L60.0331 52.0265ZM64.1804 47.8784L67.1376 50.8357L69.2742 48.6991L66.317 45.7418L64.1804 47.8784Z" fill="white"/>
</g>
<circle cx="21.7751" cy="26.3488" r="1.6425" fill="#BEBEBE"/>
<circle cx="26.7028" cy="26.3488" r="1.6425" fill="#BEBEBE"/>
<circle cx="31.6301" cy="26.3488" r="1.6425" fill="#BEBEBE"/>
</svg>