<svg width="26" height="26" viewBox="0 0 26 26" fill="none" xmlns="http://www.w3.org/2000/svg">
<mask id="path-1-inside-1_3939_59179" fill="white">
<path d="M21.9809 19.8142L21.462 19.2953C20.8994 18.7327 20.5833 17.9697 20.5833 17.174V11.9167C20.5833 8.73263 18.6154 6.00722 15.8354 4.88908C15.1491 4.61306 14.625 3.98968 14.625 3.25C14.625 2.35083 13.8992 1.625 13 1.625C12.1008 1.625 11.375 2.35083 11.375 3.25C11.375 3.98968 10.8509 4.61306 10.1646 4.88908C7.38465 6.00722 5.41668 8.73263 5.41668 11.9167V17.174C5.41668 17.9697 5.10061 18.7327 4.538 19.2953L4.01918 19.8142C3.33668 20.4967 3.81335 21.6667 4.77751 21.6667H21.2117C22.1867 21.6667 22.6634 20.4967 21.9809 19.8142Z"/>
</mask>
<path d="M21.9809 19.8142L20.9909 20.8041L21.9809 19.8142ZM4.01918 19.8142L5.00913 20.8041H5.00913L4.01918 19.8142ZM4.538 19.2953L3.54805 18.3054L4.538 19.2953ZM22.9708 18.8242L22.452 18.3054L20.4721 20.2853L20.9909 20.8041L22.9708 18.8242ZM21.9833 17.174V11.9167H19.1833V17.174H21.9833ZM21.9833 11.9167C21.9833 8.14134 19.6494 4.91413 16.3578 3.5902L15.313 6.18795C17.5814 7.10032 19.1833 9.32391 19.1833 11.9167H21.9833ZM16.025 3.25C16.025 1.57763 14.6724 0.225 13 0.225V3.025C13.126 3.025 13.225 3.12403 13.225 3.25H16.025ZM13 0.225C11.3277 0.225 9.97502 1.57763 9.97502 3.25H12.775C12.775 3.12403 12.874 3.025 13 3.025V0.225ZM9.64221 3.5902C6.35061 4.91413 4.01668 8.14134 4.01668 11.9167H6.81668C6.81668 9.32391 8.41868 7.10032 10.6871 6.18795L9.64221 3.5902ZM4.01668 11.9167V17.174H6.81668V11.9167H4.01668ZM3.54805 18.3054L3.02923 18.8242L5.00913 20.8041L5.52795 20.2853L3.54805 18.3054ZM3.02923 18.8242C1.48135 20.3721 2.5427 23.0667 4.77751 23.0667V20.2667C4.82991 20.2667 4.90189 20.2856 4.96646 20.3314C5.02454 20.3726 5.05867 20.4223 5.07684 20.4668C5.09499 20.5113 5.10457 20.5683 5.09293 20.6344C5.07998 20.708 5.04445 20.7688 5.00913 20.8041L3.02923 18.8242ZM4.77751 23.0667H21.2117V20.2667H4.77751V23.0667ZM21.2117 23.0667C23.4424 23.0667 24.5293 20.3827 22.9708 18.8242L20.9909 20.8041C20.7974 20.6106 20.931 20.2667 21.2117 20.2667V23.0667ZM4.01668 17.174C4.01668 17.5984 3.84811 18.0053 3.54805 18.3054L5.52795 20.2853C6.35311 19.4601 6.81668 18.341 6.81668 17.174H4.01668ZM9.97502 3.25C9.97502 3.27812 9.96716 3.32503 9.91611 3.39162C9.86108 3.4634 9.76701 3.54001 9.64221 3.5902L10.6871 6.18795C11.7729 5.75121 12.775 4.69001 12.775 3.25H9.97502ZM16.3578 3.5902C16.233 3.54001 16.1389 3.4634 16.0839 3.39162C16.0329 3.32503 16.025 3.27812 16.025 3.25H13.225C13.225 4.69001 14.2271 5.75121 15.313 6.18795L16.3578 3.5902ZM22.452 18.3054C22.1519 18.0053 21.9833 17.5984 21.9833 17.174H19.1833C19.1833 18.341 19.6469 19.4601 20.4721 20.2853L22.452 18.3054Z" fill="#606060" mask="url(#path-1-inside-1_3939_59179)"/>
<path d="M15.1666 21.6667C15.1666 22.8643 14.1976 23.8333 12.9999 23.8333C11.8023 23.8333 10.8333 22.8643 10.8333 21.6667H15.1666Z" fill="#606060"/>
</svg>
