<svg width="32" height="40" viewBox="0 0 32 40" fill="none" xmlns="http://www.w3.org/2000/svg">
<path d="M14.0599 20.5009L18.8716 15.7408C18.9121 15.7017 18.9444 15.6542 18.9665 15.6013C18.9886 15.5484 19 15.4913 19 15.4336C19 15.3759 18.9886 15.3188 18.9665 15.2659C18.9444 15.213 18.9121 15.1655 18.8716 15.1263C18.787 15.0451 18.6763 15 18.5615 15C18.4467 15 18.336 15.0451 18.2514 15.1263L13.1285 20.1921C13.088 20.2313 13.0556 20.2789 13.0335 20.3318C13.0114 20.3848 13 20.4419 13 20.4997C13 20.5575 13.0114 20.6147 13.0335 20.6676C13.0556 20.7205 13.088 20.7681 13.1285 20.8073L18.2514 25.8731C18.3359 25.9547 18.4466 26 18.5615 26C18.6764 26 18.7871 25.9547 18.8716 25.8731C18.9121 25.8339 18.9444 25.7864 18.9665 25.7335C18.9886 25.6807 19 25.6236 19 25.5658C19 25.5081 18.9886 25.451 18.9665 25.3981C18.9444 25.3452 18.9121 25.2978 18.8716 25.2586L14.0599 20.5009Z" fill="white" stroke="#BEBEBE"/>
</svg>
