<svg width="55" height="55" viewBox="0 0 55 55" fill="none" xmlns="http://www.w3.org/2000/svg">
<circle cx="27.5" cy="27.5" r="27.5" fill="#FFF1F1"/>
<path d="M21.5 19.2308L22.61 17.4377C22.884 16.9953 23.2552 16.6327 23.6907 16.3819C24.1261 16.1311 24.6122 15.9999 25.106 16H29.894C30.3878 15.9999 30.8739 16.1311 31.3093 16.3819C31.7448 16.6327 32.116 16.9953 32.39 17.4377L33.5 19.2308H41V37H14V19.2308H21.5Z" stroke="#FF6262" stroke-width="1.75" stroke-linecap="square" stroke-linejoin="round"/>
<path d="M28 32C30.7614 32 33 29.7614 33 27C33 24.2386 30.7614 22 28 22C25.2386 22 23 24.2386 23 27C23 29.7614 25.2386 32 28 32Z" stroke="#FF6262" stroke-width="1.75" stroke-linecap="square" stroke-linejoin="round"/>
</svg>
