<svg width="33" height="33" viewBox="0 0 33 33" fill="none" xmlns="http://www.w3.org/2000/svg">
<circle cx="16.4837" cy="16.4837" r="16.1444" fill="#FF6262"/>
<path d="M13.1297 12.4868L13.7814 11.4342C13.9423 11.1745 14.1602 10.9616 14.4158 10.8143C14.6714 10.6671 14.9568 10.5901 15.2467 10.5901H18.0576C18.3475 10.5901 18.6329 10.6671 18.8885 10.8143C19.1441 10.9616 19.3621 11.1745 19.5229 11.4342L20.1746 12.4868H24.5776V22.9186H8.72672V12.4868H13.1297Z" stroke="white" stroke-width="1.58036" stroke-linecap="square" stroke-linejoin="round"/>
<path d="M16.9456 19.9838C18.5668 19.9838 19.881 18.6696 19.881 17.0484C19.881 15.4273 18.5668 14.1131 16.9456 14.1131C15.3245 14.1131 14.0103 15.4273 14.0103 17.0484C14.0103 18.6696 15.3245 19.9838 16.9456 19.9838Z" stroke="white" stroke-width="1.58036" stroke-linecap="square" stroke-linejoin="round"/>
</svg>
