<svg width="13" height="13" viewBox="0 0 13 13" fill="none" xmlns="http://www.w3.org/2000/svg">
<g clip-path="url(#clip0_1506_6935)">
<path d="M6.65779 6.49708L9.67999 3.47088C9.7056 3.44528 9.72591 3.41488 9.73976 3.38143C9.75362 3.34797 9.76075 3.31212 9.76075 3.27591C9.76075 3.2397 9.75362 3.20384 9.73976 3.17039C9.72591 3.13694 9.7056 3.10654 9.67999 3.08094C9.65439 3.05533 9.62399 3.03502 9.59054 3.02116C9.55708 3.00731 9.52123 3.00018 9.48502 3.00018C9.44881 3.00018 9.41295 3.00731 9.3795 3.02116C9.34605 3.03502 9.31565 3.05533 9.29005 3.08094L6.26584 6.10464L3.24164 3.08094C3.21604 3.0553 3.18563 3.03496 3.15217 3.02107C3.1187 3.00718 3.08283 3.00002 3.04659 3C3.01036 2.99998 2.97448 3.00709 2.94099 3.02093C2.90751 3.03478 2.87708 3.05508 2.85145 3.08069C2.82581 3.10629 2.80546 3.13669 2.79158 3.17016C2.77769 3.20363 2.77053 3.2395 2.77051 3.27573C2.77048 3.31197 2.7776 3.34785 2.79144 3.38133C2.80529 3.41482 2.82559 3.44525 2.8512 3.47088L5.8764 6.49608L2.85269 9.52229C2.80417 9.57469 2.77785 9.64386 2.77924 9.71527C2.78064 9.78667 2.80965 9.85476 2.86018 9.90523C2.91072 9.9557 2.97884 9.98462 3.05025 9.98593C3.12166 9.98724 3.19079 9.96082 3.24314 9.91223L6.26734 6.88803L9.29204 9.91173C9.31731 9.93895 9.34781 9.9608 9.38171 9.97595C9.41561 9.99111 9.45223 9.99928 9.48936 9.99995C9.52649 10.0006 9.56338 9.99381 9.59781 9.97991C9.63225 9.966 9.66353 9.94528 9.68977 9.91901C9.71601 9.89273 9.73669 9.86143 9.75055 9.82697C9.76442 9.79252 9.77119 9.75562 9.77046 9.71849C9.76974 9.68136 9.76153 9.64476 9.74632 9.61087C9.73112 9.57699 9.70924 9.54652 9.68199 9.52129L6.65779 6.49708Z" fill="#606060" stroke="#606060" stroke-width="0.5"/>
</g>
<defs>
<clipPath id="clip0_1506_6935">
<rect width="13" height="13" fill="white"/>
</clipPath>
</defs>
</svg>
