<svg width="13" height="13" viewBox="0 0 13 13" fill="none" xmlns="http://www.w3.org/2000/svg">
<g clip-path="url(#clip0_1026_10972)">
<path d="M6.38728 6.49708L9.40948 3.47088C9.43509 3.44528 9.4554 3.41488 9.46925 3.38143C9.48311 3.34797 9.49024 3.31212 9.49024 3.27591C9.49024 3.2397 9.48311 3.20384 9.46925 3.17039C9.4554 3.13694 9.43509 3.10654 9.40948 3.08094C9.38388 3.05533 9.35348 3.03502 9.32003 3.02116C9.28658 3.00731 9.25072 3.00018 9.21451 3.00018C9.1783 3.00018 9.14245 3.00731 9.10899 3.02116C9.07554 3.03502 9.04514 3.05533 9.01954 3.08094L5.99533 6.10464L2.97113 3.08094C2.94553 3.0553 2.91513 3.03496 2.88166 3.02107C2.84819 3.00718 2.81232 3.00002 2.77609 3C2.73985 2.99998 2.70397 3.00709 2.67049 3.02093C2.637 3.03478 2.60657 3.05508 2.58094 3.08069C2.5553 3.10629 2.53496 3.13669 2.52107 3.17016C2.50718 3.20363 2.50002 3.2395 2.5 3.27573C2.49998 3.31197 2.50709 3.34785 2.52093 3.38133C2.53478 3.41482 2.55508 3.44525 2.58069 3.47088L5.60589 6.49608L2.58219 9.52229C2.53366 9.57469 2.50734 9.64386 2.50873 9.71527C2.51013 9.78667 2.53914 9.85476 2.58968 9.90523C2.64021 9.9557 2.70833 9.98462 2.77974 9.98593C2.85115 9.98724 2.92029 9.96082 2.97263 9.91223L5.99683 6.88803L9.02153 9.91173C9.0468 9.93895 9.0773 9.9608 9.1112 9.97595C9.14511 9.99111 9.18172 9.99928 9.21885 9.99995C9.25598 10.0006 9.29287 9.99381 9.32731 9.97991C9.36174 9.966 9.39302 9.94528 9.41926 9.91901C9.44551 9.89273 9.46618 9.86143 9.48004 9.82697C9.49391 9.79252 9.50068 9.75562 9.49995 9.71849C9.49923 9.68136 9.49102 9.64476 9.47582 9.61087C9.46061 9.57699 9.43873 9.54652 9.41148 9.52129L6.38728 6.49708Z" fill="white" stroke="white" stroke-width="0.5"/>
</g>
<defs>
<clipPath id="clip0_1026_10972">
<rect width="13" height="13" fill="white"/>
</clipPath>
</defs>
</svg>
