<svg width="22" height="22" viewBox="0 0 22 22" fill="none" xmlns="http://www.w3.org/2000/svg">
<path d="M10.6719 14.5156C11.8906 14.5078 12.3672 13.6484 12.5469 13.2969H12.6484C12.7109 14.0234 13.4531 14.5781 14.4375 14.5781C16.0234 14.5781 17.2734 13.1641 17.2656 10.7344C17.2813 7.36719 14.7656 4.82812 11.0313 4.82812C7.39063 4.82812 4.79688 7.52344 4.81251 11.2188C4.8047 15.1797 7.14845 17.625 10.9688 17.625C12 17.625 12.9141 17.4844 13.7344 17.2656V16.2031C12.7813 16.4609 12.0625 16.5312 10.9688 16.5469C7.67188 16.5781 5.93751 14.3984 5.93751 11.2188C5.94532 8.3125 7.93751 5.92188 11.0313 5.90625C14.0234 5.91406 16.1563 7.83594 16.1406 10.7812C16.1328 12.4062 15.4844 13.5391 14.5156 13.5312C14.0078 13.5391 13.7578 13.2344 13.7344 12.625V8.0625H12.5469V9.01562H12.4688C12.2734 8.66406 11.8125 7.94531 10.6875 7.9375C9.12501 7.94531 7.96876 9.20312 7.96876 11.2188C7.96876 13.25 9.10157 14.5078 10.6719 14.5156ZM9.18751 11.2031C9.1797 10.0078 9.78126 9.08594 10.875 9.07812C12 9.08594 12.5547 9.9375 12.5625 11.2031C12.5547 12.5 11.9922 13.3672 10.875 13.375C9.78907 13.3672 9.1797 12.4219 9.18751 11.2031Z" fill="#E9E9E9"/>
</svg>
