<svg width="91" height="65" viewBox="0 0 91 65" fill="none" xmlns="http://www.w3.org/2000/svg">
<path d="M8 19.1265C8 12.4991 13.3726 7.12646 20 7.12646H69C75.6274 7.12646 81 12.499 81 19.1265V46.8733C81 53.5007 75.6274 58.8733 69 58.8733H20C13.3726 58.8733 8 53.5007 8 46.8733V19.1265Z" fill="#F5F5F5"/>
<path d="M17.3779 24.2214C17.3779 20.9042 20.0671 18.2151 23.3843 18.2151H51.1058C54.423 18.2151 57.1121 20.9042 57.1121 24.2214C57.1121 27.5386 54.423 30.2277 51.1058 30.2277H23.3843C20.0671 30.2277 17.3779 27.5386 17.3779 24.2214Z" fill="#E9E9E9"/>
<path d="M33.873 41.7784C33.873 38.4612 36.5622 35.772 39.8794 35.772H65.7528C69.07 35.772 71.7591 38.4612 71.7591 41.7784C71.7591 45.0956 69.07 47.7847 65.7528 47.7847H39.8794C36.5622 47.7847 33.873 45.0956 33.873 41.7784Z" fill="#E9E9E9"/>
<circle cx="23.2466" cy="41.7784" r="6.00633" fill="#E9E9E9"/>
</svg>
