<svg width="22" height="21" viewBox="0 0 22 21" fill="none" xmlns="http://www.w3.org/2000/svg">
<path d="M11 0.323242C4.9247 0.323242 0 4.14767 0 8.86684C0 11.802 1.9052 14.3883 4.8048 15.9258L3.5849 20.4072C3.56249 20.4957 3.56749 20.5889 3.59924 20.6745C3.631 20.7601 3.688 20.834 3.76269 20.8864C3.83739 20.9388 3.92624 20.9672 4.01747 20.9679C4.1087 20.9687 4.19799 20.9416 4.2735 20.8904L9.6228 17.3411C10.0738 17.3851 10.5336 17.4104 11 17.4104C17.0753 17.4104 22 13.5849 22 8.86684C22 4.14877 17.0753 0.323242 11 0.323242Z" fill="black" fill-opacity="0.9"/>
</svg>
