<svg width="24" height="24" viewBox="0 0 24 24" fill="none" xmlns="http://www.w3.org/2000/svg">
<circle cx="12" cy="12" r="12" fill="white"/>
<mask id="mask0_3851_62395" style="mask-type:alpha" maskUnits="userSpaceOnUse" x="9" y="5" width="10" height="10">
<rect x="15.2686" y="4.81475" width="5.72679" height="8.36905" rx="2.86339" transform="rotate(45 15.2686 4.81475)" stroke="black" stroke-width="1.31925"/>
</mask>
<g mask="url(#mask0_3851_62395)">
<path fill-rule="evenodd" clip-rule="evenodd" d="M22.3572 9.10163L16.2026 2.94702L11.0646 8.08502L17.2192 14.2396L22.3572 9.10163ZM17.2191 14.2401L13.5557 10.5767L10.9088 13.2235L14.5723 16.887L17.2191 14.2401Z" fill="#FF6262"/>
</g>
<mask id="mask1_3851_62395" style="mask-type:alpha" maskUnits="userSpaceOnUse" x="5" y="9" width="10" height="10">
<rect x="9.04053" y="19.1409" width="5.72679" height="8.36905" rx="2.86339" transform="rotate(-135 9.04053 19.1409)" stroke="black" stroke-width="1.31925"/>
</mask>
<g mask="url(#mask1_3851_62395)">
<path fill-rule="evenodd" clip-rule="evenodd" d="M1.95184 14.8534L8.10645 21.0081L13.2444 15.8701L7.08984 9.71545L1.95184 14.8534ZM7.0895 9.71496L10.753 13.3784L13.3998 10.7316L9.73635 7.06811L7.0895 9.71496Z" fill="#FF6262"/>
</g>
</svg>
