<svg width="28" height="28" viewBox="0 0 28 28" fill="none" xmlns="http://www.w3.org/2000/svg">
<path d="M4.99858 14.1971C4.99858 12.4197 6.4607 10.9749 8.25943 10.9749H11.4795C12.0249 10.9749 12.467 10.5328 12.467 9.98744C12.467 9.44209 12.0249 9 11.4795 9H8.25943C5.35622 9 3 11.3283 3 14.1971C3 17.0658 5.35622 19.3941 8.25943 19.3941H11.4795C12.0249 19.3941 12.467 18.952 12.467 18.4067C12.467 17.8613 12.0249 17.4192 11.4795 17.4192H8.25943C6.4607 17.4192 4.99858 15.9744 4.99858 14.1971ZM9.31131 14.1971C9.31131 14.7711 9.77667 15.2365 10.3507 15.2365H16.687C17.261 15.2365 17.7264 14.7711 17.7264 14.1971C17.7264 13.623 17.261 13.1576 16.687 13.1576H10.3507C9.77667 13.1576 9.31131 13.623 9.31131 14.1971ZM18.7783 9H15.5582C15.0128 9 14.5707 9.44209 14.5707 9.98744C14.5707 10.5328 15.0128 10.9749 15.5582 10.9749H18.7783C20.577 10.9749 22.0391 12.4197 22.0391 14.1971C22.0391 15.9744 20.577 17.4192 18.7783 17.4192H15.5582C15.0128 17.4192 14.5707 17.8613 14.5707 18.4067C14.5707 18.952 15.0128 19.3941 15.5582 19.3941H18.7783C21.6815 19.3941 24.0377 17.0658 24.0377 14.1971C24.0377 11.3283 21.6815 9 18.7783 9Z" fill="#444444"/>
</svg>
