<svg width="24" height="24" viewBox="0 0 24 24" fill="none" xmlns="http://www.w3.org/2000/svg">
<path d="M18.3887 16.8854C18.2014 16.7422 18.1106 16.5091 18.1106 16.2733V16.2733V16.2733C18.1106 16.0387 18.1989 15.804 18.386 15.6624L18.926 15.2536C19.0009 15.197 19.0217 15.0877 18.9759 15.0068L18.1772 13.6633C18.1272 13.5743 18.0232 13.546 17.9317 13.5743L17.2904 13.8249C17.0707 13.9107 16.8269 13.8733 16.6224 13.7558V13.7558C16.4094 13.6335 16.2417 13.4325 16.2063 13.1894L16.1138 12.5546C16.0971 12.4575 16.0139 12.3887 15.9141 12.3887H14.3166C14.2168 12.3887 14.1378 12.4575 14.1211 12.5546L14.0287 13.1887C13.9932 13.4322 13.8235 13.6349 13.6103 13.7577V13.7577C13.4062 13.8753 13.1645 13.9108 12.9452 13.8251L12.3032 13.5743C12.2117 13.5419 12.1077 13.5743 12.0577 13.6633L11.2632 15.0068C11.2132 15.0917 11.2299 15.197 11.3131 15.2536L11.8525 15.662C12.0399 15.8039 12.1201 16.0382 12.1201 16.2733V16.2733V16.2733C12.1201 16.508 12.0318 16.7426 11.8447 16.8842L11.3048 17.293C11.2299 17.3497 11.2091 17.459 11.2548 17.5399L12.0536 18.8833C12.1035 18.9723 12.2075 19.0007 12.299 18.9723L12.9403 18.7218C13.16 18.636 13.4038 18.6734 13.6083 18.7908V18.7908C13.8214 18.9131 13.989 19.1141 14.0245 19.3573L14.117 19.9921C14.1378 20.0892 14.2168 20.158 14.3166 20.158H15.9141C16.0139 20.158 16.0971 20.0892 16.1096 19.9921L16.2024 19.3551C16.2377 19.1133 16.4057 18.913 16.6179 18.7919V18.7919C16.8237 18.6745 17.0677 18.6364 17.2884 18.7226L17.9276 18.9723C18.0191 19.0047 18.1231 18.9723 18.173 18.8833L18.9717 17.5399C19.0217 17.4509 19.0008 17.3497 18.9218 17.293L18.3887 16.8854ZM15.1154 17.7301C14.2917 17.7301 13.6177 17.0745 13.6177 16.2733C13.6177 15.4721 14.2917 14.8166 15.1154 14.8166C15.9391 14.8166 16.613 15.4721 16.613 16.2733C16.613 17.0745 15.9391 17.7301 15.1154 17.7301Z" stroke="#434343" stroke-width="1.05347"/>
<path d="M11.3047 17.7516L11.6485 18.1507L11.6487 18.1505L11.3047 17.7516ZM11.2782 17.7797V18.3064H11.5372L11.6954 18.1013L11.2782 17.7797ZM11.8201 17.3073L12.1641 17.7062L12.1641 17.7062L11.8201 17.3073ZM11.828 15.8731L11.484 16.272L11.828 15.8731ZM11.313 15.4291L11.657 15.0302L11.6466 15.0213L11.6358 15.0129L11.313 15.4291ZM11.2631 15.148L10.7957 14.9053L10.795 14.9066L11.2631 15.148ZM12.0577 13.6182L12.5253 13.861L12.5302 13.8509L12.0577 13.6182ZM12.3031 13.5168L12.5173 13.0355L12.5087 13.0317L12.4999 13.0282L12.3031 13.5168ZM12.9104 13.787L13.1245 13.3057L13.1245 13.3057L12.9104 13.787ZM13.6371 13.7083L13.3529 13.2648L13.3529 13.2648L13.6371 13.7083ZM14.0196 13.149L14.542 13.2159L14.542 13.2159L14.0196 13.149ZM14.1211 12.3556L13.6001 12.2772L13.5986 12.2887L14.1211 12.3556ZM14.321 12.1666V12.6934H15.2915L14.7626 11.8796L14.321 12.1666ZM6.00266 16.7029L6.52801 16.7411L6.52801 16.7411L6.00266 16.7029ZM10.815 10.7593C12.5945 10.7593 14.0371 9.31671 14.0371 7.53719H12.9837C12.9837 8.7349 12.0127 9.70584 10.815 9.70584V10.7593ZM7.5929 7.53719C7.5929 9.31671 9.03549 10.7593 10.815 10.7593V9.70584C9.6173 9.70584 8.64636 8.7349 8.64636 7.53719H7.5929ZM10.815 4.31506C9.03549 4.31506 7.5929 5.75766 7.5929 7.53719H8.64636C8.64636 6.33947 9.6173 5.36853 10.815 5.36853V4.31506ZM14.0371 7.53719C14.0371 5.75766 12.5945 4.31506 10.815 4.31506V5.36853C12.0127 5.36853 12.9837 6.33947 12.9837 7.53719H14.0371ZM10.9609 17.3525C10.9228 17.3853 10.8897 17.421 10.8611 17.458L11.6954 18.1013C11.6826 18.1179 11.6671 18.1347 11.6485 18.1507L10.9609 17.3525ZM11.4762 16.9083L10.9608 17.3527L11.6487 18.1505L12.1641 17.7062L11.4762 16.9083ZM11.5934 16.5904C11.5934 16.7472 11.538 16.8551 11.4762 16.9083L12.1641 17.7062C12.512 17.4063 12.6468 16.9744 12.6468 16.5904H11.5934ZM11.484 16.272C11.5389 16.3193 11.5934 16.4209 11.5934 16.5904H12.6468C12.6468 16.2181 12.5273 15.7805 12.1719 15.4741L11.484 16.272ZM10.9691 15.8281L11.484 16.272L12.1719 15.4741L11.657 15.0302L10.9691 15.8281ZM10.795 14.9066C10.6516 15.1846 10.6695 15.5966 10.9903 15.8454L11.6358 15.0129C11.7902 15.1326 11.7748 15.305 11.7312 15.3895L10.795 14.9066ZM11.5903 13.3754L10.7957 14.9053L11.7306 15.3908L12.5251 13.8609L11.5903 13.3754ZM12.4999 13.0282C12.1425 12.8842 11.7519 13.0468 11.5852 13.3855L12.5302 13.8509C12.5009 13.9105 12.4437 13.9718 12.3586 14.0054C12.2746 14.0387 12.1837 14.0365 12.1063 14.0054L12.4999 13.0282ZM13.1245 13.3057L12.5173 13.0355L12.089 13.998L12.6963 14.2682L13.1245 13.3057ZM13.3529 13.2648C13.2509 13.3301 13.1668 13.3246 13.1245 13.3057L12.6963 14.2682C13.1277 14.4602 13.5866 14.3662 13.9212 14.1518L13.3529 13.2648ZM13.4971 13.0822C13.4917 13.1239 13.4564 13.1984 13.3529 13.2648L13.9212 14.1518C14.2153 13.9634 14.4874 13.6427 14.542 13.2159L13.4971 13.0822ZM13.5986 12.2887L13.4971 13.0822L14.542 13.2159L14.6436 12.4224L13.5986 12.2887ZM14.3166 11.6399C13.9015 11.6399 13.6469 11.9669 13.6002 12.2772L14.6419 12.4339C14.6349 12.481 14.6111 12.5425 14.555 12.5971C14.4964 12.6541 14.4113 12.6934 14.3166 12.6934V11.6399ZM14.321 11.6399H14.3166V12.6934H14.321V11.6399ZM14.7626 11.8796C13.9447 10.621 12.6773 9.70584 10.8151 9.70584V10.7593C12.2635 10.7593 13.2223 11.4427 13.8793 12.4537L14.7626 11.8796ZM10.8151 9.70584C8.80925 9.70584 7.5005 10.7659 6.69453 12.162C5.90411 13.5312 5.58081 15.2398 5.47731 16.6648L6.52801 16.7411C6.62641 15.3864 6.93081 13.8598 7.60688 12.6887C8.26738 11.5446 9.2639 10.7593 10.8151 10.7593V9.70584ZM5.47731 16.6648C5.4101 17.59 6.16806 18.3064 7.0425 18.3064V17.2529C6.72604 17.2529 6.50894 17.0036 6.52801 16.7411L5.47731 16.6648ZM7.0425 18.3064H10.8151V17.2529H7.0425V18.3064ZM10.8151 18.3064H11.2782V17.2529H10.8151V18.3064Z" fill="#434343"/>
</svg>
