<svg width="60" height="51" viewBox="0 0 60 51" fill="none" xmlns="http://www.w3.org/2000/svg">
<path d="M0.327148 12C0.327148 5.37258 5.69973 0 12.3271 0H47.6726C54.3 0 59.6726 5.37258 59.6726 12V26.0182C59.6726 32.6456 54.3 38.0182 47.6726 38.0182H12.3271C5.69973 38.0182 0.327148 32.6456 0.327148 26.0182V12Z" fill="#F5F5F5"/>
<path d="M31.7706 47.626C31.0215 49.0534 28.978 49.0534 28.2288 47.626L23.5069 38.6295C22.8079 37.2977 23.7738 35.7 25.2778 35.7L34.7217 35.7C36.2257 35.7 37.1916 37.2977 36.4926 38.6295L31.7706 47.626Z" fill="#F5F5F5"/>
<path d="M13.3091 10.4818C11.9284 10.4818 10.8091 11.6011 10.8091 12.9818C10.8091 14.3625 11.9284 15.4818 13.3091 15.4818V10.4818ZM45.7636 15.4818C47.1443 15.4818 48.2636 14.3625 48.2636 12.9818C48.2636 11.6011 47.1443 10.4818 45.7636 10.4818V15.4818ZM13.3091 15.4818H45.7636V10.4818H13.3091V15.4818Z" fill="#E9E9E9"/>
<path d="M13.3091 20.6818C11.9284 20.6818 10.8091 21.8011 10.8091 23.1818C10.8091 24.5625 11.9284 25.6818 13.3091 25.6818V20.6818ZM45.7636 25.6818C47.1443 25.6818 48.2636 24.5625 48.2636 23.1818C48.2636 21.8011 47.1443 20.6818 45.7636 20.6818V25.6818ZM13.3091 25.6818H45.7636V20.6818H13.3091V25.6818Z" fill="#E9E9E9"/>
</svg>
