<svg width="22" height="22" viewBox="0 0 22 22" fill="none" xmlns="http://www.w3.org/2000/svg">
<path d="M18.1404 3.23529H18.3934C18.7426 3.4287 18.803 3.54905 18.7451 3.94812C18.6814 4.39068 18.6159 4.83324 18.5505 5.2758C18.3456 6.655 18.1404 8.0342 17.9352 9.4134C17.7295 10.7977 17.5239 12.1824 17.3178 13.5666C17.1839 14.4669 17.048 15.3668 16.9145 16.2676C16.8917 16.4226 16.8229 16.5467 16.6941 16.635C16.5138 16.7583 16.3284 16.7254 16.1358 16.6595C14.3508 16.0472 12.5645 15.4374 10.7791 14.8267C10.2533 14.6468 9.7284 14.4661 9.18153 14.2786C11.4518 11.543 13.7102 8.82219 15.9682 6.10095C15.9128 6.098 15.8829 6.11742 15.8558 6.14065C12.9982 8.58402 10.1401 11.0274 7.2846 13.4737C7.19043 13.5544 7.11442 13.5789 6.99153 13.5362C5.6951 13.0873 4.3974 12.6418 3.09675 12.2039C2.87209 12.1283 2.68797 12.0244 2.58789 11.8023V11.5493C2.6563 11.3834 2.76694 11.263 2.93037 11.1777C5.68623 9.74236 8.44083 8.30404 11.195 6.8653C13.5108 5.65586 15.8254 4.44515 18.1404 3.23529Z" fill="#FFD0D0"/>
<path d="M8.50839 15.1177C9.41421 15.4272 10.3124 15.7342 11.2203 16.0446C11.2009 16.0797 11.1887 16.1075 11.1714 16.1312C10.5928 16.9196 10.0147 17.7084 9.43363 18.4956C9.22671 18.776 8.8931 18.8381 8.67267 18.6172C8.58145 18.526 8.50248 18.374 8.50079 18.249C8.48728 17.2232 8.49361 16.1975 8.49404 15.1717C8.49404 15.1616 8.4991 15.1519 8.50839 15.1181V15.1177Z" fill="#FFD0D0"/>
</svg>
