<svg width="24" height="24" viewBox="0 0 24 24" fill="none" xmlns="http://www.w3.org/2000/svg">
<path d="M14.6401 5.23596L14.7875 5.38889H15H17.1429C17.3212 5.38889 17.5 5.54774 17.5 5.77778C17.5 6.00782 17.3212 6.16667 17.1429 6.16667H6.85714C6.67884 6.16667 6.5 6.00782 6.5 5.77778C6.5 5.54774 6.67884 5.38889 6.85714 5.38889H9H9.21245L9.35992 5.23596L9.96849 4.60485C10.0316 4.53938 10.1258 4.5 10.2086 4.5H13.7914C13.8742 4.5 13.9684 4.53938 14.0315 4.60485L14.6401 5.23596ZM8.57143 19.5C7.9217 19.5 7.35714 18.9412 7.35714 18.2222V9.33333C7.35714 8.6144 7.9217 8.05556 8.57143 8.05556H15.4286C16.0783 8.05556 16.6429 8.6144 16.6429 9.33333V18.2222C16.6429 18.9412 16.0783 19.5 15.4286 19.5H8.57143Z" stroke="#434343"/>
<path d="M10.1052 11.3684V16.421M13.8947 11.3684V16.421" stroke="#434343" stroke-linecap="round" stroke-linejoin="round"/>
</svg>
