<svg width="52" height="26" viewBox="0 0 52 26" fill="none" xmlns="http://www.w3.org/2000/svg">
<rect y="1" width="52" height="24" rx="8" fill="#F5F5F5"/>
<path d="M11 13.4444L15.125 17L22 9" stroke="#909090" stroke-width="1.2" stroke-linecap="round" stroke-linejoin="round"/>
<path d="M36.1426 7.86914H29.4844V8.93555H30.6465V12.6064C30.1201 12.6064 29.6211 12.6133 29.1562 12.6133L29.3066 13.6934C31.4395 13.7002 34.2832 13.6523 36.7852 13.2695L36.7031 12.3125C36.1426 12.374 35.5615 12.4219 34.9668 12.4629V8.93555H36.1426V7.86914ZM30.8105 15.9766H37.8105V19.1621H39.1094V14.9238H30.8105V15.9766ZM31.8906 12.5859V8.93555H33.7227V12.5244C33.1074 12.5518 32.4922 12.5723 31.8906 12.5859ZM37.8105 14.3633H39.1094V6.91211H37.8105V14.3633Z" fill="#909090"/>
</svg>
