<svg width="358" height="58" viewBox="0 0 358 58" fill="none" xmlns="http://www.w3.org/2000/svg">
<rect width="358" height="58" rx="18" fill="#FF6262"/>
<path d="M169.309 21.9531C167.254 21.9531 165.817 23.0781 165.825 24.75C165.817 26.1953 166.934 27.25 168.606 27.4844V28.7812C167.317 28.8281 166.09 28.8359 165.043 28.8281L165.2 30.0312C167.606 30.0391 170.903 29.9844 173.84 29.4531L173.731 28.3594C172.575 28.5312 171.325 28.6484 170.09 28.7188V27.4688C171.715 27.2109 172.793 26.1719 172.809 24.75C172.793 23.0781 171.356 21.9531 169.309 21.9531ZM167.028 35.0312H176.575V33.8125H168.512V31.1094H167.028V35.0312ZM167.215 24.75C167.2 23.7344 168.075 23.0938 169.309 23.0938C170.551 23.0938 171.403 23.7344 171.403 24.75C171.403 25.7422 170.551 26.3906 169.309 26.3906C168.075 26.3906 167.2 25.7422 167.215 24.75ZM174.59 32.0469H176.075V27.2188H178.075V25.9688H176.075V21.3438H174.59V32.0469ZM191.54 32.4062H188.18V29.9375H190.305V28.7188H181.758V26.6875H189.977V22.3125H180.258V23.5312H188.508V25.4844H180.29V29.9375H182.227V32.4062H178.727V33.6562H191.54V32.4062ZM183.665 32.4062V29.9375H186.727V32.4062H183.665Z" fill="white"/>
</svg>
